<svg width="1556" height="1407" xmlns="http://www.w3.org/2000/svg" xmlns:xlink="http://www.w3.org/1999/xlink" xml:space="preserve" overflow="hidden"><defs><clipPath id="clip0"><rect x="1422" y="534" width="1556" height="1407"/></clipPath><clipPath id="clip1"><rect x="1454" y="558" width="1500" height="1351"/></clipPath><clipPath id="clip2"><rect x="1454" y="558" width="1500" height="1351"/></clipPath><clipPath id="clip3"><rect x="1454" y="558" width="1500" height="1351"/></clipPath><clipPath id="clip4"><rect x="1454" y="558" width="1500" height="1351"/></clipPath><clipPath id="clip5"><rect x="1454" y="558" width="1500" height="1351"/></clipPath></defs><g clip-path="url(#clip0)" transform="translate(-1422 -534)"><path d="M0 1486.26 1981.69 1486.26 1981.69 0 0 0Z" fill="#FFFFFF" transform="matrix(1 0 0 1.00027 1392.53 494.757)"/><path d="M61.4976 1413.5 1560.49 1413.5 1560.49 63.4759 61.4976 63.4759Z" fill="#FFFFFF" transform="matrix(1 0 0 1.00027 1392.53 494.757)"/><g clip-path="url(#clip1)"><path d="M0 9.61629C2.55027 9.61629 4.99645 8.60304 6.79975 6.79975 8.60304 4.99645 9.61629 2.55027 9.61629 0 9.61629-2.55027 8.60304-4.99645 6.79975-6.79975 4.99645-8.60304 2.55027-9.61629 0-9.61629-2.55027-9.61629-4.99645-8.60304-6.79975-6.79975-8.60304-4.99645-9.61629-2.55027-9.61629 0-9.61629 2.55027-8.60304 4.99645-6.79975 6.79975-4.99645 8.60304-2.55027 9.61629 0 9.61629Z" stroke="#FF6969" stroke-width="4.30053" stroke-linejoin="round" fill="#FF6969" transform="matrix(1 0 0 1.00027 2194.07 785.49)"/><path d="M0 9.61629C2.55027 9.61629 4.99645 8.60304 6.79975 6.79975 8.60304 4.99645 9.61629 2.55027 9.61629 0 9.61629-2.55027 8.60304-4.99645 6.79975-6.79975 4.99645-8.60304 2.55027-9.61629 0-9.61629-2.55027-9.61629-4.99645-8.60304-6.79975-6.79975-8.60304-4.99645-9.61629-2.55027-9.61629 0-9.61629 2.55027-8.60304 4.99645-6.79975 6.79975-4.99645 8.60304-2.55027 9.61629 0 9.61629Z" stroke="#FF6969" stroke-width="4.30053" stroke-linejoin="round" fill="#FF6969" transform="matrix(1 0 0 1.00027 2185.06 739.106)"/><path d="M0 9.61629C2.55027 9.61629 4.99645 8.60304 6.79975 6.79975 8.60304 4.99645 9.61629 2.55027 9.61629 0 9.61629-2.55027 8.60304-4.99645 6.79975-6.79975 4.99645-8.60304 2.55027-9.61629 0-9.61629-2.55027-9.61629-4.99645-8.60304-6.79975-6.79975-8.60304-4.99645-9.61629-2.55027-9.61629 0-9.61629 2.55027-8.60304 4.99645-6.79975 6.79975-4.99645 8.60304-2.55027 9.61629 0 9.61629Z" stroke="#FF6969" stroke-width="4.30053" stroke-linejoin="round" fill="#FF6969" transform="matrix(1 0 0 1.00027 2210.98 745.002)"/><path d="M0 9.61629C2.55027 9.61629 4.99645 8.60304 6.79975 6.79975 8.60304 4.99645 9.61629 2.55027 9.61629 0 9.61629-2.55027 8.60304-4.99645 6.79975-6.79975 4.99645-8.60304 2.55027-9.61629 0-9.61629-2.55027-9.61629-4.99645-8.60304-6.79975-6.79975-8.60304-4.99645-9.61629-2.55027-9.61629 0-9.61629 2.55027-8.60304 4.99645-6.79975 6.79975-4.99645 8.60304-2.55027 9.61629 0 9.61629Z" stroke="#FF6969" stroke-width="4.30053" stroke-linejoin="round" fill="#FF6969" transform="matrix(1 0 0 1.00027 2181.72 762.897)"/><path d="M0 9.61629C2.55027 9.61629 4.99645 8.60304 6.79975 6.79975 8.60304 4.99645 9.61629 2.55027 9.61629 0 9.61629-2.55027 8.60304-4.99645 6.79975-6.79975 4.99645-8.60304 2.55027-9.61629 0-9.61629-2.55027-9.61629-4.99645-8.60304-6.79975-6.79975-8.60304-4.99645-9.61629-2.55027-9.61629 0-9.61629 2.55027-8.60304 4.99645-6.79975 6.79975-4.99645 8.60304-2.55027 9.61629 0 9.61629Z" stroke="#FF6969" stroke-width="4.30053" stroke-linejoin="round" fill="#FF6969" transform="matrix(1 0 0 1.00027 2220.89 785.922)"/></g><g clip-path="url(#clip2)"><path d="M0 9.61629C2.55027 9.61629 4.99645 8.60304 6.79975 6.79975 8.60304 4.99645 9.61629 2.55027 9.61629 0 9.61629-2.55027 8.60304-4.99645 6.79975-6.79975 4.99645-8.60304 2.55027-9.61629 0-9.61629-2.55027-9.61629-4.99645-8.60304-6.79975-6.79975-8.60304-4.99645-9.61629-2.55027-9.61629 0-9.61629 2.55027-8.60304 4.99645-6.79975 6.79975-4.99645 8.60304-2.55027 9.61629 0 9.61629Z" stroke="#FF6969" stroke-width="4.30053" stroke-linejoin="round" fill="#FF6969" transform="matrix(1 0 0 1.00027 1703.32 1062.76)"/><path d="M0 9.61629C2.55027 9.61629 4.99645 8.60304 6.79975 6.79975 8.60304 4.99645 9.61629 2.55027 9.61629 0 9.61629-2.55027 8.60304-4.99645 6.79975-6.79975 4.99645-8.60304 2.55027-9.61629 0-9.61629-2.55027-9.61629-4.99645-8.60304-6.79975-6.79975-8.60304-4.99645-9.61629-2.55027-9.61629 0-9.61629 2.55027-8.60304 4.99645-6.79975 6.79975-4.99645 8.60304-2.55027 9.61629 0 9.61629Z" stroke="#FF6969" stroke-width="4.30053" stroke-linejoin="round" fill="#FF6969" transform="matrix(1 0 0 1.00027 1685.11 1086.56)"/><path d="M0 9.61629C2.55027 9.61629 4.99645 8.60304 6.79975 6.79975 8.60304 4.99645 9.61629 2.55027 9.61629 0 9.61629-2.55027 8.60304-4.99645 6.79975-6.79975 4.99645-8.60304 2.55027-9.61629 0-9.61629-2.55027-9.61629-4.99645-8.60304-6.79975-6.79975-8.60304-4.99645-9.61629-2.55027-9.61629 0-9.61629 2.55027-8.60304 4.99645-6.79975 6.79975-4.99645 8.60304-2.55027 9.61629 0 9.61629Z" stroke="#FF6969" stroke-width="4.30053" stroke-linejoin="round" fill="#FF6969" transform="matrix(1 0 0 1.00027 1667.16 1081.95)"/><path d="M0 9.61629C2.55027 9.61629 4.99645 8.60304 6.79975 6.79975 8.60304 4.99645 9.61629 2.55027 9.61629 0 9.61629-2.55027 8.60304-4.99645 6.79975-6.79975 4.99645-8.60304 2.55027-9.61629 0-9.61629-2.55027-9.61629-4.99645-8.60304-6.79975-6.79975-8.60304-4.99645-9.61629-2.55027-9.61629 0-9.61629 2.55027-8.60304 4.99645-6.79975 6.79975-4.99645 8.60304-2.55027 9.61629 0 9.61629Z" stroke="#FF6969" stroke-width="4.30053" stroke-linejoin="round" fill="#FF6969" transform="matrix(1 0 0 1.00027 1662.92 1101.79)"/><path d="M0 9.61629C2.55027 9.61629 4.99645 8.60304 6.79975 6.79975 8.60304 4.99645 9.61629 2.55027 9.61629 0 9.61629-2.55027 8.60304-4.99645 6.79975-6.79975 4.99645-8.60304 2.55027-9.61629 0-9.61629-2.55027-9.61629-4.99645-8.60304-6.79975-6.79975-8.60304-4.99645-9.61629-2.55027-9.61629 0-9.61629 2.55027-8.60304 4.99645-6.79975 6.79975-4.99645 8.60304-2.55027 9.61629 0 9.61629Z" stroke="#FF6969" stroke-width="4.30053" stroke-linejoin="round" fill="#FF6969" transform="matrix(1 0 0 1.00027 1671.77 1077.93)"/></g><g clip-path="url(#clip3)"><path d="M0 9.61629C2.55027 9.61629 4.99645 8.60304 6.79975 6.79975 8.60304 4.99645 9.61629 2.55027 9.61629 0 9.61629-2.55027 8.60304-4.99645 6.79975-6.79975 4.99645-8.60304 2.55027-9.61629 0-9.61629-2.55027-9.61629-4.99645-8.60304-6.79975-6.79975-8.60304-4.99645-9.61629-2.55027-9.61629 0-9.61629 2.55027-8.60304 4.99645-6.79975 6.79975-4.99645 8.60304-2.55027 9.61629 0 9.61629Z" stroke="#FF6969" stroke-width="4.30053" stroke-linejoin="round" fill="#FF6969" transform="matrix(1 0 0 1.00027 2454.05 1023.22)"/><path d="M0 9.61629C2.55027 9.61629 4.99645 8.60304 6.79975 6.79975 8.60304 4.99645 9.61629 2.55027 9.61629 0 9.61629-2.55027 8.60304-4.99645 6.79975-6.79975 4.99645-8.60304 2.55027-9.61629 0-9.61629-2.55027-9.61629-4.99645-8.60304-6.79975-6.79975-8.60304-4.99645-9.61629-2.55027-9.61629 0-9.61629 2.55027-8.60304 4.99645-6.79975 6.79975-4.99645 8.60304-2.55027 9.61629 0 9.61629Z" stroke="#FF6969" stroke-width="4.30053" stroke-linejoin="round" fill="#FF6969" transform="matrix(1 0 0 1.00027 2409.26 1026.67)"/><path d="M0 9.61629C2.55027 9.61629 4.99645 8.60304 6.79975 6.79975 8.60304 4.99645 9.61629 2.55027 9.61629 0 9.61629-2.55027 8.60304-4.99645 6.79975-6.79975 4.99645-8.60304 2.55027-9.61629 0-9.61629-2.55027-9.61629-4.99645-8.60304-6.79975-6.79975-8.60304-4.99645-9.61629-2.55027-9.61629 0-9.61629 2.55027-8.60304 4.99645-6.79975 6.79975-4.99645 8.60304-2.55027 9.61629 0 9.61629Z" stroke="#FF6969" stroke-width="4.30053" stroke-linejoin="round" fill="#FF6969" transform="matrix(1 0 0 1.00027 2431.79 1058.78)"/><path d="M0 9.61629C2.55027 9.61629 4.99645 8.60304 6.79975 6.79975 8.60304 4.99645 9.61629 2.55027 9.61629 0 9.61629-2.55027 8.60304-4.99645 6.79975-6.79975 4.99645-8.60304 2.55027-9.61629 0-9.61629-2.55027-9.61629-4.99645-8.60304-6.79975-6.79975-8.60304-4.99645-9.61629-2.55027-9.61629 0-9.61629 2.55027-8.60304 4.99645-6.79975 6.79975-4.99645 8.60304-2.55027 9.61629 0 9.61629Z" stroke="#FF6969" stroke-width="4.30053" stroke-linejoin="round" fill="#FF6969" transform="matrix(1 0 0 1.00027 2431.51 1001.01)"/><path d="M0 9.61629C2.55027 9.61629 4.99645 8.60304 6.79975 6.79975 8.60304 4.99645 9.61629 2.55027 9.61629 0 9.61629-2.55027 8.60304-4.99645 6.79975-6.79975 4.99645-8.60304 2.55027-9.61629 0-9.61629-2.55027-9.61629-4.99645-8.60304-6.79975-6.79975-8.60304-4.99645-9.61629-2.55027-9.61629 0-9.61629 2.55027-8.60304 4.99645-6.79975 6.79975-4.99645 8.60304-2.55027 9.61629 0 9.61629Z" stroke="#FF6969" stroke-width="4.30053" stroke-linejoin="round" fill="#FF6969" transform="matrix(1 0 0 1.00027 2446.56 1035.13)"/></g><g clip-path="url(#clip4)"><path d="M0 9.61629C2.55027 9.61629 4.99645 8.60304 6.79975 6.79975 8.60304 4.99645 9.61629 2.55027 9.61629 0 9.61629-2.55027 8.60304-4.99645 6.79975-6.79975 4.99645-8.60304 2.55027-9.61629 0-9.61629-2.55027-9.61629-4.99645-8.60304-6.79975-6.79975-8.60304-4.99645-9.61629-2.55027-9.61629 0-9.61629 2.55027-8.60304 4.99645-6.79975 6.79975-4.99645 8.60304-2.55027 9.61629 0 9.61629Z" stroke="#78D695" stroke-width="4.30053" stroke-linejoin="round" fill="#78D695" transform="matrix(1 0 0 1.00027 2348.47 1365.19)"/><path d="M0 9.61629C2.55027 9.61629 4.99645 8.60304 6.79975 6.79975 8.60304 4.99645 9.61629 2.55027 9.61629 0 9.61629-2.55027 8.60304-4.99645 6.79975-6.79975 4.99645-8.60304 2.55027-9.61629 0-9.61629-2.55027-9.61629-4.99645-8.60304-6.79975-6.79975-8.60304-4.99645-9.61629-2.55027-9.61629 0-9.61629 2.55027-8.60304 4.99645-6.79975 6.79975-4.99645 8.60304-2.55027 9.61629 0 9.61629Z" stroke="#78D695" stroke-width="4.30053" stroke-linejoin="round" fill="#78D695" transform="matrix(1 0 0 1.00027 1986.63 1568.86)"/><path d="M0 9.61629C2.55027 9.61629 4.99645 8.60304 6.79975 6.79975 8.60304 4.99645 9.61629 2.55027 9.61629 0 9.61629-2.55027 8.60304-4.99645 6.79975-6.79975 4.99645-8.60304 2.55027-9.61629 0-9.61629-2.55027-9.61629-4.99645-8.60304-6.79975-6.79975-8.60304-4.99645-9.61629-2.55027-9.61629 0-9.61629 2.55027-8.60304 4.99645-6.79975 6.79975-4.99645 8.60304-2.55027 9.61629 0 9.61629Z" stroke="#78D695" stroke-width="4.30053" stroke-linejoin="round" fill="#78D695" transform="matrix(1 0 0 1.00027 2930.05 962.927)"/><path d="M0 9.61629C2.55027 9.61629 4.99645 8.60304 6.79975 6.79975 8.60304 4.99645 9.61629 2.55027 9.61629 0 9.61629-2.55027 8.60304-4.99645 6.79975-6.79975 4.99645-8.60304 2.55027-9.61629 0-9.61629-2.55027-9.61629-4.99645-8.60304-6.79975-6.79975-8.60304-4.99645-9.61629-2.55027-9.61629 0-9.61629 2.55027-8.60304 4.99645-6.79975 6.79975-4.99645 8.60304-2.55027 9.61629 0 9.61629Z" stroke="#78D695" stroke-width="4.30053" stroke-linejoin="round" fill="#78D695" transform="matrix(1 0 0 1.00027 2656.55 1147.75)"/><path d="M0 9.61629C2.55027 9.61629 4.99645 8.60304 6.79975 6.79975 8.60304 4.99645 9.61629 2.55027 9.61629 0 9.61629-2.55027 8.60304-4.99645 6.79975-6.79975 4.99645-8.60304 2.55027-9.61629 0-9.61629-2.55027-9.61629-4.99645-8.60304-6.79975-6.79975-8.60304-4.99645-9.61629-2.55027-9.61629 0-9.61629 2.55027-8.60304 4.99645-6.79975 6.79975-4.99645 8.60304-2.55027 9.61629 0 9.61629Z" stroke="#78D695" stroke-width="4.30053" stroke-linejoin="round" fill="#78D695" transform="matrix(1 0 0 1.00027 2820.69 1032.41)"/><path d="M0 9.61629C2.55027 9.61629 4.99645 8.60304 6.79975 6.79975 8.60304 4.99645 9.61629 2.55027 9.61629 0 9.61629-2.55027 8.60304-4.99645 6.79975-6.79975 4.99645-8.60304 2.55027-9.61629 0-9.61629-2.55027-9.61629-4.99645-8.60304-6.79975-6.79975-8.60304-4.99645-9.61629-2.55027-9.61629 0-9.61629 2.55027-8.60304 4.99645-6.79975 6.79975-4.99645 8.60304-2.55027 9.61629 0 9.61629Z" stroke="#78D695" stroke-width="4.30053" stroke-linejoin="round" fill="#78D695" transform="matrix(1 0 0 1.00027 1915.92 1626.47)"/><path d="M0 9.61629C2.55027 9.61629 4.99645 8.60304 6.79975 6.79975 8.60304 4.99645 9.61629 2.55027 9.61629 0 9.61629-2.55027 8.60304-4.99645 6.79975-6.79975 4.99645-8.60304 2.55027-9.61629 0-9.61629-2.55027-9.61629-4.99645-8.60304-6.79975-6.79975-8.60304-4.99645-9.61629-2.55027-9.61629 0-9.61629 2.55027-8.60304 4.99645-6.79975 6.79975-4.99645 8.60304-2.55027 9.61629 0 9.61629Z" stroke="#78D695" stroke-width="4.30053" stroke-linejoin="round" fill="#78D695" transform="matrix(1 0 0 1.00027 2819.68 1046.75)"/><path d="M0 9.61629C2.55027 9.61629 4.99645 8.60304 6.79975 6.79975 8.60304 4.99645 9.61629 2.55027 9.61629 0 9.61629-2.55027 8.60304-4.99645 6.79975-6.79975 4.99645-8.60304 2.55027-9.61629 0-9.61629-2.55027-9.61629-4.99645-8.60304-6.79975-6.79975-8.60304-4.99645-9.61629-2.55027-9.61629 0-9.61629 2.55027-8.60304 4.99645-6.79975 6.79975-4.99645 8.60304-2.55027 9.61629 0 9.61629Z" stroke="#78D695" stroke-width="4.30053" stroke-linejoin="round" fill="#78D695" transform="matrix(1 0 0 1.00027 1722.97 1750.21)"/><path d="M0 9.61629C2.55027 9.61629 4.99645 8.60304 6.79975 6.79975 8.60304 4.99645 9.61629 2.55027 9.61629 0 9.61629-2.55027 8.60304-4.99645 6.79975-6.79975 4.99645-8.60304 2.55027-9.61629 0-9.61629-2.55027-9.61629-4.99645-8.60304-6.79975-6.79975-8.60304-4.99645-9.61629-2.55027-9.61629 0-9.61629 2.55027-8.60304 4.99645-6.79975 6.79975-4.99645 8.60304-2.55027 9.61629 0 9.61629Z" stroke="#78D695" stroke-width="4.30053" stroke-linejoin="round" fill="#78D695" transform="matrix(1 0 0 1.00027 2708.23 1097.39)"/><path d="M0 9.61629C2.55027 9.61629 4.99645 8.60304 6.79975 6.79975 8.60304 4.99645 9.61629 2.55027 9.61629 0 9.61629-2.55027 8.60304-4.99645 6.79975-6.79975 4.99645-8.60304 2.55027-9.61629 0-9.61629-2.55027-9.61629-4.99645-8.60304-6.79975-6.79975-8.60304-4.99645-9.61629-2.55027-9.61629 0-9.61629 2.55027-8.60304 4.99645-6.79975 6.79975-4.99645 8.60304-2.55027 9.61629 0 9.61629Z" stroke="#78D695" stroke-width="4.30053" stroke-linejoin="round" fill="#78D695" transform="matrix(1 0 0 1.00027 2324.31 1373.2)"/><path d="M0 9.61629C2.55027 9.61629 4.99645 8.60304 6.79975 6.79975 8.60304 4.99645 9.61629 2.55027 9.61629 0 9.61629-2.55027 8.60304-4.99645 6.79975-6.79975 4.99645-8.60304 2.55027-9.61629 0-9.61629-2.55027-9.61629-4.99645-8.60304-6.79975-6.79975-8.60304-4.99645-9.61629-2.55027-9.61629 0-9.61629 2.55027-8.60304 4.99645-6.79975 6.79975-4.99645 8.60304-2.55027 9.61629 0 9.61629Z" stroke="#78D695" stroke-width="4.30053" stroke-linejoin="round" fill="#78D695" transform="matrix(1 0 0 1.00027 2835.5 1045.55)"/><path d="M0 9.61629C2.55027 9.61629 4.99645 8.60304 6.79975 6.79975 8.60304 4.99645 9.61629 2.55027 9.61629 0 9.61629-2.55027 8.60304-4.99645 6.79975-6.79975 4.99645-8.60304 2.55027-9.61629 0-9.61629-2.55027-9.61629-4.99645-8.60304-6.79975-6.79975-8.60304-4.99645-9.61629-2.55027-9.61629 0-9.61629 2.55027-8.60304 4.99645-6.79975 6.79975-4.99645 8.60304-2.55027 9.61629 0 9.61629Z" stroke="#78D695" stroke-width="4.30053" stroke-linejoin="round" fill="#78D695" transform="matrix(1 0 0 1.00027 1559.31 1825.15)"/><path d="M0 9.61629C2.55027 9.61629 4.99645 8.60304 6.79975 6.79975 8.60304 4.99645 9.61629 2.55027 9.61629 0 9.61629-2.55027 8.60304-4.99645 6.79975-6.79975 4.99645-8.60304 2.55027-9.61629 0-9.61629-2.55027-9.61629-4.99645-8.60304-6.79975-6.79975-8.60304-4.99645-9.61629-2.55027-9.61629 0-9.61629 2.55027-8.60304 4.99645-6.79975 6.79975-4.99645 8.60304-2.55027 9.61629 0 9.61629Z" stroke="#78D695" stroke-width="4.30053" stroke-linejoin="round" fill="#78D695" transform="matrix(1 0 0 1.00027 1737.23 1735.36)"/><path d="M0 9.61629C2.55027 9.61629 4.99645 8.60304 6.79975 6.79975 8.60304 4.99645 9.61629 2.55027 9.61629 0 9.61629-2.55027 8.60304-4.99645 6.79975-6.79975 4.99645-8.60304 2.55027-9.61629 0-9.61629-2.55027-9.61629-4.99645-8.60304-6.79975-6.79975-8.60304-4.99645-9.61629-2.55027-9.61629 0-9.61629 2.55027-8.60304 4.99645-6.79975 6.79975-4.99645 8.60304-2.55027 9.61629 0 9.61629Z" stroke="#78D695" stroke-width="4.30053" stroke-linejoin="round" fill="#78D695" transform="matrix(1 0 0 1.00027 2815.41 1052.88)"/><path d="M0 9.61629C2.55027 9.61629 4.99645 8.60304 6.79975 6.79975 8.60304 4.99645 9.61629 2.55027 9.61629 0 9.61629-2.55027 8.60304-4.99645 6.79975-6.79975 4.99645-8.60304 2.55027-9.61629 0-9.61629-2.55027-9.61629-4.99645-8.60304-6.79975-6.79975-8.60304-4.99645-9.61629-2.55027-9.61629 0-9.61629 2.55027-8.60304 4.99645-6.79975 6.79975-4.99645 8.60304-2.55027 9.61629 0 9.61629Z" stroke="#78D695" stroke-width="4.30053" stroke-linejoin="round" fill="#78D695" transform="matrix(1 0 0 1.00027 2344.53 1359.69)"/><path d="M0 9.61629C2.55027 9.61629 4.99645 8.60304 6.79975 6.79975 8.60304 4.99645 9.61629 2.55027 9.61629 0 9.61629-2.55027 8.60304-4.99645 6.79975-6.79975 4.99645-8.60304 2.55027-9.61629 0-9.61629-2.55027-9.61629-4.99645-8.60304-6.79975-6.79975-8.60304-4.99645-9.61629-2.55027-9.61629 0-9.61629 2.55027-8.60304 4.99645-6.79975 6.79975-4.99645 8.60304-2.55027 9.61629 0 9.61629Z" stroke="#78D695" stroke-width="4.30053" stroke-linejoin="round" fill="#78D695" transform="matrix(1 0 0 1.00027 2706.62 1130.86)"/><path d="M0 9.61629C2.55027 9.61629 4.99645 8.60304 6.79975 6.79975 8.60304 4.99645 9.61629 2.55027 9.61629 0 9.61629-2.55027 8.60304-4.99645 6.79975-6.79975 4.99645-8.60304 2.55027-9.61629 0-9.61629-2.55027-9.61629-4.99645-8.60304-6.79975-6.79975-8.60304-4.99645-9.61629-2.55027-9.61629 0-9.61629 2.55027-8.60304 4.99645-6.79975 6.79975-4.99645 8.60304-2.55027 9.61629 0 9.61629Z" stroke="#78D695" stroke-width="4.30053" stroke-linejoin="round" fill="#78D695" transform="matrix(1 0 0 1.00027 2640.33 1154.65)"/><path d="M0 9.61629C2.55027 9.61629 4.99645 8.60304 6.79975 6.79975 8.60304 4.99645 9.61629 2.55027 9.61629 0 9.61629-2.55027 8.60304-4.99645 6.79975-6.79975 4.99645-8.60304 2.55027-9.61629 0-9.61629-2.55027-9.61629-4.99645-8.60304-6.79975-6.79975-8.60304-4.99645-9.61629-2.55027-9.61629 0-9.61629 2.55027-8.60304 4.99645-6.79975 6.79975-4.99645 8.60304-2.55027 9.61629 0 9.61629Z" stroke="#78D695" stroke-width="4.30053" stroke-linejoin="round" fill="#78D695" transform="matrix(1 0 0 1.00027 1796.2 1699.71)"/><path d="M0 9.61629C2.55027 9.61629 4.99645 8.60304 6.79975 6.79975 8.60304 4.99645 9.61629 2.55027 9.61629 0 9.61629-2.55027 8.60304-4.99645 6.79975-6.79975 4.99645-8.60304 2.55027-9.61629 0-9.61629-2.55027-9.61629-4.99645-8.60304-6.79975-6.79975-8.60304-4.99645-9.61629-2.55027-9.61629 0-9.61629 2.55027-8.60304 4.99645-6.79975 6.79975-4.99645 8.60304-2.55027 9.61629 0 9.61629Z" stroke="#78D695" stroke-width="4.30053" stroke-linejoin="round" fill="#78D695" transform="matrix(1 0 0 1.00027 2237.35 1409.51)"/><path d="M0 9.61629C2.55027 9.61629 4.99645 8.60304 6.79975 6.79975 8.60304 4.99645 9.61629 2.55027 9.61629 0 9.61629-2.55027 8.60304-4.99645 6.79975-6.79975 4.99645-8.60304 2.55027-9.61629 0-9.61629-2.55027-9.61629-4.99645-8.60304-6.79975-6.79975-8.60304-4.99645-9.61629-2.55027-9.61629 0-9.61629 2.55027-8.60304 4.99645-6.79975 6.79975-4.99645 8.60304-2.55027 9.61629 0 9.61629Z" stroke="#78D695" stroke-width="4.30053" stroke-linejoin="round" fill="#78D695" transform="matrix(1 0 0 1.00027 1682.43 1768.63)"/><path d="M0 9.61629C2.55027 9.61629 4.99645 8.60304 6.79975 6.79975 8.60304 4.99645 9.61629 2.55027 9.61629 0 9.61629-2.55027 8.60304-4.99645 6.79975-6.79975 4.99645-8.60304 2.55027-9.61629 0-9.61629-2.55027-9.61629-4.99645-8.60304-6.79975-6.79975-8.60304-4.99645-9.61629-2.55027-9.61629 0-9.61629 2.55027-8.60304 4.99645-6.79975 6.79975-4.99645 8.60304-2.55027 9.61629 0 9.61629Z" stroke="#78D695" stroke-width="4.30053" stroke-linejoin="round" fill="#78D695" transform="matrix(1 0 0 1.00027 1606.38 1813.84)"/><path d="M0 9.61629C2.55027 9.61629 4.99645 8.60304 6.79975 6.79975 8.60304 4.99645 9.61629 2.55027 9.61629 0 9.61629-2.55027 8.60304-4.99645 6.79975-6.79975 4.99645-8.60304 2.55027-9.61629 0-9.61629-2.55027-9.61629-4.99645-8.60304-6.79975-6.79975-8.60304-4.99645-9.61629-2.55027-9.61629 0-9.61629 2.55027-8.60304 4.99645-6.79975 6.79975-4.99645 8.60304-2.55027 9.61629 0 9.61629Z" stroke="#78D695" stroke-width="4.30053" stroke-linejoin="round" fill="#78D695" transform="matrix(1 0 0 1.00027 1775.99 1696.76)"/><path d="M0 9.61629C2.55027 9.61629 4.99645 8.60304 6.79975 6.79975 8.60304 4.99645 9.61629 2.55027 9.61629 0 9.61629-2.55027 8.60304-4.99645 6.79975-6.79975 4.99645-8.60304 2.55027-9.61629 0-9.61629-2.55027-9.61629-4.99645-8.60304-6.79975-6.79975-8.60304-4.99645-9.61629-2.55027-9.61629 0-9.61629 2.55027-8.60304 4.99645-6.79975 6.79975-4.99645 8.60304-2.55027 9.61629 0 9.61629Z" stroke="#78D695" stroke-width="4.30053" stroke-linejoin="round" fill="#78D695" transform="matrix(1 0 0 1.00027 2243.76 1386.97)"/><path d="M0 9.61629C2.55027 9.61629 4.99645 8.60304 6.79975 6.79975 8.60304 4.99645 9.61629 2.55027 9.61629 0 9.61629-2.55027 8.60304-4.99645 6.79975-6.79975 4.99645-8.60304 2.55027-9.61629 0-9.61629-2.55027-9.61629-4.99645-8.60304-6.79975-6.79975-8.60304-4.99645-9.61629-2.55027-9.61629 0-9.61629 2.55027-8.60304 4.99645-6.79975 6.79975-4.99645 8.60304-2.55027 9.61629 0 9.61629Z" stroke="#78D695" stroke-width="4.30053" stroke-linejoin="round" fill="#78D695" transform="matrix(1 0 0 1.00027 2843.32 1033.27)"/><path d="M0 9.61629C2.55027 9.61629 4.99645 8.60304 6.79975 6.79975 8.60304 4.99645 9.61629 2.55027 9.61629 0 9.61629-2.55027 8.60304-4.99645 6.79975-6.79975 4.99645-8.60304 2.55027-9.61629 0-9.61629-2.55027-9.61629-4.99645-8.60304-6.79975-6.79975-8.60304-4.99645-9.61629-2.55027-9.61629 0-9.61629 2.55027-8.60304 4.99645-6.79975 6.79975-4.99645 8.60304-2.55027 9.61629 0 9.61629Z" stroke="#78D695" stroke-width="4.30053" stroke-linejoin="round" fill="#78D695" transform="matrix(1 0 0 1.00027 2673.01 1138.19)"/><path d="M0 9.61629C2.55027 9.61629 4.99645 8.60304 6.79975 6.79975 8.60304 4.99645 9.61629 2.55027 9.61629 0 9.61629-2.55027 8.60304-4.99645 6.79975-6.79975 4.99645-8.60304 2.55027-9.61629 0-9.61629-2.55027-9.61629-4.99645-8.60304-6.79975-6.79975-8.60304-4.99645-9.61629-2.55027-9.61629 0-9.61629 2.55027-8.60304 4.99645-6.79975 6.79975-4.99645 8.60304-2.55027 9.61629 0 9.61629Z" stroke="#78D695" stroke-width="4.30053" stroke-linejoin="round" fill="#78D695" transform="matrix(1 0 0 1.00027 1808.25 1683.86)"/><path d="M0 9.61629C2.55027 9.61629 4.99645 8.60304 6.79975 6.79975 8.60304 4.99645 9.61629 2.55027 9.61629 0 9.61629-2.55027 8.60304-4.99645 6.79975-6.79975 4.99645-8.60304 2.55027-9.61629 0-9.61629-2.55027-9.61629-4.99645-8.60304-6.79975-6.79975-8.60304-4.99645-9.61629-2.55027-9.61629 0-9.61629 2.55027-8.60304 4.99645-6.79975 6.79975-4.99645 8.60304-2.55027 9.61629 0 9.61629Z" stroke="#78D695" stroke-width="4.30053" stroke-linejoin="round" fill="#78D695" transform="matrix(1 0 0 1.00027 1755.49 1713.42)"/><path d="M0 9.61629C2.55027 9.61629 4.99645 8.60304 6.79975 6.79975 8.60304 4.99645 9.61629 2.55027 9.61629 0 9.61629-2.55027 8.60304-4.99645 6.79975-6.79975 4.99645-8.60304 2.55027-9.61629 0-9.61629-2.55027-9.61629-4.99645-8.60304-6.79975-6.79975-8.60304-4.99645-9.61629-2.55027-9.61629 0-9.61629 2.55027-8.60304 4.99645-6.79975 6.79975-4.99645 8.60304-2.55027 9.61629 0 9.61629Z" stroke="#78D695" stroke-width="4.30053" stroke-linejoin="round" fill="#78D695" transform="matrix(1 0 0 1.00027 2708.86 1111.5)"/><path d="M0 9.61629C2.55027 9.61629 4.99645 8.60304 6.79975 6.79975 8.60304 4.99645 9.61629 2.55027 9.61629 0 9.61629-2.55027 8.60304-4.99645 6.79975-6.79975 4.99645-8.60304 2.55027-9.61629 0-9.61629-2.55027-9.61629-4.99645-8.60304-6.79975-6.79975-8.60304-4.99645-9.61629-2.55027-9.61629 0-9.61629 2.55027-8.60304 4.99645-6.79975 6.79975-4.99645 8.60304-2.55027 9.61629 0 9.61629Z" stroke="#78D695" stroke-width="4.30053" stroke-linejoin="round" fill="#78D695" transform="matrix(1 0 0 1.00027 1469.38 1895.25)"/><path d="M0 9.61629C2.55027 9.61629 4.99645 8.60304 6.79975 6.79975 8.60304 4.99645 9.61629 2.55027 9.61629 0 9.61629-2.55027 8.60304-4.99645 6.79975-6.79975 4.99645-8.60304 2.55027-9.61629 0-9.61629-2.55027-9.61629-4.99645-8.60304-6.79975-6.79975-8.60304-4.99645-9.61629-2.55027-9.61629 0-9.61629 2.55027-8.60304 4.99645-6.79975 6.79975-4.99645 8.60304-2.55027 9.61629 0 9.61629Z" stroke="#78D695" stroke-width="4.30053" stroke-linejoin="round" fill="#78D695" transform="matrix(1 0 0 1.00027 1914.96 1618.15)"/><path d="M0 9.61629C2.55027 9.61629 4.99645 8.60304 6.79975 6.79975 8.60304 4.99645 9.61629 2.55027 9.61629 0 9.61629-2.55027 8.60304-4.99645 6.79975-6.79975 4.99645-8.60304 2.55027-9.61629 0-9.61629-2.55027-9.61629-4.99645-8.60304-6.79975-6.79975-8.60304-4.99645-9.61629-2.55027-9.61629 0-9.61629 2.55027-8.60304 4.99645-6.79975 6.79975-4.99645 8.60304-2.55027 9.61629 0 9.61629Z" stroke="#78D695" stroke-width="4.30053" stroke-linejoin="round" fill="#78D695" transform="matrix(1 0 0 1.00027 2508.28 1251.13)"/><path d="M0 9.61629C2.55027 9.61629 4.99645 8.60304 6.79975 6.79975 8.60304 4.99645 9.61629 2.55027 9.61629 0 9.61629-2.55027 8.60304-4.99645 6.79975-6.79975 4.99645-8.60304 2.55027-9.61629 0-9.61629-2.55027-9.61629-4.99645-8.60304-6.79975-6.79975-8.60304-4.99645-9.61629-2.55027-9.61629 0-9.61629 2.55027-8.60304 4.99645-6.79975 6.79975-4.99645 8.60304-2.55027 9.61629 0 9.61629Z" stroke="#78D695" stroke-width="4.30053" stroke-linejoin="round" fill="#78D695" transform="matrix(1 0 0 1.00027 2609.97 1174.56)"/><path d="M0 9.61629C2.55027 9.61629 4.99645 8.60304 6.79975 6.79975 8.60304 4.99645 9.61629 2.55027 9.61629 0 9.61629-2.55027 8.60304-4.99645 6.79975-6.79975 4.99645-8.60304 2.55027-9.61629 0-9.61629-2.55027-9.61629-4.99645-8.60304-6.79975-6.79975-8.60304-4.99645-9.61629-2.55027-9.61629 0-9.61629 2.55027-8.60304 4.99645-6.79975 6.79975-4.99645 8.60304-2.55027 9.61629 0 9.61629Z" stroke="#78D695" stroke-width="4.30053" stroke-linejoin="round" fill="#78D695" transform="matrix(1 0 0 1.00027 2711.76 1110.78)"/><path d="M0 9.61629C2.55027 9.61629 4.99645 8.60304 6.79975 6.79975 8.60304 4.99645 9.61629 2.55027 9.61629 0 9.61629-2.55027 8.60304-4.99645 6.79975-6.79975 4.99645-8.60304 2.55027-9.61629 0-9.61629-2.55027-9.61629-4.99645-8.60304-6.79975-6.79975-8.60304-4.99645-9.61629-2.55027-9.61629 0-9.61629 2.55027-8.60304 4.99645-6.79975 6.79975-4.99645 8.60304-2.55027 9.61629 0 9.61629Z" stroke="#78D695" stroke-width="4.30053" stroke-linejoin="round" fill="#78D695" transform="matrix(1 0 0 1.00027 2346.71 1353.05)"/><path d="M0 9.61629C2.55027 9.61629 4.99645 8.60304 6.79975 6.79975 8.60304 4.99645 9.61629 2.55027 9.61629 0 9.61629-2.55027 8.60304-4.99645 6.79975-6.79975 4.99645-8.60304 2.55027-9.61629 0-9.61629-2.55027-9.61629-4.99645-8.60304-6.79975-6.79975-8.60304-4.99645-9.61629-2.55027-9.61629 0-9.61629 2.55027-8.60304 4.99645-6.79975 6.79975-4.99645 8.60304-2.55027 9.61629 0 9.61629Z" stroke="#78D695" stroke-width="4.30053" stroke-linejoin="round" fill="#78D695" transform="matrix(1 0 0 1.00027 2481.28 1261.63)"/><path d="M0 9.61629C2.55027 9.61629 4.99645 8.60304 6.79975 6.79975 8.60304 4.99645 9.61629 2.55027 9.61629 0 9.61629-2.55027 8.60304-4.99645 6.79975-6.79975 4.99645-8.60304 2.55027-9.61629 0-9.61629-2.55027-9.61629-4.99645-8.60304-6.79975-6.79975-8.60304-4.99645-9.61629-2.55027-9.61629 0-9.61629 2.55027-8.60304 4.99645-6.79975 6.79975-4.99645 8.60304-2.55027 9.61629 0 9.61629Z" stroke="#78D695" stroke-width="4.30053" stroke-linejoin="round" fill="#78D695" transform="matrix(1 0 0 1.00027 2748.75 1093.53)"/><path d="M0 9.61629C2.55027 9.61629 4.99645 8.60304 6.79975 6.79975 8.60304 4.99645 9.61629 2.55027 9.61629 0 9.61629-2.55027 8.60304-4.99645 6.79975-6.79975 4.99645-8.60304 2.55027-9.61629 0-9.61629-2.55027-9.61629-4.99645-8.60304-6.79975-6.79975-8.60304-4.99645-9.61629-2.55027-9.61629 0-9.61629 2.55027-8.60304 4.99645-6.79975 6.79975-4.99645 8.60304-2.55027 9.61629 0 9.61629Z" stroke="#78D695" stroke-width="4.30053" stroke-linejoin="round" fill="#78D695" transform="matrix(1 0 0 1.00027 2629.62 1172.6)"/><path d="M0 9.61629C2.55027 9.61629 4.99645 8.60304 6.79975 6.79975 8.60304 4.99645 9.61629 2.55027 9.61629 0 9.61629-2.55027 8.60304-4.99645 6.79975-6.79975 4.99645-8.60304 2.55027-9.61629 0-9.61629-2.55027-9.61629-4.99645-8.60304-6.79975-6.79975-8.60304-4.99645-9.61629-2.55027-9.61629 0-9.61629 2.55027-8.60304 4.99645-6.79975 6.79975-4.99645 8.60304-2.55027 9.61629 0 9.61629Z" stroke="#78D695" stroke-width="4.30053" stroke-linejoin="round" fill="#78D695" transform="matrix(1 0 0 1.00027 2637.15 1155.11)"/><path d="M0 9.61629C2.55027 9.61629 4.99645 8.60304 6.79975 6.79975 8.60304 4.99645 9.61629 2.55027 9.61629 0 9.61629-2.55027 8.60304-4.99645 6.79975-6.79975 4.99645-8.60304 2.55027-9.61629 0-9.61629-2.55027-9.61629-4.99645-8.60304-6.79975-6.79975-8.60304-4.99645-9.61629-2.55027-9.61629 0-9.61629 2.55027-8.60304 4.99645-6.79975 6.79975-4.99645 8.60304-2.55027 9.61629 0 9.61629Z" stroke="#78D695" stroke-width="4.30053" stroke-linejoin="round" fill="#78D695" transform="matrix(1 0 0 1.00027 1873.63 1643.04)"/><path d="M0 9.61629C2.55027 9.61629 4.99645 8.60304 6.79975 6.79975 8.60304 4.99645 9.61629 2.55027 9.61629 0 9.61629-2.55027 8.60304-4.99645 6.79975-6.79975 4.99645-8.60304 2.55027-9.61629 0-9.61629-2.55027-9.61629-4.99645-8.60304-6.79975-6.79975-8.60304-4.99645-9.61629-2.55027-9.61629 0-9.61629 2.55027-8.60304 4.99645-6.79975 6.79975-4.99645 8.60304-2.55027 9.61629 0 9.61629Z" stroke="#78D695" stroke-width="4.30053" stroke-linejoin="round" fill="#78D695" transform="matrix(1 0 0 1.00027 1532.41 1877.15)"/><path d="M0 9.61629C2.55027 9.61629 4.99645 8.60304 6.79975 6.79975 8.60304 4.99645 9.61629 2.55027 9.61629 0 9.61629-2.55027 8.60304-4.99645 6.79975-6.79975 4.99645-8.60304 2.55027-9.61629 0-9.61629-2.55027-9.61629-4.99645-8.60304-6.79975-6.79975-8.60304-4.99645-9.61629-2.55027-9.61629 0-9.61629 2.55027-8.60304 4.99645-6.79975 6.79975-4.99645 8.60304-2.55027 9.61629 0 9.61629Z" stroke="#78D695" stroke-width="4.30053" stroke-linejoin="round" fill="#78D695" transform="matrix(1 0 0 1.00027 2458.93 1269.8)"/><path d="M0 9.61629C2.55027 9.61629 4.99645 8.60304 6.79975 6.79975 8.60304 4.99645 9.61629 2.55027 9.61629 0 9.61629-2.55027 8.60304-4.99645 6.79975-6.79975 4.99645-8.60304 2.55027-9.61629 0-9.61629-2.55027-9.61629-4.99645-8.60304-6.79975-6.79975-8.60304-4.99645-9.61629-2.55027-9.61629 0-9.61629 2.55027-8.60304 4.99645-6.79975 6.79975-4.99645 8.60304-2.55027 9.61629 0 9.61629Z" stroke="#78D695" stroke-width="4.30053" stroke-linejoin="round" fill="#78D695" transform="matrix(1 0 0 1.00027 1684.98 1753.92)"/><path d="M0 9.61629C2.55027 9.61629 4.99645 8.60304 6.79975 6.79975 8.60304 4.99645 9.61629 2.55027 9.61629 0 9.61629-2.55027 8.60304-4.99645 6.79975-6.79975 4.99645-8.60304 2.55027-9.61629 0-9.61629-2.55027-9.61629-4.99645-8.60304-6.79975-6.79975-8.60304-4.99645-9.61629-2.55027-9.61629 0-9.61629 2.55027-8.60304 4.99645-6.79975 6.79975-4.99645 8.60304-2.55027 9.61629 0 9.61629Z" stroke="#78D695" stroke-width="4.30053" stroke-linejoin="round" fill="#78D695" transform="matrix(1 0 0 1.00027 1758.32 1721.53)"/><path d="M0 9.61629C2.55027 9.61629 4.99645 8.60304 6.79975 6.79975 8.60304 4.99645 9.61629 2.55027 9.61629 0 9.61629-2.55027 8.60304-4.99645 6.79975-6.79975 4.99645-8.60304 2.55027-9.61629 0-9.61629-2.55027-9.61629-4.99645-8.60304-6.79975-6.79975-8.60304-4.99645-9.61629-2.55027-9.61629 0-9.61629 2.55027-8.60304 4.99645-6.79975 6.79975-4.99645 8.60304-2.55027 9.61629 0 9.61629Z" stroke="#78D695" stroke-width="4.30053" stroke-linejoin="round" fill="#78D695" transform="matrix(1 0 0 1.00027 2304.99 1368.22)"/><path d="M0 9.61629C2.55027 9.61629 4.99645 8.60304 6.79975 6.79975 8.60304 4.99645 9.61629 2.55027 9.61629 0 9.61629-2.55027 8.60304-4.99645 6.79975-6.79975 4.99645-8.60304 2.55027-9.61629 0-9.61629-2.55027-9.61629-4.99645-8.60304-6.79975-6.79975-8.60304-4.99645-9.61629-2.55027-9.61629 0-9.61629 2.55027-8.60304 4.99645-6.79975 6.79975-4.99645 8.60304-2.55027 9.61629 0 9.61629Z" stroke="#78D695" stroke-width="4.30053" stroke-linejoin="round" fill="#78D695" transform="matrix(1 0 0 1.00027 1485.31 1882.75)"/><path d="M0 9.61629C2.55027 9.61629 4.99645 8.60304 6.79975 6.79975 8.60304 4.99645 9.61629 2.55027 9.61629 0 9.61629-2.55027 8.60304-4.99645 6.79975-6.79975 4.99645-8.60304 2.55027-9.61629 0-9.61629-2.55027-9.61629-4.99645-8.60304-6.79975-6.79975-8.60304-4.99645-9.61629-2.55027-9.61629 0-9.61629 2.55027-8.60304 4.99645-6.79975 6.79975-4.99645 8.60304-2.55027 9.61629 0 9.61629Z" stroke="#78D695" stroke-width="4.30053" stroke-linejoin="round" fill="#78D695" transform="matrix(1 0 0 1.00027 2586.36 1190.97)"/><path d="M0 9.61629C2.55027 9.61629 4.99645 8.60304 6.79975 6.79975 8.60304 4.99645 9.61629 2.55027 9.61629 0 9.61629-2.55027 8.60304-4.99645 6.79975-6.79975 4.99645-8.60304 2.55027-9.61629 0-9.61629-2.55027-9.61629-4.99645-8.60304-6.79975-6.79975-8.60304-4.99645-9.61629-2.55027-9.61629 0-9.61629 2.55027-8.60304 4.99645-6.79975 6.79975-4.99645 8.60304-2.55027 9.61629 0 9.61629Z" stroke="#78D695" stroke-width="4.30053" stroke-linejoin="round" fill="#78D695" transform="matrix(1 0 0 1.00027 1698.07 1758.81)"/><path d="M0 9.61629C2.55027 9.61629 4.99645 8.60304 6.79975 6.79975 8.60304 4.99645 9.61629 2.55027 9.61629 0 9.61629-2.55027 8.60304-4.99645 6.79975-6.79975 4.99645-8.60304 2.55027-9.61629 0-9.61629-2.55027-9.61629-4.99645-8.60304-6.79975-6.79975-8.60304-4.99645-9.61629-2.55027-9.61629 0-9.61629 2.55027-8.60304 4.99645-6.79975 6.79975-4.99645 8.60304-2.55027 9.61629 0 9.61629Z" stroke="#78D695" stroke-width="4.30053" stroke-linejoin="round" fill="#78D695" transform="matrix(1 0 0 1.00027 1659.29 1769.72)"/><path d="M0 9.61629C2.55027 9.61629 4.99645 8.60304 6.79975 6.79975 8.60304 4.99645 9.61629 2.55027 9.61629 0 9.61629-2.55027 8.60304-4.99645 6.79975-6.79975 4.99645-8.60304 2.55027-9.61629 0-9.61629-2.55027-9.61629-4.99645-8.60304-6.79975-6.79975-8.60304-4.99645-9.61629-2.55027-9.61629 0-9.61629 2.55027-8.60304 4.99645-6.79975 6.79975-4.99645 8.60304-2.55027 9.61629 0 9.61629Z" stroke="#78D695" stroke-width="4.30053" stroke-linejoin="round" fill="#78D695" transform="matrix(1 0 0 1.00027 2186.68 1422.75)"/><path d="M0 9.61629C2.55027 9.61629 4.99645 8.60304 6.79975 6.79975 8.60304 4.99645 9.61629 2.55027 9.61629 0 9.61629-2.55027 8.60304-4.99645 6.79975-6.79975 4.99645-8.60304 2.55027-9.61629 0-9.61629-2.55027-9.61629-4.99645-8.60304-6.79975-6.79975-8.60304-4.99645-9.61629-2.55027-9.61629 0-9.61629 2.55027-8.60304 4.99645-6.79975 6.79975-4.99645 8.60304-2.55027 9.61629 0 9.61629Z" stroke="#78D695" stroke-width="4.30053" stroke-linejoin="round" fill="#78D695" transform="matrix(1 0 0 1.00027 2582.71 1183.52)"/></g><g clip-path="url(#clip5)"><path d="M0 9.61629C2.55027 9.61629 4.99645 8.60304 6.79975 6.79975 8.60304 4.99645 9.61629 2.55027 9.61629 0 9.61629-2.55027 8.60304-4.99645 6.79975-6.79975 4.99645-8.60304 2.55027-9.61629 0-9.61629-2.55027-9.61629-4.99645-8.60304-6.79975-6.79975-8.60304-4.99645-9.61629-2.55027-9.61629 0-9.61629 2.55027-8.60304 4.99645-6.79975 6.79975-4.99645 8.60304-2.55027 9.61629 0 9.61629Z" stroke="#78D695" stroke-width="4.30053" stroke-linejoin="round" fill="#78D695" transform="matrix(1 0 0 1.00027 1965.76 1064.23)"/><path d="M0 9.61629C2.55027 9.61629 4.99645 8.60304 6.79975 6.79975 8.60304 4.99645 9.61629 2.55027 9.61629 0 9.61629-2.55027 8.60304-4.99645 6.79975-6.79975 4.99645-8.60304 2.55027-9.61629 0-9.61629-2.55027-9.61629-4.99645-8.60304-6.79975-6.79975-8.60304-4.99645-9.61629-2.55027-9.61629 0-9.61629 2.55027-8.60304 4.99645-6.79975 6.79975-4.99645 8.60304-2.55027 9.61629 0 9.61629Z" stroke="#78D695" stroke-width="4.30053" stroke-linejoin="round" fill="#78D695" transform="matrix(1 0 0 1.00027 2706.86 1916.13)"/><path d="M0 9.61629C2.55027 9.61629 4.99645 8.60304 6.79975 6.79975 8.60304 4.99645 9.61629 2.55027 9.61629 0 9.61629-2.55027 8.60304-4.99645 6.79975-6.79975 4.99645-8.60304 2.55027-9.61629 0-9.61629-2.55027-9.61629-4.99645-8.60304-6.79975-6.79975-8.60304-4.99645-9.61629-2.55027-9.61629 0-9.61629 2.55027-8.60304 4.99645-6.79975 6.79975-4.99645 8.60304-2.55027 9.61629 0 9.61629Z" stroke="#78D695" stroke-width="4.30053" stroke-linejoin="round" fill="#78D695" transform="matrix(1 0 0 1.00027 2765.13 1969.21)"/><path d="M0 9.61629C2.55027 9.61629 4.99645 8.60304 6.79975 6.79975 8.60304 4.99645 9.61629 2.55027 9.61629 0 9.61629-2.55027 8.60304-4.99645 6.79975-6.79975 4.99645-8.60304 2.55027-9.61629 0-9.61629-2.55027-9.61629-4.99645-8.60304-6.79975-6.79975-8.60304-4.99645-9.61629-2.55027-9.61629 0-9.61629 2.55027-8.60304 4.99645-6.79975 6.79975-4.99645 8.60304-2.55027 9.61629 0 9.61629Z" stroke="#78D695" stroke-width="4.30053" stroke-linejoin="round" fill="#78D695" transform="matrix(1 0 0 1.00027 2711.15 1900.3)"/><path d="M0 9.61629C2.55027 9.61629 4.99645 8.60304 6.79975 6.79975 8.60304 4.99645 9.61629 2.55027 9.61629 0 9.61629-2.55027 8.60304-4.99645 6.79975-6.79975 4.99645-8.60304 2.55027-9.61629 0-9.61629-2.55027-9.61629-4.99645-8.60304-6.79975-6.79975-8.60304-4.99645-9.61629-2.55027-9.61629 0-9.61629 2.55027-8.60304 4.99645-6.79975 6.79975-4.99645 8.60304-2.55027 9.61629 0 9.61629Z" stroke="#78D695" stroke-width="4.30053" stroke-linejoin="round" fill="#78D695" transform="matrix(1 0 0 1.00027 1997.28 1100.75)"/><path d="M0 9.61629C2.55027 9.61629 4.99645 8.60304 6.79975 6.79975 8.60304 4.99645 9.61629 2.55027 9.61629 0 9.61629-2.55027 8.60304-4.99645 6.79975-6.79975 4.99645-8.60304 2.55027-9.61629 0-9.61629-2.55027-9.61629-4.99645-8.60304-6.79975-6.79975-8.60304-4.99645-9.61629-2.55027-9.61629 0-9.61629 2.55027-8.60304 4.99645-6.79975 6.79975-4.99645 8.60304-2.55027 9.61629 0 9.61629Z" stroke="#78D695" stroke-width="4.30053" stroke-linejoin="round" fill="#78D695" transform="matrix(1 0 0 1.00027 1957.2 1088.07)"/><path d="M0 9.61629C2.55027 9.61629 4.99645 8.60304 6.79975 6.79975 8.60304 4.99645 9.61629 2.55027 9.61629 0 9.61629-2.55027 8.60304-4.99645 6.79975-6.79975 4.99645-8.60304 2.55027-9.61629 0-9.61629-2.55027-9.61629-4.99645-8.60304-6.79975-6.79975-8.60304-4.99645-9.61629-2.55027-9.61629 0-9.61629 2.55027-8.60304 4.99645-6.79975 6.79975-4.99645 8.60304-2.55027 9.61629 0 9.61629Z" stroke="#78D695" stroke-width="4.30053" stroke-linejoin="round" fill="#78D695" transform="matrix(1 0 0 1.00027 1500.17 600.707)"/><path d="M0 9.61629C2.55027 9.61629 4.99645 8.60304 6.79975 6.79975 8.60304 4.99645 9.61629 2.55027 9.61629 0 9.61629-2.55027 8.60304-4.99645 6.79975-6.79975 4.99645-8.60304 2.55027-9.61629 0-9.61629-2.55027-9.61629-4.99645-8.60304-6.79975-6.79975-8.60304-4.99645-9.61629-2.55027-9.61629 0-9.61629 2.55027-8.60304 4.99645-6.79975 6.79975-4.99645 8.60304-2.55027 9.61629 0 9.61629Z" stroke="#78D695" stroke-width="4.30053" stroke-linejoin="round" fill="#78D695" transform="matrix(1 0 0 1.00027 1889.58 1063.85)"/><path d="M0 9.61629C2.55027 9.61629 4.99645 8.60304 6.79975 6.79975 8.60304 4.99645 9.61629 2.55027 9.61629 0 9.61629-2.55027 8.60304-4.99645 6.79975-6.79975 4.99645-8.60304 2.55027-9.61629 0-9.61629-2.55027-9.61629-4.99645-8.60304-6.79975-6.79975-8.60304-4.99645-9.61629-2.55027-9.61629 0-9.61629 2.55027-8.60304 4.99645-6.79975 6.79975-4.99645 8.60304-2.55027 9.61629 0 9.61629Z" stroke="#78D695" stroke-width="4.30053" stroke-linejoin="round" fill="#78D695" transform="matrix(1 0 0 1.00027 1949.1 1083.48)"/><path d="M0 9.61629C2.55027 9.61629 4.99645 8.60304 6.79975 6.79975 8.60304 4.99645 9.61629 2.55027 9.61629 0 9.61629-2.55027 8.60304-4.99645 6.79975-6.79975 4.99645-8.60304 2.55027-9.61629 0-9.61629-2.55027-9.61629-4.99645-8.60304-6.79975-6.79975-8.60304-4.99645-9.61629-2.55027-9.61629 0-9.61629 2.55027-8.60304 4.99645-6.79975 6.79975-4.99645 8.60304-2.55027 9.61629 0 9.61629Z" stroke="#78D695" stroke-width="4.30053" stroke-linejoin="round" fill="#78D695" transform="matrix(1 0 0 1.00027 2155.42 1314.41)"/><path d="M0 9.61629C2.55027 9.61629 4.99645 8.60304 6.79975 6.79975 8.60304 4.99645 9.61629 2.55027 9.61629 0 9.61629-2.55027 8.60304-4.99645 6.79975-6.79975 4.99645-8.60304 2.55027-9.61629 0-9.61629-2.55027-9.61629-4.99645-8.60304-6.79975-6.79975-8.60304-4.99645-9.61629-2.55027-9.61629 0-9.61629 2.55027-8.60304 4.99645-6.79975 6.79975-4.99645 8.60304-2.55027 9.61629 0 9.61629Z" stroke="#78D695" stroke-width="4.30053" stroke-linejoin="round" fill="#78D695" transform="matrix(1 0 0 1.00027 2610.33 1779.99)"/><path d="M0 9.61629C2.55027 9.61629 4.99645 8.60304 6.79975 6.79975 8.60304 4.99645 9.61629 2.55027 9.61629 0 9.61629-2.55027 8.60304-4.99645 6.79975-6.79975 4.99645-8.60304 2.55027-9.61629 0-9.61629-2.55027-9.61629-4.99645-8.60304-6.79975-6.79975-8.60304-4.99645-9.61629-2.55027-9.61629 0-9.61629 2.55027-8.60304 4.99645-6.79975 6.79975-4.99645 8.60304-2.55027 9.61629 0 9.61629Z" stroke="#78D695" stroke-width="4.30053" stroke-linejoin="round" fill="#78D695" transform="matrix(1 0 0 1.00027 2800.17 2044.06)"/><path d="M0 9.61629C2.55027 9.61629 4.99645 8.60304 6.79975 6.79975 8.60304 4.99645 9.61629 2.55027 9.61629 0 9.61629-2.55027 8.60304-4.99645 6.79975-6.79975 4.99645-8.60304 2.55027-9.61629 0-9.61629-2.55027-9.61629-4.99645-8.60304-6.79975-6.79975-8.60304-4.99645-9.61629-2.55027-9.61629 0-9.61629 2.55027-8.60304 4.99645-6.79975 6.79975-4.99645 8.60304-2.55027 9.61629 0 9.61629Z" stroke="#78D695" stroke-width="4.30053" stroke-linejoin="round" fill="#78D695" transform="matrix(1 0 0 1.00027 2334.17 1508.13)"/><path d="M0 9.61629C2.55027 9.61629 4.99645 8.60304 6.79975 6.79975 8.60304 4.99645 9.61629 2.55027 9.61629 0 9.61629-2.55027 8.60304-4.99645 6.79975-6.79975 4.99645-8.60304 2.55027-9.61629 0-9.61629-2.55027-9.61629-4.99645-8.60304-6.79975-6.79975-8.60304-4.99645-9.61629-2.55027-9.61629 0-9.61629 2.55027-8.60304 4.99645-6.79975 6.79975-4.99645 8.60304-2.55027 9.61629 0 9.61629Z" stroke="#78D695" stroke-width="4.30053" stroke-linejoin="round" fill="#78D695" transform="matrix(1 0 0 1.00027 1517.67 650.021)"/><path d="M0 9.61629C2.55027 9.61629 4.99645 8.60304 6.79975 6.79975 8.60304 4.99645 9.61629 2.55027 9.61629 0 9.61629-2.55027 8.60304-4.99645 6.79975-6.79975 4.99645-8.60304 2.55027-9.61629 0-9.61629-2.55027-9.61629-4.99645-8.60304-6.79975-6.79975-8.60304-4.99645-9.61629-2.55027-9.61629 0-9.61629 2.55027-8.60304 4.99645-6.79975 6.79975-4.99645 8.60304-2.55027 9.61629 0 9.61629Z" stroke="#78D695" stroke-width="4.30053" stroke-linejoin="round" fill="#78D695" transform="matrix(1 0 0 1.00027 1763.59 922.569)"/><path d="M0 9.61629C2.55027 9.61629 4.99645 8.60304 6.79975 6.79975 8.60304 4.99645 9.61629 2.55027 9.61629 0 9.61629-2.55027 8.60304-4.99645 6.79975-6.79975 4.99645-8.60304 2.55027-9.61629 0-9.61629-2.55027-9.61629-4.99645-8.60304-6.79975-6.79975-8.60304-4.99645-9.61629-2.55027-9.61629 0-9.61629 2.55027-8.60304 4.99645-6.79975 6.79975-4.99645 8.60304-2.55027 9.61629 0 9.61629Z" stroke="#78D695" stroke-width="4.30053" stroke-linejoin="round" fill="#78D695" transform="matrix(1 0 0 1.00027 1710.14 870.142)"/><path d="M0 9.61629C2.55027 9.61629 4.99645 8.60304 6.79975 6.79975 8.60304 4.99645 9.61629 2.55027 9.61629 0 9.61629-2.55027 8.60304-4.99645 6.79975-6.79975 4.99645-8.60304 2.55027-9.61629 0-9.61629-2.55027-9.61629-4.99645-8.60304-6.79975-6.79975-8.60304-4.99645-9.61629-2.55027-9.61629 0-9.61629 2.55027-8.60304 4.99645-6.79975 6.79975-4.99645 8.60304-2.55027 9.61629 0 9.61629Z" stroke="#78D695" stroke-width="4.30053" stroke-linejoin="round" fill="#78D695" transform="matrix(1 0 0 1.00027 2421.06 1578.21)"/><path d="M0 9.61629C2.55027 9.61629 4.99645 8.60304 6.79975 6.79975 8.60304 4.99645 9.61629 2.55027 9.61629 0 9.61629-2.55027 8.60304-4.99645 6.79975-6.79975 4.99645-8.60304 2.55027-9.61629 0-9.61629-2.55027-9.61629-4.99645-8.60304-6.79975-6.79975-8.60304-4.99645-9.61629-2.55027-9.61629 0-9.61629 2.55027-8.60304 4.99645-6.79975 6.79975-4.99645 8.60304-2.55027 9.61629 0 9.61629Z" stroke="#78D695" stroke-width="4.30053" stroke-linejoin="round" fill="#78D695" transform="matrix(1 0 0 1.00027 1848.14 1047.44)"/><path d="M0 9.61629C2.55027 9.61629 4.99645 8.60304 6.79975 6.79975 8.60304 4.99645 9.61629 2.55027 9.61629 0 9.61629-2.55027 8.60304-4.99645 6.79975-6.79975 4.99645-8.60304 2.55027-9.61629 0-9.61629-2.55027-9.61629-4.99645-8.60304-6.79975-6.79975-8.60304-4.99645-9.61629-2.55027-9.61629 0-9.61629 2.55027-8.60304 4.99645-6.79975 6.79975-4.99645 8.60304-2.55027 9.61629 0 9.61629Z" stroke="#78D695" stroke-width="4.30053" stroke-linejoin="round" fill="#78D695" transform="matrix(1 0 0 1.00027 2112.61 1277.31)"/><path d="M0 9.61629C2.55027 9.61629 4.99645 8.60304 6.79975 6.79975 8.60304 4.99645 9.61629 2.55027 9.61629 0 9.61629-2.55027 8.60304-4.99645 6.79975-6.79975 4.99645-8.60304 2.55027-9.61629 0-9.61629-2.55027-9.61629-4.99645-8.60304-6.79975-6.79975-8.60304-4.99645-9.61629-2.55027-9.61629 0-9.61629 2.55027-8.60304 4.99645-6.79975 6.79975-4.99645 8.60304-2.55027 9.61629 0 9.61629Z" stroke="#78D695" stroke-width="4.30053" stroke-linejoin="round" fill="#78D695" transform="matrix(1 0 0 1.00027 2915.82 2160.32)"/><path d="M0 9.61629C2.55027 9.61629 4.99645 8.60304 6.79975 6.79975 8.60304 4.99645 9.61629 2.55027 9.61629 0 9.61629-2.55027 8.60304-4.99645 6.79975-6.79975 4.99645-8.60304 2.55027-9.61629 0-9.61629-2.55027-9.61629-4.99645-8.60304-6.79975-6.79975-8.60304-4.99645-9.61629-2.55027-9.61629 0-9.61629 2.55027-8.60304 4.99645-6.79975 6.79975-4.99645 8.60304-2.55027 9.61629 0 9.61629Z" stroke="#78D695" stroke-width="4.30053" stroke-linejoin="round" fill="#78D695" transform="matrix(1 0 0 1.00027 2926.77 2161.1)"/><path d="M0 9.61629C2.55027 9.61629 4.99645 8.60304 6.79975 6.79975 8.60304 4.99645 9.61629 2.55027 9.61629 0 9.61629-2.55027 8.60304-4.99645 6.79975-6.79975 4.99645-8.60304 2.55027-9.61629 0-9.61629-2.55027-9.61629-4.99645-8.60304-6.79975-6.79975-8.60304-4.99645-9.61629-2.55027-9.61629 0-9.61629 2.55027-8.60304 4.99645-6.79975 6.79975-4.99645 8.60304-2.55027 9.61629 0 9.61629Z" stroke="#78D695" stroke-width="4.30053" stroke-linejoin="round" fill="#78D695" transform="matrix(1 0 0 1.00027 2563.06 1778.1)"/><path d="M0 9.61629C2.55027 9.61629 4.99645 8.60304 6.79975 6.79975 8.60304 4.99645 9.61629 2.55027 9.61629 0 9.61629-2.55027 8.60304-4.99645 6.79975-6.79975 4.99645-8.60304 2.55027-9.61629 0-9.61629-2.55027-9.61629-4.99645-8.60304-6.79975-6.79975-8.60304-4.99645-9.61629-2.55027-9.61629 0-9.61629 2.55027-8.60304 4.99645-6.79975 6.79975-4.99645 8.60304-2.55027 9.61629 0 9.61629Z" stroke="#78D695" stroke-width="4.30053" stroke-linejoin="round" fill="#78D695" transform="matrix(1 0 0 1.00027 2885.13 1997.27)"/><path d="M0 9.61629C2.55027 9.61629 4.99645 8.60304 6.79975 6.79975 8.60304 4.99645 9.61629 2.55027 9.61629 0 9.61629-2.55027 8.60304-4.99645 6.79975-6.79975 4.99645-8.60304 2.55027-9.61629 0-9.61629-2.55027-9.61629-4.99645-8.60304-6.79975-6.79975-8.60304-4.99645-9.61629-2.55027-9.61629 0-9.61629 2.55027-8.60304 4.99645-6.79975 6.79975-4.99645 8.60304-2.55027 9.61629 0 9.61629Z" stroke="#78D695" stroke-width="4.30053" stroke-linejoin="round" fill="#78D695" transform="matrix(1 0 0 1.00027 2828.08 2030.81)"/><path d="M0 9.61629C2.55027 9.61629 4.99645 8.60304 6.79975 6.79975 8.60304 4.99645 9.61629 2.55027 9.61629 0 9.61629-2.55027 8.60304-4.99645 6.79975-6.79975 4.99645-8.60304 2.55027-9.61629 0-9.61629-2.55027-9.61629-4.99645-8.60304-6.79975-6.79975-8.60304-4.99645-9.61629-2.55027-9.61629 0-9.61629 2.55027-8.60304 4.99645-6.79975 6.79975-4.99645 8.60304-2.55027 9.61629 0 9.61629Z" stroke="#78D695" stroke-width="4.30053" stroke-linejoin="round" fill="#78D695" transform="matrix(1 0 0 1.00027 2115.87 1207.75)"/><path d="M0 9.61629C2.55027 9.61629 4.99645 8.60304 6.79975 6.79975 8.60304 4.99645 9.61629 2.55027 9.61629 0 9.61629-2.55027 8.60304-4.99645 6.79975-6.79975 4.99645-8.60304 2.55027-9.61629 0-9.61629-2.55027-9.61629-4.99645-8.60304-6.79975-6.79975-8.60304-4.99645-9.61629-2.55027-9.61629 0-9.61629 2.55027-8.60304 4.99645-6.79975 6.79975-4.99645 8.60304-2.55027 9.61629 0 9.61629Z" stroke="#78D695" stroke-width="4.30053" stroke-linejoin="round" fill="#78D695" transform="matrix(1 0 0 1.00027 2053.23 1174.82)"/><path d="M0 9.61629C2.55027 9.61629 4.99645 8.60304 6.79975 6.79975 8.60304 4.99645 9.61629 2.55027 9.61629 0 9.61629-2.55027 8.60304-4.99645 6.79975-6.79975 4.99645-8.60304 2.55027-9.61629 0-9.61629-2.55027-9.61629-4.99645-8.60304-6.79975-6.79975-8.60304-4.99645-9.61629-2.55027-9.61629 0-9.61629 2.55027-8.60304 4.99645-6.79975 6.79975-4.99645 8.60304-2.55027 9.61629 0 9.61629Z" stroke="#78D695" stroke-width="4.30053" stroke-linejoin="round" fill="#78D695" transform="matrix(1 0 0 1.00027 2328.52 1505.13)"/><path d="M0 9.61629C2.55027 9.61629 4.99645 8.60304 6.79975 6.79975 8.60304 4.99645 9.61629 2.55027 9.61629 0 9.61629-2.55027 8.60304-4.99645 6.79975-6.79975 4.99645-8.60304 2.55027-9.61629 0-9.61629-2.55027-9.61629-4.99645-8.60304-6.79975-6.79975-8.60304-4.99645-9.61629-2.55027-9.61629 0-9.61629 2.55027-8.60304 4.99645-6.79975 6.79975-4.99645 8.60304-2.55027 9.61629 0 9.61629Z" stroke="#78D695" stroke-width="4.30053" stroke-linejoin="round" fill="#78D695" transform="matrix(1 0 0 1.00027 1992.86 1131.32)"/><path d="M0 9.61629C2.55027 9.61629 4.99645 8.60304 6.79975 6.79975 8.60304 4.99645 9.61629 2.55027 9.61629 0 9.61629-2.55027 8.60304-4.99645 6.79975-6.79975 4.99645-8.60304 2.55027-9.61629 0-9.61629-2.55027-9.61629-4.99645-8.60304-6.79975-6.79975-8.60304-4.99645-9.61629-2.55027-9.61629 0-9.61629 2.55027-8.60304 4.99645-6.79975 6.79975-4.99645 8.60304-2.55027 9.61629 0 9.61629Z" stroke="#78D695" stroke-width="4.30053" stroke-linejoin="round" fill="#78D695" transform="matrix(1 0 0 1.00027 2486.15 1712.32)"/><path d="M0 9.61629C2.55027 9.61629 4.99645 8.60304 6.79975 6.79975 8.60304 4.99645 9.61629 2.55027 9.61629 0 9.61629-2.55027 8.60304-4.99645 6.79975-6.79975 4.99645-8.60304 2.55027-9.61629 0-9.61629-2.55027-9.61629-4.99645-8.60304-6.79975-6.79975-8.60304-4.99645-9.61629-2.55027-9.61629 0-9.61629 2.55027-8.60304 4.99645-6.79975 6.79975-4.99645 8.60304-2.55027 9.61629 0 9.61629Z" stroke="#78D695" stroke-width="4.30053" stroke-linejoin="round" fill="#78D695" transform="matrix(1 0 0 1.00027 2673.55 1893.7)"/><path d="M0 9.61629C2.55027 9.61629 4.99645 8.60304 6.79975 6.79975 8.60304 4.99645 9.61629 2.55027 9.61629 0 9.61629-2.55027 8.60304-4.99645 6.79975-6.79975 4.99645-8.60304 2.55027-9.61629 0-9.61629-2.55027-9.61629-4.99645-8.60304-6.79975-6.79975-8.60304-4.99645-9.61629-2.55027-9.61629 0-9.61629 2.55027-8.60304 4.99645-6.79975 6.79975-4.99645 8.60304-2.55027 9.61629 0 9.61629Z" stroke="#78D695" stroke-width="4.30053" stroke-linejoin="round" fill="#78D695" transform="matrix(1 0 0 1.00027 2116.96 1275.98)"/><path d="M0 9.61629C2.55027 9.61629 4.99645 8.60304 6.79975 6.79975 8.60304 4.99645 9.61629 2.55027 9.61629 0 9.61629-2.55027 8.60304-4.99645 6.79975-6.79975 4.99645-8.60304 2.55027-9.61629 0-9.61629-2.55027-9.61629-4.99645-8.60304-6.79975-6.79975-8.60304-4.99645-9.61629-2.55027-9.61629 0-9.61629 2.55027-8.60304 4.99645-6.79975 6.79975-4.99645 8.60304-2.55027 9.61629 0 9.61629Z" stroke="#78D695" stroke-width="4.30053" stroke-linejoin="round" fill="#78D695" transform="matrix(1 0 0 1.00027 1976.52 1058.77)"/><path d="M0 9.61629C2.55027 9.61629 4.99645 8.60304 6.79975 6.79975 8.60304 4.99645 9.61629 2.55027 9.61629 0 9.61629-2.55027 8.60304-4.99645 6.79975-6.79975 4.99645-8.60304 2.55027-9.61629 0-9.61629-2.55027-9.61629-4.99645-8.60304-6.79975-6.79975-8.60304-4.99645-9.61629-2.55027-9.61629 0-9.61629 2.55027-8.60304 4.99645-6.79975 6.79975-4.99645 8.60304-2.55027 9.61629 0 9.61629Z" stroke="#78D695" stroke-width="4.30053" stroke-linejoin="round" fill="#78D695" transform="matrix(1 0 0 1.00027 2619.73 1806.28)"/><path d="M0 9.61629C2.55027 9.61629 4.99645 8.60304 6.79975 6.79975 8.60304 4.99645 9.61629 2.55027 9.61629 0 9.61629-2.55027 8.60304-4.99645 6.79975-6.79975 4.99645-8.60304 2.55027-9.61629 0-9.61629-2.55027-9.61629-4.99645-8.60304-6.79975-6.79975-8.60304-4.99645-9.61629-2.55027-9.61629 0-9.61629 2.55027-8.60304 4.99645-6.79975 6.79975-4.99645 8.60304-2.55027 9.61629 0 9.61629Z" stroke="#78D695" stroke-width="4.30053" stroke-linejoin="round" fill="#78D695" transform="matrix(1 0 0 1.00027 1640.04 721.744)"/><path d="M0 9.61629C2.55027 9.61629 4.99645 8.60304 6.79975 6.79975 8.60304 4.99645 9.61629 2.55027 9.61629 0 9.61629-2.55027 8.60304-4.99645 6.79975-6.79975 4.99645-8.60304 2.55027-9.61629 0-9.61629-2.55027-9.61629-4.99645-8.60304-6.79975-6.79975-8.60304-4.99645-9.61629-2.55027-9.61629 0-9.61629 2.55027-8.60304 4.99645-6.79975 6.79975-4.99645 8.60304-2.55027 9.61629 0 9.61629Z" stroke="#78D695" stroke-width="4.30053" stroke-linejoin="round" fill="#78D695" transform="matrix(1 0 0 1.00027 1846.63 994.471)"/><path d="M0 9.61629C2.55027 9.61629 4.99645 8.60304 6.79975 6.79975 8.60304 4.99645 9.61629 2.55027 9.61629 0 9.61629-2.55027 8.60304-4.99645 6.79975-6.79975 4.99645-8.60304 2.55027-9.61629 0-9.61629-2.55027-9.61629-4.99645-8.60304-6.79975-6.79975-8.60304-4.99645-9.61629-2.55027-9.61629 0-9.61629 2.55027-8.60304 4.99645-6.79975 6.79975-4.99645 8.60304-2.55027 9.61629 0 9.61629Z" stroke="#78D695" stroke-width="4.30053" stroke-linejoin="round" fill="#78D695" transform="matrix(1 0 0 1.00027 2784.22 2063.3)"/><path d="M0 9.61629C2.55027 9.61629 4.99645 8.60304 6.79975 6.79975 8.60304 4.99645 9.61629 2.55027 9.61629 0 9.61629-2.55027 8.60304-4.99645 6.79975-6.79975 4.99645-8.60304 2.55027-9.61629 0-9.61629-2.55027-9.61629-4.99645-8.60304-6.79975-6.79975-8.60304-4.99645-9.61629-2.55027-9.61629 0-9.61629 2.55027-8.60304 4.99645-6.79975 6.79975-4.99645 8.60304-2.55027 9.61629 0 9.61629Z" stroke="#78D695" stroke-width="4.30053" stroke-linejoin="round" fill="#78D695" transform="matrix(1 0 0 1.00027 2138.43 1317.8)"/><path d="M0 9.61629C2.55027 9.61629 4.99645 8.60304 6.79975 6.79975 8.60304 4.99645 9.61629 2.55027 9.61629 0 9.61629-2.55027 8.60304-4.99645 6.79975-6.79975 4.99645-8.60304 2.55027-9.61629 0-9.61629-2.55027-9.61629-4.99645-8.60304-6.79975-6.79975-8.60304-4.99645-9.61629-2.55027-9.61629 0-9.61629 2.55027-8.60304 4.99645-6.79975 6.79975-4.99645 8.60304-2.55027 9.61629 0 9.61629Z" stroke="#78D695" stroke-width="4.30053" stroke-linejoin="round" fill="#78D695" transform="matrix(1 0 0 1.00027 1865.87 1042.67)"/><path d="M0 9.61629C2.55027 9.61629 4.99645 8.60304 6.79975 6.79975 8.60304 4.99645 9.61629 2.55027 9.61629 0 9.61629-2.55027 8.60304-4.99645 6.79975-6.79975 4.99645-8.60304 2.55027-9.61629 0-9.61629-2.55027-9.61629-4.99645-8.60304-6.79975-6.79975-8.60304-4.99645-9.61629-2.55027-9.61629 0-9.61629 2.55027-8.60304 4.99645-6.79975 6.79975-4.99645 8.60304-2.55027 9.61629 0 9.61629Z" stroke="#78D695" stroke-width="4.30053" stroke-linejoin="round" fill="#78D695" transform="matrix(1 0 0 1.00027 1581.24 681.749)"/><path d="M0 9.61629C2.55027 9.61629 4.99645 8.60304 6.79975 6.79975 8.60304 4.99645 9.61629 2.55027 9.61629 0 9.61629-2.55027 8.60304-4.99645 6.79975-6.79975 4.99645-8.60304 2.55027-9.61629 0-9.61629-2.55027-9.61629-4.99645-8.60304-6.79975-6.79975-8.60304-4.99645-9.61629-2.55027-9.61629 0-9.61629 2.55027-8.60304 4.99645-6.79975 6.79975-4.99645 8.60304-2.55027 9.61629 0 9.61629Z" stroke="#78D695" stroke-width="4.30053" stroke-linejoin="round" fill="#78D695" transform="matrix(1 0 0 1.00027 2392.48 1557.84)"/><path d="M0 9.61629C2.55027 9.61629 4.99645 8.60304 6.79975 6.79975 8.60304 4.99645 9.61629 2.55027 9.61629 0 9.61629-2.55027 8.60304-4.99645 6.79975-6.79975 4.99645-8.60304 2.55027-9.61629 0-9.61629-2.55027-9.61629-4.99645-8.60304-6.79975-6.79975-8.60304-4.99645-9.61629-2.55027-9.61629 0-9.61629 2.55027-8.60304 4.99645-6.79975 6.79975-4.99645 8.60304-2.55027 9.61629 0 9.61629Z" stroke="#78D695" stroke-width="4.30053" stroke-linejoin="round" fill="#78D695" transform="matrix(1 0 0 1.00027 2673.11 1882.28)"/><path d="M0 9.61629C2.55027 9.61629 4.99645 8.60304 6.79975 6.79975 8.60304 4.99645 9.61629 2.55027 9.61629 0 9.61629-2.55027 8.60304-4.99645 6.79975-6.79975 4.99645-8.60304 2.55027-9.61629 0-9.61629-2.55027-9.61629-4.99645-8.60304-6.79975-6.79975-8.60304-4.99645-9.61629-2.55027-9.61629 0-9.61629 2.55027-8.60304 4.99645-6.79975 6.79975-4.99645 8.60304-2.55027 9.61629 0 9.61629Z" stroke="#78D695" stroke-width="4.30053" stroke-linejoin="round" fill="#78D695" transform="matrix(1 0 0 1.00027 2194.38 1357.38)"/><path d="M0 9.61629C2.55027 9.61629 4.99645 8.60304 6.79975 6.79975 8.60304 4.99645 9.61629 2.55027 9.61629 0 9.61629-2.55027 8.60304-4.99645 6.79975-6.79975 4.99645-8.60304 2.55027-9.61629 0-9.61629-2.55027-9.61629-4.99645-8.60304-6.79975-6.79975-8.60304-4.99645-9.61629-2.55027-9.61629 0-9.61629 2.55027-8.60304 4.99645-6.79975 6.79975-4.99645 8.60304-2.55027 9.61629 0 9.61629Z" stroke="#78D695" stroke-width="4.30053" stroke-linejoin="round" fill="#78D695" transform="matrix(1 0 0 1.00027 2307.46 1458.93)"/><path d="M0 9.61629C2.55027 9.61629 4.99645 8.60304 6.79975 6.79975 8.60304 4.99645 9.61629 2.55027 9.61629 0 9.61629-2.55027 8.60304-4.99645 6.79975-6.79975 4.99645-8.60304 2.55027-9.61629 0-9.61629-2.55027-9.61629-4.99645-8.60304-6.79975-6.79975-8.60304-4.99645-9.61629-2.55027-9.61629 0-9.61629 2.55027-8.60304 4.99645-6.79975 6.79975-4.99645 8.60304-2.55027 9.61629 0 9.61629Z" stroke="#78D695" stroke-width="4.30053" stroke-linejoin="round" fill="#78D695" transform="matrix(1 0 0 1.00027 2122.76 1273.64)"/><path d="M0 9.61629C2.55027 9.61629 4.99645 8.60304 6.79975 6.79975 8.60304 4.99645 9.61629 2.55027 9.61629 0 9.61629-2.55027 8.60304-4.99645 6.79975-6.79975 4.99645-8.60304 2.55027-9.61629 0-9.61629-2.55027-9.61629-4.99645-8.60304-6.79975-6.79975-8.60304-4.99645-9.61629-2.55027-9.61629 0-9.61629 2.55027-8.60304 4.99645-6.79975 6.79975-4.99645 8.60304-2.55027 9.61629 0 9.61629Z" stroke="#78D695" stroke-width="4.30053" stroke-linejoin="round" fill="#78D695" transform="matrix(1 0 0 1.00027 2030.43 1193.12)"/><path d="M0 9.61629C2.55027 9.61629 4.99645 8.60304 6.79975 6.79975 8.60304 4.99645 9.61629 2.55027 9.61629 0 9.61629-2.55027 8.60304-4.99645 6.79975-6.79975 4.99645-8.60304 2.55027-9.61629 0-9.61629-2.55027-9.61629-4.99645-8.60304-6.79975-6.79975-8.60304-4.99645-9.61629-2.55027-9.61629 0-9.61629 2.55027-8.60304 4.99645-6.79975 6.79975-4.99645 8.60304-2.55027 9.61629 0 9.61629Z" stroke="#78D695" stroke-width="4.30053" stroke-linejoin="round" fill="#78D695" transform="matrix(1 0 0 1.00027 2700.24 1888.89)"/><path d="M0 9.61629C2.55027 9.61629 4.99645 8.60304 6.79975 6.79975 8.60304 4.99645 9.61629 2.55027 9.61629 0 9.61629-2.55027 8.60304-4.99645 6.79975-6.79975 4.99645-8.60304 2.55027-9.61629 0-9.61629-2.55027-9.61629-4.99645-8.60304-6.79975-6.79975-8.60304-4.99645-9.61629-2.55027-9.61629 0-9.61629 2.55027-8.60304 4.99645-6.79975 6.79975-4.99645 8.60304-2.55027 9.61629 0 9.61629Z" stroke="#78D695" stroke-width="4.30053" stroke-linejoin="round" fill="#78D695" transform="matrix(1 0 0 1.00027 1677.67 822.244)"/><path d="M0 9.61629C2.55027 9.61629 4.99645 8.60304 6.79975 6.79975 8.60304 4.99645 9.61629 2.55027 9.61629 0 9.61629-2.55027 8.60304-4.99645 6.79975-6.79975 4.99645-8.60304 2.55027-9.61629 0-9.61629-2.55027-9.61629-4.99645-8.60304-6.79975-6.79975-8.60304-4.99645-9.61629-2.55027-9.61629 0-9.61629 2.55027-8.60304 4.99645-6.79975 6.79975-4.99645 8.60304-2.55027 9.61629 0 9.61629Z" stroke="#78D695" stroke-width="4.30053" stroke-linejoin="round" fill="#78D695" transform="matrix(1 0 0 1.00027 2780.59 2026.01)"/><path d="M0 9.61629C2.55027 9.61629 4.99645 8.60304 6.79975 6.79975 8.60304 4.99645 9.61629 2.55027 9.61629 0 9.61629-2.55027 8.60304-4.99645 6.79975-6.79975 4.99645-8.60304 2.55027-9.61629 0-9.61629-2.55027-9.61629-4.99645-8.60304-6.79975-6.79975-8.60304-4.99645-9.61629-2.55027-9.61629 0-9.61629 2.55027-8.60304 4.99645-6.79975 6.79975-4.99645 8.60304-2.55027 9.61629 0 9.61629Z" stroke="#78D695" stroke-width="4.30053" stroke-linejoin="round" fill="#78D695" transform="matrix(1 0 0 1.00027 2606.13 1803.42)"/><path d="M0 9.61629C2.55027 9.61629 4.99645 8.60304 6.79975 6.79975 8.60304 4.99645 9.61629 2.55027 9.61629 0 9.61629-2.55027 8.60304-4.99645 6.79975-6.79975 4.99645-8.60304 2.55027-9.61629 0-9.61629-2.55027-9.61629-4.99645-8.60304-6.79975-6.79975-8.60304-4.99645-9.61629-2.55027-9.61629 0-9.61629 2.55027-8.60304 4.99645-6.79975 6.79975-4.99645 8.60304-2.55027 9.61629 0 9.61629Z" stroke="#78D695" stroke-width="4.30053" stroke-linejoin="round" fill="#78D695" transform="matrix(1 0 0 1.00027 1561.06 643.092)"/></g><path d="M61.4976 1413.5 61.4976 63.4759" stroke="#000000" stroke-width="3.44043" stroke-linecap="square" fill="none" transform="matrix(1 0 0 1.00027 1392.53 494.757)"/><path d="M1560.49 1413.5 1560.49 63.4759" stroke="#000000" stroke-width="3.44043" stroke-linecap="square" fill="none" transform="matrix(1 0 0 1.00027 1392.53 494.757)"/><path d="M61.4976 1413.5 1560.49 1413.5" stroke="#000000" stroke-width="3.44043" stroke-linecap="square" fill="none" transform="matrix(1 0 0 1.00027 1392.53 494.757)"/><path d="M61.4976 63.4759 1560.49 63.4759" stroke="#000000" stroke-width="3.44043" stroke-linecap="square" fill="none" transform="matrix(1 0 0 1.00027 1392.53 494.757)"/><path d="M1654.18 1413.5 1721.68 1413.5 1721.68 63.4759 1654.18 63.4759Z" fill="#FFFFFF" transform="matrix(1 0 0 1.00027 1392.53 494.757)"/><path d="M0 0 15.0519 0" stroke="#000000" stroke-width="3.44043" stroke-linejoin="round" fill="none" transform="matrix(1 0 0 1.00027 3114.21 1908.63)"/><path d="M13.6676 28.5582C11.486 28.5582 9.84419 27.4831 8.74218 25.3328 7.64467 23.1871 7.09588 19.9572 7.09588 15.6432 7.09588 11.3472 7.64467 8.12398 8.74218 5.97371 9.84419 3.82344 11.486 2.74831 13.6676 2.74831 15.8672 2.74831 17.5157 3.82344 18.6132 5.97371 19.7153 8.12398 20.2663 11.3472 20.2663 15.6432 20.2663 19.9572 19.7153 23.1871 18.6132 25.3328 17.5157 27.4831 15.8672 28.5582 13.6676 28.5582ZM13.6676 31.918C17.1842 31.918 19.8698 30.5271 21.7244 27.7452 23.579 24.9678 24.5063 20.9337 24.5063 15.6432 24.5063 10.3661 23.579 6.33657 21.7244 3.55466 19.8698 0.777234 17.1842-0.611482 13.6676-0.611482 10.1555-0.611482 7.47218 0.777234 5.61757 3.55466 3.76297 6.33657 2.83566 10.3661 2.83566 15.6432 2.83566 20.9337 3.76297 24.9678 5.61757 27.7452 7.47218 30.5271 10.1555 31.918 13.6676 31.918Z" transform="matrix(1 0 0 -1.00027 3144.32 1924.98)"/><path d="M4.59619 5.33535 9.03112 5.33535 9.03112 0 4.59619 0 4.59619 5.33535Z" transform="matrix(1 0 0 -1.00027 3171.68 1924.98)"/><path d="M13.6676 28.5582C11.486 28.5582 9.84419 27.4831 8.74218 25.3328 7.64467 23.1871 7.09588 19.9572 7.09588 15.6432 7.09588 11.3472 7.64467 8.12398 8.74218 5.97371 9.84419 3.82344 11.486 2.74831 13.6676 2.74831 15.8672 2.74831 17.5157 3.82344 18.6132 5.97371 19.7153 8.12398 20.2663 11.3472 20.2663 15.6432 20.2663 19.9572 19.7153 23.1871 18.6132 25.3328 17.5157 27.4831 15.8672 28.5582 13.6676 28.5582ZM13.6676 31.918C17.1842 31.918 19.8698 30.5271 21.7244 27.7452 23.579 24.9678 24.5063 20.9337 24.5063 15.6432 24.5063 10.3661 23.579 6.33657 21.7244 3.55466 19.8698 0.777234 17.1842-0.611482 13.6676-0.611482 10.1555-0.611482 7.47218 0.777234 5.61757 3.55466 3.76297 6.33657 2.83566 10.3661 2.83566 15.6432 2.83566 20.9337 3.76297 24.9678 5.61757 27.7452 7.47218 30.5271 10.1555 31.918 13.6676 31.918Z" transform="matrix(1 0 0 -1.00027 3185.35 1924.98)"/><path d="M0 0 15.0519 0" stroke="#000000" stroke-width="3.44043" stroke-linejoin="round" fill="none" transform="matrix(1 0 0 1.00027 3114.21 1638.56)"/><path d="M13.6676 28.5582C11.486 28.5582 9.84419 27.4831 8.74218 25.3328 7.64467 23.1871 7.09588 19.9572 7.09588 15.6432 7.09588 11.3472 7.64467 8.12398 8.74218 5.97371 9.84419 3.82344 11.486 2.74831 13.6676 2.74831 15.8672 2.74831 17.5157 3.82344 18.6132 5.97371 19.7153 8.12398 20.2663 11.3472 20.2663 15.6432 20.2663 19.9572 19.7153 23.1871 18.6132 25.3328 17.5157 27.4831 15.8672 28.5582 13.6676 28.5582ZM13.6676 31.918C17.1842 31.918 19.8698 30.5271 21.7244 27.7452 23.579 24.9678 24.5063 20.9337 24.5063 15.6432 24.5063 10.3661 23.579 6.33657 21.7244 3.55466 19.8698 0.777234 17.1842-0.611482 13.6676-0.611482 10.1555-0.611482 7.47218 0.777234 5.61757 3.55466 3.76297 6.33657 2.83566 10.3661 2.83566 15.6432 2.83566 20.9337 3.76297 24.9678 5.61757 27.7452 7.47218 30.5271 10.1555 31.918 13.6676 31.918Z" transform="matrix(1 0 0 -1.00027 3144.32 1654.9)"/><path d="M4.59619 5.33535 9.03112 5.33535 9.03112 0 4.59619 0 4.59619 5.33535Z" transform="matrix(1 0 0 -1.00027 3171.68 1654.9)"/><path d="M8.25165 3.5681 23.0549 3.5681 23.0549 0 3.15148 0 3.15148 3.5681C4.7597 5.23456 6.95255 7.46996 9.72996 10.2742 12.5119 13.083 14.259 14.8951 14.9712 15.7104 16.3286 17.2335 17.276 18.5237 17.8136 19.5809 18.3557 20.6381 18.6267 21.6774 18.6267 22.6988 18.6267 24.3652 18.0421 25.7226 16.8729 26.7708 15.7037 27.8236 14.1805 28.3499 12.3036 28.3499 10.9731 28.3499 9.56869 28.1192 8.09038 27.6578 6.61655 27.1964 5.03969 26.4953 3.35979 25.5546L3.35979 29.8417C5.06657 30.5271 6.66134 31.0445 8.14413 31.3939 9.63138 31.7433 10.991 31.918 12.2229 31.918 15.4707 31.918 18.06 31.1049 19.9908 29.4788 21.9215 27.8572 22.8869 25.689 22.8869 22.9743 22.8869 21.6841 22.645 20.4611 22.1612 19.3054 21.6819 18.1541 20.8038 16.7945 19.5271 15.2266 19.1777 14.8189 18.0645 13.6453 16.1875 11.7055 14.3149 9.76577 11.6697 7.05335 8.25165 3.5681Z" transform="matrix(1 0 0 -1.00027 3185.35 1654.9)"/><path d="M0 0 15.0519 0" stroke="#000000" stroke-width="3.44043" stroke-linejoin="round" fill="none" transform="matrix(1 0 0 1.00027 3114.21 1368.48)"/><path d="M13.6676 28.5582C11.486 28.5582 9.84419 27.4831 8.74218 25.3328 7.64467 23.1871 7.09588 19.9572 7.09588 15.6432 7.09588 11.3472 7.64467 8.12398 8.74218 5.97371 9.84419 3.82344 11.486 2.74831 13.6676 2.74831 15.8672 2.74831 17.5157 3.82344 18.6132 5.97371 19.7153 8.12398 20.2663 11.3472 20.2663 15.6432 20.2663 19.9572 19.7153 23.1871 18.6132 25.3328 17.5157 27.4831 15.8672 28.5582 13.6676 28.5582ZM13.6676 31.918C17.1842 31.918 19.8698 30.5271 21.7244 27.7452 23.579 24.9678 24.5063 20.9337 24.5063 15.6432 24.5063 10.3661 23.579 6.33657 21.7244 3.55466 19.8698 0.777234 17.1842-0.611482 13.6676-0.611482 10.1555-0.611482 7.47218 0.777234 5.61757 3.55466 3.76297 6.33657 2.83566 10.3661 2.83566 15.6432 2.83566 20.9337 3.76297 24.9678 5.61757 27.7452 7.47218 30.5271 10.1555 31.918 13.6676 31.918Z" transform="matrix(1 0 0 -1.00027 3144.32 1384.82)"/><path d="M4.59619 5.33535 9.03112 5.33535 9.03112 0 4.59619 0 4.59619 5.33535Z" transform="matrix(1 0 0 -1.00027 3171.68 1384.82)"/><path d="M16.2547 27.6578 5.54366 10.9193 16.2547 10.9193 16.2547 27.6578ZM15.1392 31.3536 20.4746 31.3536 20.4746 10.9193 24.9498 10.9193 24.9498 7.39154 20.4746 7.39154 20.4746 0 16.2547 0 16.2547 7.39154 2.10323 7.39154 2.10323 11.4838 15.1392 31.3536Z" transform="matrix(1 0 0 -1.00027 3185.35 1384.82)"/><path d="M0 0 15.0519 0" stroke="#000000" stroke-width="3.44043" stroke-linejoin="round" fill="none" transform="matrix(1 0 0 1.00027 3114.21 1098.4)"/><path d="M13.6676 28.5582C11.486 28.5582 9.84419 27.4831 8.74218 25.3328 7.64467 23.1871 7.09588 19.9572 7.09588 15.6432 7.09588 11.3472 7.64467 8.12398 8.74218 5.97371 9.84419 3.82344 11.486 2.74831 13.6676 2.74831 15.8672 2.74831 17.5157 3.82344 18.6132 5.97371 19.7153 8.12398 20.2663 11.3472 20.2663 15.6432 20.2663 19.9572 19.7153 23.1871 18.6132 25.3328 17.5157 27.4831 15.8672 28.5582 13.6676 28.5582ZM13.6676 31.918C17.1842 31.918 19.8698 30.5271 21.7244 27.7452 23.579 24.9678 24.5063 20.9337 24.5063 15.6432 24.5063 10.3661 23.579 6.33657 21.7244 3.55466 19.8698 0.777234 17.1842-0.611482 13.6676-0.611482 10.1555-0.611482 7.47218 0.777234 5.61757 3.55466 3.76297 6.33657 2.83566 10.3661 2.83566 15.6432 2.83566 20.9337 3.76297 24.9678 5.61757 27.7452 7.47218 30.5271 10.1555 31.918 13.6676 31.918Z" transform="matrix(1 0 0 -1.00027 3144.32 1114.75)"/><path d="M4.59619 5.33535 9.03112 5.33535 9.03112 0 4.59619 0 4.59619 5.33535Z" transform="matrix(1 0 0 -1.00027 3171.68 1114.75)"/><path d="M14.1985 17.3634C12.2946 17.3634 10.7849 16.7116 9.66948 15.408 8.55853 14.1089 8.00302 12.3259 8.00302 10.0592 8.00302 7.80594 8.55853 6.02298 9.66948 4.71043 10.7849 3.40235 12.2946 2.74831 14.1985 2.74831 16.1023 2.74831 17.6098 3.40235 18.7208 4.71043 19.8317 6.02298 20.3872 7.80594 20.3872 10.0592 20.3872 12.3259 19.8317 14.1089 18.7208 15.408 17.6098 16.7116 16.1023 17.3634 14.1985 17.3634ZM22.6181 30.6615 22.6181 26.7977C21.5519 27.2994 20.4768 27.6825 19.3927 27.9467 18.3086 28.2155 17.2335 28.3499 16.1673 28.3499 13.3675 28.3499 11.2284 27.4047 9.75012 25.5143 8.27631 23.6238 7.43408 20.768 7.22355 16.9468 8.04784 18.1653 9.08266 19.0993 10.328 19.7489 11.5778 20.3984 12.9509 20.7232 14.4471 20.7232 17.5964 20.7232 20.0848 19.7668 21.9126 17.8539 23.7403 15.9456 24.6542 13.3473 24.6542 10.0592 24.6542 6.83832 23.7022 4.2535 21.7983 2.30482 19.8945 0.360618 17.3612-0.611482 14.1985-0.611482 10.5699-0.611482 7.79693 0.777234 5.87964 3.55466 3.96232 6.33657 3.00365 10.3661 3.00365 15.6432 3.00365 20.5977 4.17958 24.5489 6.53144 27.4965 8.88329 30.4442 12.0393 31.918 15.9993 31.918 17.0655 31.918 18.1407 31.8127 19.2247 31.6022 20.3088 31.3917 21.44 31.0781 22.6181 30.6615Z" transform="matrix(1 0 0 -1.00027 3185.35 1114.75)"/><path d="M0 0 15.0519 0" stroke="#000000" stroke-width="3.44043" stroke-linejoin="round" fill="none" transform="matrix(1 0 0 1.00027 3114.21 828.327)"/><path d="M13.6676 28.5582C11.486 28.5582 9.84419 27.4831 8.74218 25.3328 7.64467 23.1871 7.09588 19.9572 7.09588 15.6432 7.09588 11.3472 7.64467 8.12398 8.74218 5.97371 9.84419 3.82344 11.486 2.74831 13.6676 2.74831 15.8672 2.74831 17.5157 3.82344 18.6132 5.97371 19.7153 8.12398 20.2663 11.3472 20.2663 15.6432 20.2663 19.9572 19.7153 23.1871 18.6132 25.3328 17.5157 27.4831 15.8672 28.5582 13.6676 28.5582ZM13.6676 31.918C17.1842 31.918 19.8698 30.5271 21.7244 27.7452 23.579 24.9678 24.5063 20.9337 24.5063 15.6432 24.5063 10.3661 23.579 6.33657 21.7244 3.55466 19.8698 0.777234 17.1842-0.611482 13.6676-0.611482 10.1555-0.611482 7.47218 0.777234 5.61757 3.55466 3.76297 6.33657 2.83566 10.3661 2.83566 15.6432 2.83566 20.9337 3.76297 24.9678 5.61757 27.7452 7.47218 30.5271 10.1555 31.918 13.6676 31.918Z" transform="matrix(1 0 0 -1.00027 3144.32 844.67)"/><path d="M4.59619 5.33535 9.03112 5.33535 9.03112 0 4.59619 0 4.59619 5.33535Z" transform="matrix(1 0 0 -1.00027 3171.68 844.67)"/><path d="M13.6676 14.8906C11.6518 14.8906 10.0659 14.3508 8.91017 13.2712 7.7589 12.1915 7.18323 10.7088 7.18323 8.82281 7.18323 6.93239 7.7589 5.44734 8.91017 4.36773 10.0659 3.28811 11.6518 2.74831 13.6676 2.74831 15.6835 2.74831 17.2715 3.29036 18.4318 4.37445 19.5965 5.46302 20.1789 6.94583 20.1789 8.82281 20.1789 10.7088 19.601 12.1915 18.4453 13.2712 17.294 14.3508 15.7014 14.8906 13.6676 14.8906ZM9.42758 16.6914C7.60879 17.1394 6.19097 17.9861 5.17408 19.2314 4.16166 20.4813 3.65545 22.0021 3.65545 23.794 3.65545 26.2982 4.54692 28.2782 6.32985 29.7342 8.11726 31.1901 10.5632 31.918 13.6676 31.918 16.79 31.918 19.2404 31.1901 21.0189 29.7342 22.7973 28.2782 23.6865 26.2982 23.6865 23.794 23.6865 22.0021 23.1781 20.4813 22.1612 19.2314 21.1487 17.9861 19.7399 17.1394 17.9346 16.6914 19.9773 16.2166 21.5676 15.2848 22.7055 13.8961 23.8478 12.5119 24.419 10.8207 24.419 8.82281 24.419 5.78108 23.4917 3.44715 21.6371 1.82101 19.7825 0.199348 17.126-0.611482 13.6676-0.611482 10.2138-0.611482 7.55731 0.199348 5.69821 1.82101 3.8436 3.44715 2.9163 5.78108 2.9163 8.82281 2.9163 10.8207 3.4897 12.5119 4.63651 13.8961 5.7878 15.2848 7.38482 16.2166 9.42758 16.6914ZM7.87535 23.3909C7.87535 21.7692 8.38154 20.5037 9.39398 19.5943 10.4109 18.6849 11.8354 18.2302 13.6676 18.2302 15.4909 18.2302 16.9154 18.6849 17.9413 19.5943 18.9716 20.5037 19.4868 21.7692 19.4868 23.3909 19.4868 25.017 18.9716 26.2848 17.9413 27.1942 16.9154 28.1035 15.4909 28.5582 13.6676 28.5582 11.8354 28.5582 10.4109 28.1035 9.39398 27.1942 8.38154 26.2848 7.87535 25.017 7.87535 23.3909Z" transform="matrix(1 0 0 -1.00027 3185.35 844.67)"/><path d="M0 0 15.0519 0" stroke="#000000" stroke-width="3.44043" stroke-linejoin="round" fill="none" transform="matrix(1 0 0 1.00027 3114.21 558.25)"/><path d="M5.33535 3.5681 12.2632 3.5681 12.2632 27.4898 4.72387 25.9779 4.72387 29.8417 12.2229 31.3536 16.463 31.3536 16.463 3.5681 23.3909 3.5681 23.3909 0 5.33535 0 5.33535 3.5681Z" transform="matrix(1 0 0 -1.00027 3144.32 574.593)"/><path d="M4.59619 5.33535 9.03112 5.33535 9.03112 0 4.59619 0 4.59619 5.33535Z" transform="matrix(1 0 0 -1.00027 3171.68 574.593)"/><path d="M13.6676 28.5582C11.486 28.5582 9.84419 27.4831 8.74218 25.3328 7.64467 23.1871 7.09588 19.9572 7.09588 15.6432 7.09588 11.3472 7.64467 8.12398 8.74218 5.97371 9.84419 3.82344 11.486 2.74831 13.6676 2.74831 15.8672 2.74831 17.5157 3.82344 18.6132 5.97371 19.7153 8.12398 20.2663 11.3472 20.2663 15.6432 20.2663 19.9572 19.7153 23.1871 18.6132 25.3328 17.5157 27.4831 15.8672 28.5582 13.6676 28.5582ZM13.6676 31.918C17.1842 31.918 19.8698 30.5271 21.7244 27.7452 23.579 24.9678 24.5063 20.9337 24.5063 15.6432 24.5063 10.3661 23.579 6.33657 21.7244 3.55466 19.8698 0.777234 17.1842-0.611482 13.6676-0.611482 10.1555-0.611482 7.47218 0.777234 5.61757 3.55466 3.76297 6.33657 2.83566 10.3661 2.83566 15.6432 2.83566 20.9337 3.76297 24.9678 5.61757 27.7452 7.47218 30.5271 10.1555 31.918 13.6676 31.918Z" transform="matrix(1 0 0 -1.00027 3185.35 574.593)"/><path d="M1654.18 1413.5 1687.93 1413.5 1721.68 1413.5 1721.68 63.4759 1687.93 63.4759 1654.18 63.4759 1654.18 1413.5Z" stroke="#000000" stroke-width="3.44043" stroke-linecap="square" fill="none" transform="matrix(1 0 0 1.00027 1392.53 494.757)"/><path d="M2287.5 656.574C2283.05 656.574 2279.1 658.811 2275.66 663.285 2272.21 667.759 2269.43 673.776 2267.33 681.337 2265.22 688.897 2264.17 695.668 2264.17 701.65 2264.17 705.143 2264.69 707.751 2265.71 709.474 2266.74 711.196 2268.33 712.057 2270.49 712.057 2273.65 712.057 2276.86 710.514 2280.14 707.428 2283.42 704.341 2286.06 700.717 2288.07 696.554 2290.08 692.391 2291.88 686.696 2293.46 679.471L2294.03 676.815C2294.8 673.274 2295.18 669.733 2295.18 666.192 2295.18 663.034 2294.58 660.641 2293.38 659.014 2292.19 657.387 2290.23 656.574 2287.5 656.574ZM2286.64 649.109C2293.77 649.109 2299.84 650.831 2304.87 654.277L2311.83 649.109 2319.87 650.257 2308.24 699.066C2307.52 702.08 2307.17 704.808 2307.17 707.248 2307.17 708.828 2307.43 710.048 2307.96 710.909 2308.48 711.77 2309.39 712.201 2310.68 712.201 2312.17 712.201 2313.77 711.531 2315.49 710.191 2317.21 708.851 2319.22 706.866 2321.52 704.234L2326.69 709.402C2321.66 714.426 2317.33 717.883 2313.7 719.774 2310.06 721.664 2306.23 722.609 2302.21 722.609 2298.19 722.609 2295.01 721.496 2292.67 719.271 2290.32 717.046 2289.15 714.115 2289.15 710.478 2289.15 709.282 2289.29 708.134 2289.58 707.033L2288.58 706.89C2285.08 711.005 2282.08 714.103 2279.57 716.185 2277.06 718.266 2274.39 719.857 2271.56 720.958 2268.74 722.058 2265.61 722.609 2262.16 722.609 2256.42 722.609 2252.06 720.659 2249.1 716.759 2246.13 712.859 2244.65 707.177 2244.65 699.712 2244.65 693.252 2245.58 686.84 2247.45 680.475 2249.31 674.111 2251.99 668.62 2255.49 664.003 2258.98 659.385 2263.37 655.748 2268.66 653.092 2273.94 650.437 2279.94 649.109 2286.64 649.109Z" fill-rule="evenodd"/><text fill="#000000" fill-opacity="0" font-family="Arial,Arial_MSFontService,sans-serif" font-size="73.5" x="2244.65" y="713.421"></text><path d="M1713.16 1595.86C1708.85 1595.86 1704.98 1598.02 1701.53 1602.32 1698.09 1606.63 1695.28 1612.61 1693.1 1620.27 1690.92 1627.92 1689.83 1634.82 1689.83 1640.94 1689.83 1644.43 1690.35 1647.04 1691.38 1648.76 1692.41 1650.49 1694 1651.35 1696.15 1651.35 1698.21 1651.35 1700.29 1650.69 1702.39 1649.37 1704.5 1648.06 1706.71 1646.02 1709.03 1643.27 1711.36 1640.52 1713.31 1637.21 1714.88 1633.33 1716.46 1629.46 1717.87 1624.58 1719.12 1618.69L1719.69 1616.03C1720.46 1612.49 1720.84 1609.05 1720.84 1605.7 1720.84 1602.4 1720.24 1599.93 1719.05 1598.3 1717.85 1596.68 1715.89 1595.86 1713.16 1595.86ZM1712.44 1588.4C1715.84 1588.4 1718.96 1588.77 1721.81 1589.51 1724.66 1590.25 1727.56 1591.61 1730.53 1593.57L1736.99 1588.4 1745.03 1589.55 1738.86 1617.61C1737.85 1622.21 1736.94 1626.61 1736.13 1630.82 1733.55 1643.93 1731.75 1652.66 1730.75 1657.02 1728.98 1664.44 1727.16 1670.03 1725.29 1673.81 1723.33 1677.79 1720.79 1681.17 1717.68 1683.97 1714.57 1686.77 1710.67 1688.89 1705.98 1690.32 1700.62 1692 1694.12 1692.84 1686.46 1692.84 1676.32 1692.84 1668.71 1691.48 1663.64 1688.78 1658.56 1686.08 1656.03 1682.02 1656.03 1676.61 1656.03 1673.65 1657.08 1670.85 1659.18 1668.22 1661.29 1665.58 1664.4 1663.07 1668.52 1660.68L1675.98 1666.71C1674.69 1668.29 1673.79 1669.77 1673.29 1671.16 1672.79 1672.55 1672.54 1674.05 1672.54 1675.68 1672.54 1678.93 1673.67 1681.36 1675.94 1682.97 1678.22 1684.57 1681.63 1685.37 1686.17 1685.37 1693.49 1685.37 1699.28 1682.63 1703.54 1677.15 1707.8 1671.67 1711.44 1661.66 1714.45 1647.11L1713.52 1646.47C1709.31 1651.83 1705.27 1655.74 1701.39 1658.2 1697.51 1660.67 1692.87 1661.9 1687.47 1661.9 1682.11 1661.9 1677.91 1659.94 1674.87 1656.01 1671.83 1652.09 1670.31 1646.42 1670.31 1639 1670.31 1632.45 1671.27 1625.97 1673.18 1619.59 1675.1 1613.2 1677.81 1607.71 1681.33 1603.11 1684.85 1598.52 1689.22 1594.92 1694.46 1592.31 1699.7 1589.7 1705.7 1588.4 1712.44 1588.4Z" fill-rule="evenodd"/><text fill="#000000" fill-opacity="0" font-family="Arial,Arial_MSFontService,sans-serif" font-size="104.436" x="1656.03" y="1679.78"></text><path d="M2725.25 1248.3C2724.01 1253.42 2723.11 1258.27 2722.56 1262.87 2722.01 1267.46 2721.74 1271.53 2721.74 1275.07 2721.74 1279.28 2722.37 1282.41 2723.64 1284.47 2724.91 1286.53 2726.9 1287.56 2729.63 1287.56 2734.42 1287.56 2738.93 1284.18 2743.16 1277.44 2747.4 1270.69 2751.02 1260.98 2754.04 1248.3ZM2751.74 1200.71C2746.86 1200.71 2742.3 1203.96 2738.07 1210.47 2733.83 1216.98 2730.21 1226.57 2727.19 1239.25L2755.97 1239.25C2757.03 1234.42 2757.85 1229.97 2758.45 1225.9 2759.05 1221.83 2759.35 1218.05 2759.35 1214.56 2759.35 1209.58 2758.76 1206.03 2757.59 1203.9 2756.42 1201.77 2754.47 1200.71 2751.74 1200.71ZM2751.88 1193.24C2760.69 1193.24 2767.27 1195.77 2771.62 1200.82 2775.98 1205.86 2778.15 1213.44 2778.15 1223.53 2778.15 1230.61 2776.99 1238.95 2774.67 1248.55 2772.35 1258.14 2769.07 1266.47 2764.84 1273.53 2760.6 1280.58 2755.5 1285.93 2749.51 1289.57 2743.53 1293.2 2736.79 1295.02 2729.27 1295.02 2720.52 1295.02 2713.94 1292.51 2709.53 1287.49 2705.13 1282.46 2702.93 1275.12 2702.93 1265.45 2702.93 1258.37 2704.07 1249.99 2706.34 1240.33 2708.61 1230.66 2711.86 1222.26 2716.07 1215.13 2720.28 1208 2725.37 1202.57 2731.35 1198.84 2737.34 1195.11 2744.18 1193.24 2751.88 1193.24Z" fill-rule="evenodd"/><text fill="#000000" fill-opacity="0" font-family="Arial,Arial_MSFontService,sans-serif" font-size="101.78" x="2702.93" y="1282.3"></text><path d="M2818.22 1256.51 2821.41 1256.51C2821.34 1258.43 2821.28 1260.14 2821.25 1261.66 2821.21 1263.17 2821.19 1264.64 2821.17 1266.07 2821.15 1267.5 2821.14 1268.91 2821.14 1270.3L2821.14 1310.01C2821.14 1311.09 2821.18 1312.02 2821.25 1312.81 2821.32 1313.59 2821.43 1314.25 2821.59 1314.79 2821.74 1315.33 2821.95 1315.79 2822.21 1316.18 2822.48 1316.56 2822.78 1316.89 2823.13 1317.17 2823.55 1317.59 2824.1 1317.91 2824.8 1318.14 2825.5 1318.36 2826.39 1318.55 2827.47 1318.71 2828.55 1318.87 2829.84 1318.99 2831.36 1319.08 2832.87 1319.16 2834.69 1319.22 2836.82 1319.26L2836.82 1323.8 2795.39 1323.8 2795.39 1319.26C2797.44 1319.19 2799.18 1319.11 2800.61 1319.02 2802.04 1318.94 2803.26 1318.81 2804.27 1318.66 2805.28 1318.5 2806.09 1318.33 2806.7 1318.14 2807.31 1317.94 2807.84 1317.71 2808.29 1317.43 2808.78 1317.12 2809.2 1316.78 2809.55 1316.41 2809.89 1316.05 2810.17 1315.58 2810.38 1315.03 2810.59 1314.47 2810.76 1313.79 2810.88 1312.99 2811 1312.19 2811.06 1311.19 2811.06 1310.01L2811.06 1272.55C2811.06 1271.19 2810.8 1270.23 2810.28 1269.68 2809.75 1269.12 2809.01 1268.84 2808.03 1268.84 2806.95 1268.84 2805.35 1269.4 2803.22 1270.51 2801.1 1271.63 2798.35 1273.28 2794.97 1275.48 2794.52 1274.67 2794.1 1273.87 2793.71 1273.07 2793.33 1272.27 2792.93 1271.45 2792.51 1270.62 2796.83 1268.25 2801.11 1265.89 2805.34 1263.54 2809.57 1261.19 2813.86 1258.84 2818.22 1256.51Z" fill-rule="evenodd"/><text fill="#000000" fill-opacity="0" font-family="Arial,Arial_MSFontService,sans-serif" font-size="67.293" x="2792.51" y="1315.39">1</text><path d="M2373.06 1757.34C2371.82 1762.46 2370.92 1767.31 2370.37 1771.91 2369.82 1776.5 2369.54 1780.57 2369.54 1784.11 2369.54 1788.32 2370.18 1791.45 2371.45 1793.51 2372.71 1795.57 2374.71 1796.6 2377.44 1796.6 2382.22 1796.6 2386.73 1793.23 2390.97 1786.48 2395.2 1779.73 2398.83 1770.02 2401.84 1757.34ZM2399.55 1709.75C2394.67 1709.75 2390.11 1713 2385.87 1719.51 2381.64 1726.02 2378.01 1735.61 2375 1748.29L2403.78 1748.29C2404.83 1743.46 2405.66 1739.01 2406.26 1734.94 2406.86 1730.87 2407.16 1727.09 2407.16 1723.6 2407.16 1718.62 2406.57 1715.07 2405.4 1712.94 2404.22 1710.81 2402.27 1709.75 2399.55 1709.75ZM2399.69 1702.28C2408.5 1702.28 2415.07 1704.81 2419.43 1709.86 2423.78 1714.9 2425.96 1722.48 2425.96 1732.57 2425.96 1739.66 2424.8 1747.99 2422.48 1757.59 2420.16 1767.18 2416.88 1775.51 2412.65 1782.57 2408.41 1789.62 2403.3 1794.97 2397.32 1798.61 2391.34 1802.25 2384.59 1804.06 2377.08 1804.06 2368.32 1804.06 2361.74 1801.55 2357.34 1796.53 2352.94 1791.5 2350.74 1784.16 2350.74 1774.49 2350.74 1767.41 2351.87 1759.04 2354.15 1749.37 2356.42 1739.7 2359.66 1731.31 2363.87 1724.18 2368.08 1717.05 2373.18 1711.61 2379.16 1707.88 2385.14 1704.15 2391.99 1702.28 2399.69 1702.28Z" fill-rule="evenodd"/><text fill="#000000" fill-opacity="0" font-family="Arial,Arial_MSFontService,sans-serif" font-size="101.78" x="2350.74" y="1791.34"></text><path d="M2465.34 1765.19C2468.96 1765.19 2472.05 1765.6 2474.61 1766.41 2477.18 1767.23 2479.26 1768.34 2480.86 1769.73 2482.46 1771.12 2483.62 1772.8 2484.33 1774.75 2485.05 1776.7 2485.4 1778.8 2485.4 1781.07 2485.4 1782.43 2485.31 1783.69 2485.12 1784.86 2484.92 1786.02 2484.59 1787.17 2484.12 1788.3 2483.65 1789.44 2483.04 1790.58 2482.27 1791.73 2481.5 1792.88 2480.54 1794.1 2479.4 1795.38 2478.52 1796.5 2477.39 1797.79 2476 1799.25 2474.61 1800.71 2473.08 1802.28 2471.43 1803.95 2469.77 1805.62 2468.04 1807.37 2466.23 1809.18 2464.42 1810.99 2462.66 1812.78 2460.95 1814.56 2459.25 1816.33 2457.68 1818.06 2456.25 1819.73 2454.82 1821.4 2453.66 1822.94 2452.75 1824.33L2472.08 1824.33C2473.72 1824.33 2475.02 1824.27 2476 1824.15 2476.97 1824.02 2477.78 1823.75 2478.43 1823.34 2479.07 1822.92 2479.62 1822.28 2480.07 1821.43 2480.53 1820.58 2481.05 1819.4 2481.64 1817.9L2486.5 1817.9C2486.33 1820.38 2486.16 1822.87 2486 1825.37 2485.85 1827.88 2485.68 1830.37 2485.51 1832.84L2441.26 1832.84 2441.26 1830.13C2442.09 1828.25 2443.07 1826.39 2444.18 1824.56 2445.3 1822.73 2446.55 1820.88 2447.94 1819 2449.34 1817.12 2450.92 1815.18 2452.7 1813.17 2454.47 1811.17 2456.44 1809.09 2458.6 1806.93 2461.88 1803.66 2464.54 1800.86 2466.6 1798.55 2468.65 1796.23 2470.27 1794.17 2471.45 1792.35 2472.64 1790.54 2473.45 1788.87 2473.88 1787.34 2474.32 1785.81 2474.54 1784.17 2474.54 1782.43 2474.54 1780.65 2474.28 1779.01 2473.78 1777.52 2473.27 1776.02 2472.55 1774.75 2471.61 1773.7 2470.67 1772.66 2469.48 1771.84 2468.03 1771.25 2466.59 1770.65 2464.92 1770.36 2463.04 1770.36 2459.8 1770.36 2457.09 1771.24 2454.89 1773 2452.7 1774.76 2450.99 1777.31 2449.77 1780.65L2442.93 1780.65 2442.93 1770.46C2447.39 1768.62 2451.49 1767.28 2455.23 1766.44 2458.98 1765.6 2462.35 1765.19 2465.34 1765.19Z" fill-rule="evenodd"/><text fill="#000000" fill-opacity="0" font-family="Arial,Arial_MSFontService,sans-serif" font-size="67.6587" x="2441.26" y="1824.39">2</text><path d="M1462.5 569.5 2696.41 1903.85" stroke="#595959" stroke-width="9.16667" stroke-miterlimit="8" stroke-opacity="0.501961" fill="none" fill-rule="evenodd"/><path d="M0 0 1477.83 943.369" stroke="#595959" stroke-width="9.16667" stroke-miterlimit="8" stroke-opacity="0.501961" fill="none" fill-rule="evenodd" transform="matrix(1 0 0 -1 1469.5 1900.87)"/></g></svg>