<svg width="478" height="432" xmlns="http://www.w3.org/2000/svg" xmlns:xlink="http://www.w3.org/1999/xlink" xml:space="preserve" overflow="hidden"><defs><clipPath id="clip0"><rect x="401" y="144" width="478" height="432"/></clipPath><clipPath id="clip1"><rect x="408" y="151" width="465" height="419"/></clipPath><clipPath id="clip2"><rect x="408" y="151" width="465" height="419"/></clipPath><clipPath id="clip3"><rect x="408" y="151" width="465" height="419"/></clipPath><clipPath id="clip4"><rect x="408" y="151" width="465" height="419"/></clipPath><clipPath id="clip5"><rect x="408" y="151" width="465" height="419"/></clipPath></defs><g clip-path="url(#clip0)" transform="translate(-401 -144)"><path d="M0 459.574 612.766 459.574 612.766 0 0 0Z" fill="#FFFFFF" transform="matrix(1 0 0 1.00202 389.682 131.835)"/><path d="M19.0159 437.074 482.526 437.074 482.526 19.6276 19.0159 19.6276Z" fill="#FFFFFF" transform="matrix(1 0 0 1.00202 389.682 131.835)"/><g clip-path="url(#clip1)"><path d="M0 2.97349C0.788579 2.97349 1.54497 2.66019 2.10258 2.10258 2.66019 1.54497 2.97349 0.788579 2.97349 0 2.97349-0.788579 2.66019-1.54497 2.10258-2.10258 1.54497-2.66019 0.788579-2.97349 0-2.97349-0.788579-2.97349-1.54497-2.66019-2.10258-2.10258-2.66019-1.54497-2.97349-0.788579-2.97349 0-2.97349 0.788579-2.66019 1.54497-2.10258 2.10258-1.54497 2.66019-0.788579 2.97349 0 2.97349Z" stroke="#FF6969" stroke-width="1.32979" stroke-linejoin="round" fill="#FF6969" transform="matrix(1 0 0 1.00202 679.653 170.516)"/><path d="M0 2.97349C0.788579 2.97349 1.54497 2.66019 2.10258 2.10258 2.66019 1.54497 2.97349 0.788579 2.97349 0 2.97349-0.788579 2.66019-1.54497 2.10258-2.10258 1.54497-2.66019 0.788579-2.97349 0-2.97349-0.788579-2.97349-1.54497-2.66019-2.10258-2.10258-2.66019-1.54497-2.97349-0.788579-2.97349 0-2.97349 0.788579-2.66019 1.54497-2.10258 2.10258-1.54497 2.66019-0.788579 2.97349 0 2.97349Z" stroke="#FF6969" stroke-width="1.32979" stroke-linejoin="round" fill="#FF6969" transform="matrix(1 0 0 1.00202 577.617 550.778)"/><path d="M0 2.97349C0.788579 2.97349 1.54497 2.66019 2.10258 2.10258 2.66019 1.54497 2.97349 0.788579 2.97349 0 2.97349-0.788579 2.66019-1.54497 2.10258-2.10258 1.54497-2.66019 0.788579-2.97349 0-2.97349-0.788579-2.97349-1.54497-2.66019-2.10258-2.10258-2.66019-1.54497-2.97349-0.788579-2.97349 0-2.97349 0.788579-2.66019 1.54497-2.10258 2.10258-1.54497 2.66019-0.788579 2.97349 0 2.97349Z" stroke="#FF6969" stroke-width="1.32979" stroke-linejoin="round" fill="#FF6969" transform="matrix(1 0 0 1.00202 604.841 171.93)"/><path d="M0 2.97349C0.788579 2.97349 1.54497 2.66019 2.10258 2.10258 2.66019 1.54497 2.97349 0.788579 2.97349 0 2.97349-0.788579 2.66019-1.54497 2.10258-2.10258 1.54497-2.66019 0.788579-2.97349 0-2.97349-0.788579-2.97349-1.54497-2.66019-2.10258-2.10258-2.66019-1.54497-2.97349-0.788579-2.97349 0-2.97349 0.788579-2.66019 1.54497-2.10258 2.10258-1.54497 2.66019-0.788579 2.97349 0 2.97349Z" stroke="#FF6969" stroke-width="1.32979" stroke-linejoin="round" fill="#FF6969" transform="matrix(1 0 0 1.00202 429.767 387.441)"/><path d="M0 2.97349C0.788579 2.97349 1.54497 2.66019 2.10258 2.10258 2.66019 1.54497 2.97349 0.788579 2.97349 0 2.97349-0.788579 2.66019-1.54497 2.10258-2.10258 1.54497-2.66019 0.788579-2.97349 0-2.97349-0.788579-2.97349-1.54497-2.66019-2.10258-2.10258-2.66019-1.54497-2.97349-0.788579-2.97349 0-2.97349 0.788579-2.66019 1.54497-2.10258 2.10258-1.54497 2.66019-0.788579 2.97349 0 2.97349Z" stroke="#FF6969" stroke-width="1.32979" stroke-linejoin="round" fill="#FF6969" transform="matrix(1 0 0 1.00202 433.787 420.904)"/></g><g clip-path="url(#clip2)"><path d="M0 2.97349C0.788579 2.97349 1.54497 2.66019 2.10258 2.10258 2.66019 1.54497 2.97349 0.788579 2.97349 0 2.97349-0.788579 2.66019-1.54497 2.10258-2.10258 1.54497-2.66019 0.788579-2.97349 0-2.97349-0.788579-2.97349-1.54497-2.66019-2.10258-2.10258-2.66019-1.54497-2.97349-0.788579-2.97349 0-2.97349 0.788579-2.66019 1.54497-2.10258 2.10258-1.54497 2.66019-0.788579 2.97349 0 2.97349Z" stroke="#FF6969" stroke-width="1.32979" stroke-linejoin="round" fill="#FF6969" transform="matrix(1 0 0 1.00202 474.121 257.684)"/><path d="M0 2.97349C0.788579 2.97349 1.54497 2.66019 2.10258 2.10258 2.66019 1.54497 2.97349 0.788579 2.97349 0 2.97349-0.788579 2.66019-1.54497 2.10258-2.10258 1.54497-2.66019 0.788579-2.97349 0-2.97349-0.788579-2.97349-1.54497-2.66019-2.10258-2.10258-2.66019-1.54497-2.97349-0.788579-2.97349 0-2.97349 0.788579-2.66019 1.54497-2.10258 2.10258-1.54497 2.66019-0.788579 2.97349 0 2.97349Z" stroke="#FF6969" stroke-width="1.32979" stroke-linejoin="round" fill="#FF6969" transform="matrix(1 0 0 1.00202 745.835 523.919)"/><path d="M0 2.97349C0.788579 2.97349 1.54497 2.66019 2.10258 2.10258 2.66019 1.54497 2.97349 0.788579 2.97349 0 2.97349-0.788579 2.66019-1.54497 2.10258-2.10258 1.54497-2.66019 0.788579-2.97349 0-2.97349-0.788579-2.97349-1.54497-2.66019-2.10258-2.10258-2.66019-1.54497-2.97349-0.788579-2.97349 0-2.97349 0.788579-2.66019 1.54497-2.10258 2.10258-1.54497 2.66019-0.788579 2.97349 0 2.97349Z" stroke="#FF6969" stroke-width="1.32979" stroke-linejoin="round" fill="#FF6969" transform="matrix(1 0 0 1.00202 513.563 518.532)"/><path d="M0 2.97349C0.788579 2.97349 1.54497 2.66019 2.10258 2.10258 2.66019 1.54497 2.97349 0.788579 2.97349 0 2.97349-0.788579 2.66019-1.54497 2.10258-2.10258 1.54497-2.66019 0.788579-2.97349 0-2.97349-0.788579-2.97349-1.54497-2.66019-2.10258-2.10258-2.66019-1.54497-2.97349-0.788579-2.97349 0-2.97349 0.788579-2.66019 1.54497-2.10258 2.10258-1.54497 2.66019-0.788579 2.97349 0 2.97349Z" stroke="#FF6969" stroke-width="1.32979" stroke-linejoin="round" fill="#FF6969" transform="matrix(1 0 0 1.00202 814.143 460.195)"/><path d="M0 2.97349C0.788579 2.97349 1.54497 2.66019 2.10258 2.10258 2.66019 1.54497 2.97349 0.788579 2.97349 0 2.97349-0.788579 2.66019-1.54497 2.10258-2.10258 1.54497-2.66019 0.788579-2.97349 0-2.97349-0.788579-2.97349-1.54497-2.66019-2.10258-2.10258-2.66019-1.54497-2.97349-0.788579-2.97349 0-2.97349 0.788579-2.66019 1.54497-2.10258 2.10258-1.54497 2.66019-0.788579 2.97349 0 2.97349Z" stroke="#FF6969" stroke-width="1.32979" stroke-linejoin="round" fill="#FF6969" transform="matrix(1 0 0 1.00202 761.927 513.843)"/></g><g clip-path="url(#clip3)"><path d="M0 2.97349C0.788579 2.97349 1.54497 2.66019 2.10258 2.10258 2.66019 1.54497 2.97349 0.788579 2.97349 0 2.97349-0.788579 2.66019-1.54497 2.10258-2.10258 1.54497-2.66019 0.788579-2.97349 0-2.97349-0.788579-2.97349-1.54497-2.66019-2.10258-2.10258-2.66019-1.54497-2.97349-0.788579-2.97349 0-2.97349 0.788579-2.66019 1.54497-2.10258 2.10258-1.54497 2.66019-0.788579 2.97349 0 2.97349Z" stroke="#FF6969" stroke-width="1.32979" stroke-linejoin="round" fill="#FF6969" transform="matrix(1 0 0 1.00202 848.294 343.181)"/><path d="M0 2.97349C0.788579 2.97349 1.54497 2.66019 2.10258 2.10258 2.66019 1.54497 2.97349 0.788579 2.97349 0 2.97349-0.788579 2.66019-1.54497 2.10258-2.10258 1.54497-2.66019 0.788579-2.97349 0-2.97349-0.788579-2.97349-1.54497-2.66019-2.10258-2.10258-2.66019-1.54497-2.97349-0.788579-2.97349 0-2.97349 0.788579-2.66019 1.54497-2.10258 2.10258-1.54497 2.66019-0.788579 2.97349 0 2.97349Z" stroke="#FF6969" stroke-width="1.32979" stroke-linejoin="round" fill="#FF6969" transform="matrix(1 0 0 1.00202 842.942 313.149)"/><path d="M0 2.97349C0.788579 2.97349 1.54497 2.66019 2.10258 2.10258 2.66019 1.54497 2.97349 0.788579 2.97349 0 2.97349-0.788579 2.66019-1.54497 2.10258-2.10258 1.54497-2.66019 0.788579-2.97349 0-2.97349-0.788579-2.97349-1.54497-2.66019-2.10258-2.10258-2.66019-1.54497-2.97349-0.788579-2.97349 0-2.97349 0.788579-2.66019 1.54497-2.10258 2.10258-1.54497 2.66019-0.788579 2.97349 0 2.97349Z" stroke="#FF6969" stroke-width="1.32979" stroke-linejoin="round" fill="#FF6969" transform="matrix(1 0 0 1.00202 632.016 176.345)"/><path d="M0 2.97349C0.788579 2.97349 1.54497 2.66019 2.10258 2.10258 2.66019 1.54497 2.97349 0.788579 2.97349 0 2.97349-0.788579 2.66019-1.54497 2.10258-2.10258 1.54497-2.66019 0.788579-2.97349 0-2.97349-0.788579-2.97349-1.54497-2.66019-2.10258-2.10258-2.66019-1.54497-2.97349-0.788579-2.97349 0-2.97349 0.788579-2.66019 1.54497-2.10258 2.10258-1.54497 2.66019-0.788579 2.97349 0 2.97349Z" stroke="#FF6969" stroke-width="1.32979" stroke-linejoin="round" fill="#FF6969" transform="matrix(1 0 0 1.00202 835.096 290.892)"/><path d="M0 2.97349C0.788579 2.97349 1.54497 2.66019 2.10258 2.10258 2.66019 1.54497 2.97349 0.788579 2.97349 0 2.97349-0.788579 2.66019-1.54497 2.10258-2.10258 1.54497-2.66019 0.788579-2.97349 0-2.97349-0.788579-2.97349-1.54497-2.66019-2.10258-2.10258-2.66019-1.54497-2.97349-0.788579-2.97349 0-2.97349 0.788579-2.66019 1.54497-2.10258 2.10258-1.54497 2.66019-0.788579 2.97349 0 2.97349Z" stroke="#FF6969" stroke-width="1.32979" stroke-linejoin="round" fill="#FF6969" transform="matrix(1 0 0 1.00202 851.14 358.432)"/></g><g clip-path="url(#clip4)"><path d="M0 2.97349C0.788579 2.97349 1.54497 2.66019 2.10258 2.10258 2.66019 1.54497 2.97349 0.788579 2.97349 0 2.97349-0.788579 2.66019-1.54497 2.10258-2.10258 1.54497-2.66019 0.788579-2.97349 0-2.97349-0.788579-2.97349-1.54497-2.66019-2.10258-2.10258-2.66019-1.54497-2.97349-0.788579-2.97349 0-2.97349 0.788579-2.66019 1.54497-2.10258 2.10258-1.54497 2.66019-0.788579 2.97349 0 2.97349Z" stroke="#78D695" stroke-width="1.32979" stroke-linejoin="round" fill="#78D695" transform="matrix(1 0 0 1.00202 745.352 311.102)"/><path d="M0 2.97349C0.788579 2.97349 1.54497 2.66019 2.10258 2.10258 2.66019 1.54497 2.97349 0.788579 2.97349 0 2.97349-0.788579 2.66019-1.54497 2.10258-2.10258 1.54497-2.66019 0.788579-2.97349 0-2.97349-0.788579-2.97349-1.54497-2.66019-2.10258-2.10258-2.66019-1.54497-2.97349-0.788579-2.97349 0-2.97349 0.788579-2.66019 1.54497-2.10258 2.10258-1.54497 2.66019-0.788579 2.97349 0 2.97349Z" stroke="#78D695" stroke-width="1.32979" stroke-linejoin="round" fill="#78D695" transform="matrix(1 0 0 1.00202 610.597 240.41)"/><path d="M0 2.97349C0.788579 2.97349 1.54497 2.66019 2.10258 2.10258 2.66019 1.54497 2.97349 0.788579 2.97349 0 2.97349-0.788579 2.66019-1.54497 2.10258-2.10258 1.54497-2.66019 0.788579-2.97349 0-2.97349-0.788579-2.97349-1.54497-2.66019-2.10258-2.10258-2.66019-1.54497-2.97349-0.788579-2.97349 0-2.97349 0.788579-2.66019 1.54497-2.10258 2.10258-1.54497 2.66019-0.788579 2.97349 0 2.97349Z" stroke="#78D695" stroke-width="1.32979" stroke-linejoin="round" fill="#78D695" transform="matrix(1 0 0 1.00202 711.601 262.969)"/><path d="M0 2.97349C0.788579 2.97349 1.54497 2.66019 2.10258 2.10258 2.66019 1.54497 2.97349 0.788579 2.97349 0 2.97349-0.788579 2.66019-1.54497 2.10258-2.10258 1.54497-2.66019 0.788579-2.97349 0-2.97349-0.788579-2.97349-1.54497-2.66019-2.10258-2.10258-2.66019-1.54497-2.97349-0.788579-2.97349 0-2.97349 0.788579-2.66019 1.54497-2.10258 2.10258-1.54497 2.66019-0.788579 2.97349 0 2.97349Z" stroke="#78D695" stroke-width="1.32979" stroke-linejoin="round" fill="#78D695" transform="matrix(1 0 0 1.00202 714.439 291.401)"/><path d="M0 2.97349C0.788579 2.97349 1.54497 2.66019 2.10258 2.10258 2.66019 1.54497 2.97349 0.788579 2.97349 0 2.97349-0.788579 2.66019-1.54497 2.10258-2.10258 1.54497-2.66019 0.788579-2.97349 0-2.97349-0.788579-2.97349-1.54497-2.66019-2.10258-2.10258-2.66019-1.54497-2.97349-0.788579-2.97349 0-2.97349 0.788579-2.66019 1.54497-2.10258 2.10258-1.54497 2.66019-0.788579 2.97349 0 2.97349Z" stroke="#78D695" stroke-width="1.32979" stroke-linejoin="round" fill="#78D695" transform="matrix(1 0 0 1.00202 620.42 272.354)"/><path d="M0 2.97349C0.788579 2.97349 1.54497 2.66019 2.10258 2.10258 2.66019 1.54497 2.97349 0.788579 2.97349 0 2.97349-0.788579 2.66019-1.54497 2.10258-2.10258 1.54497-2.66019 0.788579-2.97349 0-2.97349-0.788579-2.97349-1.54497-2.66019-2.10258-2.10258-2.66019-1.54497-2.97349-0.788579-2.97349 0-2.97349 0.788579-2.66019 1.54497-2.10258 2.10258-1.54497 2.66019-0.788579 2.97349 0 2.97349Z" stroke="#78D695" stroke-width="1.32979" stroke-linejoin="round" fill="#78D695" transform="matrix(1 0 0 1.00202 651.798 257.5)"/><path d="M0 2.97349C0.788579 2.97349 1.54497 2.66019 2.10258 2.10258 2.66019 1.54497 2.97349 0.788579 2.97349 0 2.97349-0.788579 2.66019-1.54497 2.10258-2.10258 1.54497-2.66019 0.788579-2.97349 0-2.97349-0.788579-2.97349-1.54497-2.66019-2.10258-2.10258-2.66019-1.54497-2.97349-0.788579-2.97349 0-2.97349 0.788579-2.66019 1.54497-2.10258 2.10258-1.54497 2.66019-0.788579 2.97349 0 2.97349Z" stroke="#78D695" stroke-width="1.32979" stroke-linejoin="round" fill="#78D695" transform="matrix(1 0 0 1.00202 739.153 319.29)"/><path d="M0 2.97349C0.788579 2.97349 1.54497 2.66019 2.10258 2.10258 2.66019 1.54497 2.97349 0.788579 2.97349 0 2.97349-0.788579 2.66019-1.54497 2.10258-2.10258 1.54497-2.66019 0.788579-2.97349 0-2.97349-0.788579-2.97349-1.54497-2.66019-2.10258-2.10258-2.66019-1.54497-2.97349-0.788579-2.97349 0-2.97349 0.788579-2.66019 1.54497-2.10258 2.10258-1.54497 2.66019-0.788579 2.97349 0 2.97349Z" stroke="#78D695" stroke-width="1.32979" stroke-linejoin="round" fill="#78D695" transform="matrix(1 0 0 1.00202 728.626 272.787)"/><path d="M0 2.97349C0.788579 2.97349 1.54497 2.66019 2.10258 2.10258 2.66019 1.54497 2.97349 0.788579 2.97349 0 2.97349-0.788579 2.66019-1.54497 2.10258-2.10258 1.54497-2.66019 0.788579-2.97349 0-2.97349-0.788579-2.97349-1.54497-2.66019-2.10258-2.10258-2.66019-1.54497-2.97349-0.788579-2.97349 0-2.97349 0.788579-2.66019 1.54497-2.10258 2.10258-1.54497 2.66019-0.788579 2.97349 0 2.97349Z" stroke="#78D695" stroke-width="1.32979" stroke-linejoin="round" fill="#78D695" transform="matrix(1 0 0 1.00202 598.182 285.114)"/><path d="M0 2.97349C0.788579 2.97349 1.54497 2.66019 2.10258 2.10258 2.66019 1.54497 2.97349 0.788579 2.97349 0 2.97349-0.788579 2.66019-1.54497 2.10258-2.10258 1.54497-2.66019 0.788579-2.97349 0-2.97349-0.788579-2.97349-1.54497-2.66019-2.10258-2.10258-2.66019-1.54497-2.97349-0.788579-2.97349 0-2.97349 0.788579-2.66019 1.54497-2.10258 2.10258-1.54497 2.66019-0.788579 2.97349 0 2.97349Z" stroke="#78D695" stroke-width="1.32979" stroke-linejoin="round" fill="#78D695" transform="matrix(1 0 0 1.00202 691.634 293.612)"/><path d="M0 2.97349C0.788579 2.97349 1.54497 2.66019 2.10258 2.10258 2.66019 1.54497 2.97349 0.788579 2.97349 0 2.97349-0.788579 2.66019-1.54497 2.10258-2.10258 1.54497-2.66019 0.788579-2.97349 0-2.97349-0.788579-2.97349-1.54497-2.66019-2.10258-2.10258-2.66019-1.54497-2.97349-0.788579-2.97349 0-2.97349 0.788579-2.66019 1.54497-2.10258 2.10258-1.54497 2.66019-0.788579 2.97349 0 2.97349Z" stroke="#78D695" stroke-width="1.32979" stroke-linejoin="round" fill="#78D695" transform="matrix(1 0 0 1.00202 687.611 343.267)"/><path d="M0 2.97349C0.788579 2.97349 1.54497 2.66019 2.10258 2.10258 2.66019 1.54497 2.97349 0.788579 2.97349 0 2.97349-0.788579 2.66019-1.54497 2.10258-2.10258 1.54497-2.66019 0.788579-2.97349 0-2.97349-0.788579-2.97349-1.54497-2.66019-2.10258-2.10258-2.66019-1.54497-2.97349-0.788579-2.97349 0-2.97349 0.788579-2.66019 1.54497-2.10258 2.10258-1.54497 2.66019-0.788579 2.97349 0 2.97349Z" stroke="#78D695" stroke-width="1.32979" stroke-linejoin="round" fill="#78D695" transform="matrix(1 0 0 1.00202 724.664 338.596)"/><path d="M0 2.97349C0.788579 2.97349 1.54497 2.66019 2.10258 2.10258 2.66019 1.54497 2.97349 0.788579 2.97349 0 2.97349-0.788579 2.66019-1.54497 2.10258-2.10258 1.54497-2.66019 0.788579-2.97349 0-2.97349-0.788579-2.97349-1.54497-2.66019-2.10258-2.10258-2.66019-1.54497-2.97349-0.788579-2.97349 0-2.97349 0.788579-2.66019 1.54497-2.10258 2.10258-1.54497 2.66019-0.788579 2.97349 0 2.97349Z" stroke="#78D695" stroke-width="1.32979" stroke-linejoin="round" fill="#78D695" transform="matrix(1 0 0 1.00202 736.566 352.991)"/><path d="M0 2.97349C0.788579 2.97349 1.54497 2.66019 2.10258 2.10258 2.66019 1.54497 2.97349 0.788579 2.97349 0 2.97349-0.788579 2.66019-1.54497 2.10258-2.10258 1.54497-2.66019 0.788579-2.97349 0-2.97349-0.788579-2.97349-1.54497-2.66019-2.10258-2.10258-2.66019-1.54497-2.97349-0.788579-2.97349 0-2.97349 0.788579-2.66019 1.54497-2.10258 2.10258-1.54497 2.66019-0.788579 2.97349 0 2.97349Z" stroke="#78D695" stroke-width="1.32979" stroke-linejoin="round" fill="#78D695" transform="matrix(1 0 0 1.00202 746.666 372.121)"/><path d="M0 2.97349C0.788579 2.97349 1.54497 2.66019 2.10258 2.10258 2.66019 1.54497 2.97349 0.788579 2.97349 0 2.97349-0.788579 2.66019-1.54497 2.10258-2.10258 1.54497-2.66019 0.788579-2.97349 0-2.97349-0.788579-2.97349-1.54497-2.66019-2.10258-2.10258-2.66019-1.54497-2.97349-0.788579-2.97349 0-2.97349 0.788579-2.66019 1.54497-2.10258 2.10258-1.54497 2.66019-0.788579 2.97349 0 2.97349Z" stroke="#78D695" stroke-width="1.32979" stroke-linejoin="round" fill="#78D695" transform="matrix(1 0 0 1.00202 766.612 339.714)"/><path d="M0 2.97349C0.788579 2.97349 1.54497 2.66019 2.10258 2.10258 2.66019 1.54497 2.97349 0.788579 2.97349 0 2.97349-0.788579 2.66019-1.54497 2.10258-2.10258 1.54497-2.66019 0.788579-2.97349 0-2.97349-0.788579-2.97349-1.54497-2.66019-2.10258-2.10258-2.66019-1.54497-2.97349-0.788579-2.97349 0-2.97349 0.788579-2.66019 1.54497-2.10258 2.10258-1.54497 2.66019-0.788579 2.97349 0 2.97349Z" stroke="#78D695" stroke-width="1.32979" stroke-linejoin="round" fill="#78D695" transform="matrix(1 0 0 1.00202 607.589 317.185)"/><path d="M0 2.97349C0.788579 2.97349 1.54497 2.66019 2.10258 2.10258 2.66019 1.54497 2.97349 0.788579 2.97349 0 2.97349-0.788579 2.66019-1.54497 2.10258-2.10258 1.54497-2.66019 0.788579-2.97349 0-2.97349-0.788579-2.97349-1.54497-2.66019-2.10258-2.10258-2.66019-1.54497-2.97349-0.788579-2.97349 0-2.97349 0.788579-2.66019 1.54497-2.10258 2.10258-1.54497 2.66019-0.788579 2.97349 0 2.97349Z" stroke="#78D695" stroke-width="1.32979" stroke-linejoin="round" fill="#78D695" transform="matrix(1 0 0 1.00202 751.599 305.185)"/><path d="M0 2.97349C0.788579 2.97349 1.54497 2.66019 2.10258 2.10258 2.66019 1.54497 2.97349 0.788579 2.97349 0 2.97349-0.788579 2.66019-1.54497 2.10258-2.10258 1.54497-2.66019 0.788579-2.97349 0-2.97349-0.788579-2.97349-1.54497-2.66019-2.10258-2.10258-2.66019-1.54497-2.97349-0.788579-2.97349 0-2.97349 0.788579-2.66019 1.54497-2.10258 2.10258-1.54497 2.66019-0.788579 2.97349 0 2.97349Z" stroke="#78D695" stroke-width="1.32979" stroke-linejoin="round" fill="#78D695" transform="matrix(1 0 0 1.00202 667.268 372.905)"/><path d="M0 2.97349C0.788579 2.97349 1.54497 2.66019 2.10258 2.10258 2.66019 1.54497 2.97349 0.788579 2.97349 0 2.97349-0.788579 2.66019-1.54497 2.10258-2.10258 1.54497-2.66019 0.788579-2.97349 0-2.97349-0.788579-2.97349-1.54497-2.66019-2.10258-2.10258-2.66019-1.54497-2.97349-0.788579-2.97349 0-2.97349 0.788579-2.66019 1.54497-2.10258 2.10258-1.54497 2.66019-0.788579 2.97349 0 2.97349Z" stroke="#78D695" stroke-width="1.32979" stroke-linejoin="round" fill="#78D695" transform="matrix(1 0 0 1.00202 659.232 299.084)"/><path d="M0 2.97349C0.788579 2.97349 1.54497 2.66019 2.10258 2.10258 2.66019 1.54497 2.97349 0.788579 2.97349 0 2.97349-0.788579 2.66019-1.54497 2.10258-2.10258 1.54497-2.66019 0.788579-2.97349 0-2.97349-0.788579-2.97349-1.54497-2.66019-2.10258-2.10258-2.66019-1.54497-2.97349-0.788579-2.97349 0-2.97349 0.788579-2.66019 1.54497-2.10258 2.10258-1.54497 2.66019-0.788579 2.97349 0 2.97349Z" stroke="#78D695" stroke-width="1.32979" stroke-linejoin="round" fill="#78D695" transform="matrix(1 0 0 1.00202 729.037 287.675)"/><path d="M0 2.97349C0.788579 2.97349 1.54497 2.66019 2.10258 2.10258 2.66019 1.54497 2.97349 0.788579 2.97349 0 2.97349-0.788579 2.66019-1.54497 2.10258-2.10258 1.54497-2.66019 0.788579-2.97349 0-2.97349-0.788579-2.97349-1.54497-2.66019-2.10258-2.10258-2.66019-1.54497-2.97349-0.788579-2.97349 0-2.97349 0.788579-2.66019 1.54497-2.10258 2.10258-1.54497 2.66019-0.788579 2.97349 0 2.97349Z" stroke="#78D695" stroke-width="1.32979" stroke-linejoin="round" fill="#78D695" transform="matrix(1 0 0 1.00202 590.715 312.229)"/><path d="M0 2.97349C0.788579 2.97349 1.54497 2.66019 2.10258 2.10258 2.66019 1.54497 2.97349 0.788579 2.97349 0 2.97349-0.788579 2.66019-1.54497 2.10258-2.10258 1.54497-2.66019 0.788579-2.97349 0-2.97349-0.788579-2.97349-1.54497-2.66019-2.10258-2.10258-2.66019-1.54497-2.97349-0.788579-2.97349 0-2.97349 0.788579-2.66019 1.54497-2.10258 2.10258-1.54497 2.66019-0.788579 2.97349 0 2.97349Z" stroke="#78D695" stroke-width="1.32979" stroke-linejoin="round" fill="#78D695" transform="matrix(1 0 0 1.00202 738.615 365.938)"/><path d="M0 2.97349C0.788579 2.97349 1.54497 2.66019 2.10258 2.10258 2.66019 1.54497 2.97349 0.788579 2.97349 0 2.97349-0.788579 2.66019-1.54497 2.10258-2.10258 1.54497-2.66019 0.788579-2.97349 0-2.97349-0.788579-2.97349-1.54497-2.66019-2.10258-2.10258-2.66019-1.54497-2.97349-0.788579-2.97349 0-2.97349 0.788579-2.66019 1.54497-2.10258 2.10258-1.54497 2.66019-0.788579 2.97349 0 2.97349Z" stroke="#78D695" stroke-width="1.32979" stroke-linejoin="round" fill="#78D695" transform="matrix(1 0 0 1.00202 692.691 263.991)"/><path d="M0 2.97349C0.788579 2.97349 1.54497 2.66019 2.10258 2.10258 2.66019 1.54497 2.97349 0.788579 2.97349 0 2.97349-0.788579 2.66019-1.54497 2.10258-2.10258 1.54497-2.66019 0.788579-2.97349 0-2.97349-0.788579-2.97349-1.54497-2.66019-2.10258-2.10258-2.66019-1.54497-2.97349-0.788579-2.97349 0-2.97349 0.788579-2.66019 1.54497-2.10258 2.10258-1.54497 2.66019-0.788579 2.97349 0 2.97349Z" stroke="#78D695" stroke-width="1.32979" stroke-linejoin="round" fill="#78D695" transform="matrix(1 0 0 1.00202 625.146 347.57)"/><path d="M0 2.97349C0.788579 2.97349 1.54497 2.66019 2.10258 2.10258 2.66019 1.54497 2.97349 0.788579 2.97349 0 2.97349-0.788579 2.66019-1.54497 2.10258-2.10258 1.54497-2.66019 0.788579-2.97349 0-2.97349-0.788579-2.97349-1.54497-2.66019-2.10258-2.10258-2.66019-1.54497-2.97349-0.788579-2.97349 0-2.97349 0.788579-2.66019 1.54497-2.10258 2.10258-1.54497 2.66019-0.788579 2.97349 0 2.97349Z" stroke="#78D695" stroke-width="1.32979" stroke-linejoin="round" fill="#78D695" transform="matrix(1 0 0 1.00202 629.404 285.351)"/><path d="M0 2.97349C0.788579 2.97349 1.54497 2.66019 2.10258 2.10258 2.66019 1.54497 2.97349 0.788579 2.97349 0 2.97349-0.788579 2.66019-1.54497 2.10258-2.10258 1.54497-2.66019 0.788579-2.97349 0-2.97349-0.788579-2.97349-1.54497-2.66019-2.10258-2.10258-2.66019-1.54497-2.97349-0.788579-2.97349 0-2.97349 0.788579-2.66019 1.54497-2.10258 2.10258-1.54497 2.66019-0.788579 2.97349 0 2.97349Z" stroke="#78D695" stroke-width="1.32979" stroke-linejoin="round" fill="#78D695" transform="matrix(1 0 0 1.00202 758.208 352.786)"/><path d="M0 2.97349C0.788579 2.97349 1.54497 2.66019 2.10258 2.10258 2.66019 1.54497 2.97349 0.788579 2.97349 0 2.97349-0.788579 2.66019-1.54497 2.10258-2.10258 1.54497-2.66019 0.788579-2.97349 0-2.97349-0.788579-2.97349-1.54497-2.66019-2.10258-2.10258-2.66019-1.54497-2.97349-0.788579-2.97349 0-2.97349 0.788579-2.66019 1.54497-2.10258 2.10258-1.54497 2.66019-0.788579 2.97349 0 2.97349Z" stroke="#78D695" stroke-width="1.32979" stroke-linejoin="round" fill="#78D695" transform="matrix(1 0 0 1.00202 676.899 265.499)"/><path d="M0 2.97349C0.788579 2.97349 1.54497 2.66019 2.10258 2.10258 2.66019 1.54497 2.97349 0.788579 2.97349 0 2.97349-0.788579 2.66019-1.54497 2.10258-2.10258 1.54497-2.66019 0.788579-2.97349 0-2.97349-0.788579-2.97349-1.54497-2.66019-2.10258-2.10258-2.66019-1.54497-2.97349-0.788579-2.97349 0-2.97349 0.788579-2.66019 1.54497-2.10258 2.10258-1.54497 2.66019-0.788579 2.97349 0 2.97349Z" stroke="#78D695" stroke-width="1.32979" stroke-linejoin="round" fill="#78D695" transform="matrix(1 0 0 1.00202 705.99 386.017)"/><path d="M0 2.97349C0.788579 2.97349 1.54497 2.66019 2.10258 2.10258 2.66019 1.54497 2.97349 0.788579 2.97349 0 2.97349-0.788579 2.66019-1.54497 2.10258-2.10258 1.54497-2.66019 0.788579-2.97349 0-2.97349-0.788579-2.97349-1.54497-2.66019-2.10258-2.10258-2.66019-1.54497-2.97349-0.788579-2.97349 0-2.97349 0.788579-2.66019 1.54497-2.10258 2.10258-1.54497 2.66019-0.788579 2.97349 0 2.97349Z" stroke="#78D695" stroke-width="1.32979" stroke-linejoin="round" fill="#78D695" transform="matrix(1 0 0 1.00202 727.75 334.487)"/><path d="M0 2.97349C0.788579 2.97349 1.54497 2.66019 2.10258 2.10258 2.66019 1.54497 2.97349 0.788579 2.97349 0 2.97349-0.788579 2.66019-1.54497 2.10258-2.10258 1.54497-2.66019 0.788579-2.97349 0-2.97349-0.788579-2.97349-1.54497-2.66019-2.10258-2.10258-2.66019-1.54497-2.97349-0.788579-2.97349 0-2.97349 0.788579-2.66019 1.54497-2.10258 2.10258-1.54497 2.66019-0.788579 2.97349 0 2.97349Z" stroke="#78D695" stroke-width="1.32979" stroke-linejoin="round" fill="#78D695" transform="matrix(1 0 0 1.00202 632.735 265.003)"/><path d="M0 2.97349C0.788579 2.97349 1.54497 2.66019 2.10258 2.10258 2.66019 1.54497 2.97349 0.788579 2.97349 0 2.97349-0.788579 2.66019-1.54497 2.10258-2.10258 1.54497-2.66019 0.788579-2.97349 0-2.97349-0.788579-2.97349-1.54497-2.66019-2.10258-2.10258-2.66019-1.54497-2.97349-0.788579-2.97349 0-2.97349 0.788579-2.66019 1.54497-2.10258 2.10258-1.54497 2.66019-0.788579 2.97349 0 2.97349Z" stroke="#78D695" stroke-width="1.32979" stroke-linejoin="round" fill="#78D695" transform="matrix(1 0 0 1.00202 607.975 256.545)"/><path d="M0 2.97349C0.788579 2.97349 1.54497 2.66019 2.10258 2.10258 2.66019 1.54497 2.97349 0.788579 2.97349 0 2.97349-0.788579 2.66019-1.54497 2.10258-2.10258 1.54497-2.66019 0.788579-2.97349 0-2.97349-0.788579-2.97349-1.54497-2.66019-2.10258-2.10258-2.66019-1.54497-2.97349-0.788579-2.97349 0-2.97349 0.788579-2.66019 1.54497-2.10258 2.10258-1.54497 2.66019-0.788579 2.97349 0 2.97349Z" stroke="#78D695" stroke-width="1.32979" stroke-linejoin="round" fill="#78D695" transform="matrix(1 0 0 1.00202 704.619 277.875)"/><path d="M0 2.97349C0.788579 2.97349 1.54497 2.66019 2.10258 2.10258 2.66019 1.54497 2.97349 0.788579 2.97349 0 2.97349-0.788579 2.66019-1.54497 2.10258-2.10258 1.54497-2.66019 0.788579-2.97349 0-2.97349-0.788579-2.97349-1.54497-2.66019-2.10258-2.10258-2.66019-1.54497-2.97349-0.788579-2.97349 0-2.97349 0.788579-2.66019 1.54497-2.10258 2.10258-1.54497 2.66019-0.788579 2.97349 0 2.97349Z" stroke="#78D695" stroke-width="1.32979" stroke-linejoin="round" fill="#78D695" transform="matrix(1 0 0 1.00202 750.276 351.135)"/><path d="M0 2.97349C0.788579 2.97349 1.54497 2.66019 2.10258 2.10258 2.66019 1.54497 2.97349 0.788579 2.97349 0 2.97349-0.788579 2.66019-1.54497 2.10258-2.10258 1.54497-2.66019 0.788579-2.97349 0-2.97349-0.788579-2.97349-1.54497-2.66019-2.10258-2.10258-2.66019-1.54497-2.97349-0.788579-2.97349 0-2.97349 0.788579-2.66019 1.54497-2.10258 2.10258-1.54497 2.66019-0.788579 2.97349 0 2.97349Z" stroke="#78D695" stroke-width="1.32979" stroke-linejoin="round" fill="#78D695" transform="matrix(1 0 0 1.00202 765.881 378.986)"/><path d="M0 2.97349C0.788579 2.97349 1.54497 2.66019 2.10258 2.10258 2.66019 1.54497 2.97349 0.788579 2.97349 0 2.97349-0.788579 2.66019-1.54497 2.10258-2.10258 1.54497-2.66019 0.788579-2.97349 0-2.97349-0.788579-2.97349-1.54497-2.66019-2.10258-2.10258-2.66019-1.54497-2.97349-0.788579-2.97349 0-2.97349 0.788579-2.66019 1.54497-2.10258 2.10258-1.54497 2.66019-0.788579 2.97349 0 2.97349Z" stroke="#78D695" stroke-width="1.32979" stroke-linejoin="round" fill="#78D695" transform="matrix(1 0 0 1.00202 684.706 277.182)"/><path d="M0 2.97349C0.788579 2.97349 1.54497 2.66019 2.10258 2.10258 2.66019 1.54497 2.97349 0.788579 2.97349 0 2.97349-0.788579 2.66019-1.54497 2.10258-2.10258 1.54497-2.66019 0.788579-2.97349 0-2.97349-0.788579-2.97349-1.54497-2.66019-2.10258-2.10258-2.66019-1.54497-2.97349-0.788579-2.97349 0-2.97349 0.788579-2.66019 1.54497-2.10258 2.10258-1.54497 2.66019-0.788579 2.97349 0 2.97349Z" stroke="#78D695" stroke-width="1.32979" stroke-linejoin="round" fill="#78D695" transform="matrix(1 0 0 1.00202 660.913 324.718)"/><path d="M0 2.97349C0.788579 2.97349 1.54497 2.66019 2.10258 2.10258 2.66019 1.54497 2.97349 0.788579 2.97349 0 2.97349-0.788579 2.66019-1.54497 2.10258-2.10258 1.54497-2.66019 0.788579-2.97349 0-2.97349-0.788579-2.97349-1.54497-2.66019-2.10258-2.10258-2.66019-1.54497-2.97349-0.788579-2.97349 0-2.97349 0.788579-2.66019 1.54497-2.10258 2.10258-1.54497 2.66019-0.788579 2.97349 0 2.97349Z" stroke="#78D695" stroke-width="1.32979" stroke-linejoin="round" fill="#78D695" transform="matrix(1 0 0 1.00202 645.16 253.18)"/><path d="M0 2.97349C0.788579 2.97349 1.54497 2.66019 2.10258 2.10258 2.66019 1.54497 2.97349 0.788579 2.97349 0 2.97349-0.788579 2.66019-1.54497 2.10258-2.10258 1.54497-2.66019 0.788579-2.97349 0-2.97349-0.788579-2.97349-1.54497-2.66019-2.10258-2.10258-2.66019-1.54497-2.97349-0.788579-2.97349 0-2.97349 0.788579-2.66019 1.54497-2.10258 2.10258-1.54497 2.66019-0.788579 2.97349 0 2.97349Z" stroke="#78D695" stroke-width="1.32979" stroke-linejoin="round" fill="#78D695" transform="matrix(1 0 0 1.00202 691.219 306.248)"/><path d="M0 2.97349C0.788579 2.97349 1.54497 2.66019 2.10258 2.10258 2.66019 1.54497 2.97349 0.788579 2.97349 0 2.97349-0.788579 2.66019-1.54497 2.10258-2.10258 1.54497-2.66019 0.788579-2.97349 0-2.97349-0.788579-2.97349-1.54497-2.66019-2.10258-2.10258-2.66019-1.54497-2.97349-0.788579-2.97349 0-2.97349 0.788579-2.66019 1.54497-2.10258 2.10258-1.54497 2.66019-0.788579 2.97349 0 2.97349Z" stroke="#78D695" stroke-width="1.32979" stroke-linejoin="round" fill="#78D695" transform="matrix(1 0 0 1.00202 631.278 287.988)"/><path d="M0 2.97349C0.788579 2.97349 1.54497 2.66019 2.10258 2.10258 2.66019 1.54497 2.97349 0.788579 2.97349 0 2.97349-0.788579 2.66019-1.54497 2.10258-2.10258 1.54497-2.66019 0.788579-2.97349 0-2.97349-0.788579-2.97349-1.54497-2.66019-2.10258-2.10258-2.66019-1.54497-2.97349-0.788579-2.97349 0-2.97349 0.788579-2.66019 1.54497-2.10258 2.10258-1.54497 2.66019-0.788579 2.97349 0 2.97349Z" stroke="#78D695" stroke-width="1.32979" stroke-linejoin="round" fill="#78D695" transform="matrix(1 0 0 1.00202 732.812 286.125)"/><path d="M0 2.97349C0.788579 2.97349 1.54497 2.66019 2.10258 2.10258 2.66019 1.54497 2.97349 0.788579 2.97349 0 2.97349-0.788579 2.66019-1.54497 2.10258-2.10258 1.54497-2.66019 0.788579-2.97349 0-2.97349-0.788579-2.97349-1.54497-2.66019-2.10258-2.10258-2.66019-1.54497-2.97349-0.788579-2.97349 0-2.97349 0.788579-2.66019 1.54497-2.10258 2.10258-1.54497 2.66019-0.788579 2.97349 0 2.97349Z" stroke="#78D695" stroke-width="1.32979" stroke-linejoin="round" fill="#78D695" transform="matrix(1 0 0 1.00202 721.413 353.972)"/><path d="M0 2.97349C0.788579 2.97349 1.54497 2.66019 2.10258 2.10258 2.66019 1.54497 2.97349 0.788579 2.97349 0 2.97349-0.788579 2.66019-1.54497 2.10258-2.10258 1.54497-2.66019 0.788579-2.97349 0-2.97349-0.788579-2.97349-1.54497-2.66019-2.10258-2.10258-2.66019-1.54497-2.97349-0.788579-2.97349 0-2.97349 0.788579-2.66019 1.54497-2.10258 2.10258-1.54497 2.66019-0.788579 2.97349 0 2.97349Z" stroke="#78D695" stroke-width="1.32979" stroke-linejoin="round" fill="#78D695" transform="matrix(1 0 0 1.00202 649.534 268.581)"/><path d="M0 2.97349C0.788579 2.97349 1.54497 2.66019 2.10258 2.10258 2.66019 1.54497 2.97349 0.788579 2.97349 0 2.97349-0.788579 2.66019-1.54497 2.10258-2.10258 1.54497-2.66019 0.788579-2.97349 0-2.97349-0.788579-2.97349-1.54497-2.66019-2.10258-2.10258-2.66019-1.54497-2.97349-0.788579-2.97349 0-2.97349 0.788579-2.66019 1.54497-2.10258 2.10258-1.54497 2.66019-0.788579 2.97349 0 2.97349Z" stroke="#78D695" stroke-width="1.32979" stroke-linejoin="round" fill="#78D695" transform="matrix(1 0 0 1.00202 673.415 251.506)"/><path d="M0 2.97349C0.788579 2.97349 1.54497 2.66019 2.10258 2.10258 2.66019 1.54497 2.97349 0.788579 2.97349 0 2.97349-0.788579 2.66019-1.54497 2.10258-2.10258 1.54497-2.66019 0.788579-2.97349 0-2.97349-0.788579-2.97349-1.54497-2.66019-2.10258-2.10258-2.66019-1.54497-2.97349-0.788579-2.97349 0-2.97349 0.788579-2.66019 1.54497-2.10258 2.10258-1.54497 2.66019-0.788579 2.97349 0 2.97349Z" stroke="#78D695" stroke-width="1.32979" stroke-linejoin="round" fill="#78D695" transform="matrix(1 0 0 1.00202 646.78 347.151)"/><path d="M0 2.97349C0.788579 2.97349 1.54497 2.66019 2.10258 2.10258 2.66019 1.54497 2.97349 0.788579 2.97349 0 2.97349-0.788579 2.66019-1.54497 2.10258-2.10258 1.54497-2.66019 0.788579-2.97349 0-2.97349-0.788579-2.97349-1.54497-2.66019-2.10258-2.10258-2.66019-1.54497-2.97349-0.788579-2.97349 0-2.97349 0.788579-2.66019 1.54497-2.10258 2.10258-1.54497 2.66019-0.788579 2.97349 0 2.97349Z" stroke="#78D695" stroke-width="1.32979" stroke-linejoin="round" fill="#78D695" transform="matrix(1 0 0 1.00202 739.373 306.708)"/><path d="M0 2.97349C0.788579 2.97349 1.54497 2.66019 2.10258 2.10258 2.66019 1.54497 2.97349 0.788579 2.97349 0 2.97349-0.788579 2.66019-1.54497 2.10258-2.10258 1.54497-2.66019 0.788579-2.97349 0-2.97349-0.788579-2.97349-1.54497-2.66019-2.10258-2.10258-2.66019-1.54497-2.97349-0.788579-2.97349 0-2.97349 0.788579-2.66019 1.54497-2.10258 2.10258-1.54497 2.66019-0.788579 2.97349 0 2.97349Z" stroke="#78D695" stroke-width="1.32979" stroke-linejoin="round" fill="#78D695" transform="matrix(1 0 0 1.00202 659.056 250.843)"/><path d="M0 2.97349C0.788579 2.97349 1.54497 2.66019 2.10258 2.10258 2.66019 1.54497 2.97349 0.788579 2.97349 0 2.97349-0.788579 2.66019-1.54497 2.10258-2.10258 1.54497-2.66019 0.788579-2.97349 0-2.97349-0.788579-2.97349-1.54497-2.66019-2.10258-2.10258-2.66019-1.54497-2.97349-0.788579-2.97349 0-2.97349 0.788579-2.66019 1.54497-2.10258 2.10258-1.54497 2.66019-0.788579 2.97349 0 2.97349Z" stroke="#78D695" stroke-width="1.32979" stroke-linejoin="round" fill="#78D695" transform="matrix(1 0 0 1.00202 678.086 242.385)"/><path d="M0 2.97349C0.788579 2.97349 1.54497 2.66019 2.10258 2.10258 2.66019 1.54497 2.97349 0.788579 2.97349 0 2.97349-0.788579 2.66019-1.54497 2.10258-2.10258 1.54497-2.66019 0.788579-2.97349 0-2.97349-0.788579-2.97349-1.54497-2.66019-2.10258-2.10258-2.66019-1.54497-2.97349-0.788579-2.97349 0-2.97349 0.788579-2.66019 1.54497-2.10258 2.10258-1.54497 2.66019-0.788579 2.97349 0 2.97349Z" stroke="#78D695" stroke-width="1.32979" stroke-linejoin="round" fill="#78D695" transform="matrix(1 0 0 1.00202 719.057 269.367)"/><path d="M0 2.97349C0.788579 2.97349 1.54497 2.66019 2.10258 2.10258 2.66019 1.54497 2.97349 0.788579 2.97349 0 2.97349-0.788579 2.66019-1.54497 2.10258-2.10258 1.54497-2.66019 0.788579-2.97349 0-2.97349-0.788579-2.97349-1.54497-2.66019-2.10258-2.10258-2.66019-1.54497-2.97349-0.788579-2.97349 0-2.97349 0.788579-2.66019 1.54497-2.10258 2.10258-1.54497 2.66019-0.788579 2.97349 0 2.97349Z" stroke="#78D695" stroke-width="1.32979" stroke-linejoin="round" fill="#78D695" transform="matrix(1 0 0 1.00202 651.693 277.039)"/><path d="M0 2.97349C0.788579 2.97349 1.54497 2.66019 2.10258 2.10258 2.66019 1.54497 2.97349 0.788579 2.97349 0 2.97349-0.788579 2.66019-1.54497 2.10258-2.10258 1.54497-2.66019 0.788579-2.97349 0-2.97349-0.788579-2.97349-1.54497-2.66019-2.10258-2.10258-2.66019-1.54497-2.97349-0.788579-2.97349 0-2.97349 0.788579-2.66019 1.54497-2.10258 2.10258-1.54497 2.66019-0.788579 2.97349 0 2.97349Z" stroke="#78D695" stroke-width="1.32979" stroke-linejoin="round" fill="#78D695" transform="matrix(1 0 0 1.00202 717.317 262.233)"/></g><g clip-path="url(#clip5)"><path d="M0 2.97349C0.788579 2.97349 1.54497 2.66019 2.10258 2.10258 2.66019 1.54497 2.97349 0.788579 2.97349 0 2.97349-0.788579 2.66019-1.54497 2.10258-2.10258 1.54497-2.66019 0.788579-2.97349 0-2.97349-0.788579-2.97349-1.54497-2.66019-2.10258-2.10258-2.66019-1.54497-2.97349-0.788579-2.97349 0-2.97349 0.788579-2.66019 1.54497-2.10258 2.10258-1.54497 2.66019-0.788579 2.97349 0 2.97349Z" stroke="#78D695" stroke-width="1.32979" stroke-linejoin="round" fill="#78D695" transform="matrix(1 0 0 1.00202 657.356 517.648)"/><path d="M0 2.97349C0.788579 2.97349 1.54497 2.66019 2.10258 2.10258 2.66019 1.54497 2.97349 0.788579 2.97349 0 2.97349-0.788579 2.66019-1.54497 2.10258-2.10258 1.54497-2.66019 0.788579-2.97349 0-2.97349-0.788579-2.97349-1.54497-2.66019-2.10258-2.10258-2.66019-1.54497-2.97349-0.788579-2.97349 0-2.97349 0.788579-2.66019 1.54497-2.10258 2.10258-1.54497 2.66019-0.788579 2.97349 0 2.97349Z" stroke="#78D695" stroke-width="1.32979" stroke-linejoin="round" fill="#78D695" transform="matrix(1 0 0 1.00202 554.097 497.329)"/><path d="M0 2.97349C0.788579 2.97349 1.54497 2.66019 2.10258 2.10258 2.66019 1.54497 2.97349 0.788579 2.97349 0 2.97349-0.788579 2.66019-1.54497 2.10258-2.10258 1.54497-2.66019 0.788579-2.97349 0-2.97349-0.788579-2.97349-1.54497-2.66019-2.10258-2.10258-2.66019-1.54497-2.97349-0.788579-2.97349 0-2.97349 0.788579-2.66019 1.54497-2.10258 2.10258-1.54497 2.66019-0.788579 2.97349 0 2.97349Z" stroke="#78D695" stroke-width="1.32979" stroke-linejoin="round" fill="#78D695" transform="matrix(1 0 0 1.00202 493.108 416.704)"/><path d="M0 2.97349C0.788579 2.97349 1.54497 2.66019 2.10258 2.10258 2.66019 1.54497 2.97349 0.788579 2.97349 0 2.97349-0.788579 2.66019-1.54497 2.10258-2.10258 1.54497-2.66019 0.788579-2.97349 0-2.97349-0.788579-2.97349-1.54497-2.66019-2.10258-2.10258-2.66019-1.54497-2.97349-0.788579-2.97349 0-2.97349 0.788579-2.66019 1.54497-2.10258 2.10258-1.54497 2.66019-0.788579 2.97349 0 2.97349Z" stroke="#78D695" stroke-width="1.32979" stroke-linejoin="round" fill="#78D695" transform="matrix(1 0 0 1.00202 478.11 327.981)"/><path d="M0 2.97349C0.788579 2.97349 1.54497 2.66019 2.10258 2.10258 2.66019 1.54497 2.97349 0.788579 2.97349 0 2.97349-0.788579 2.66019-1.54497 2.10258-2.10258 1.54497-2.66019 0.788579-2.97349 0-2.97349-0.788579-2.97349-1.54497-2.66019-2.10258-2.10258-2.66019-1.54497-2.97349-0.788579-2.97349 0-2.97349 0.788579-2.66019 1.54497-2.10258 2.10258-1.54497 2.66019-0.788579 2.97349 0 2.97349Z" stroke="#78D695" stroke-width="1.32979" stroke-linejoin="round" fill="#78D695" transform="matrix(1 0 0 1.00202 486.155 362.419)"/><path d="M0 2.97349C0.788579 2.97349 1.54497 2.66019 2.10258 2.10258 2.66019 1.54497 2.97349 0.788579 2.97349 0 2.97349-0.788579 2.66019-1.54497 2.10258-2.10258 1.54497-2.66019 0.788579-2.97349 0-2.97349-0.788579-2.97349-1.54497-2.66019-2.10258-2.10258-2.66019-1.54497-2.97349-0.788579-2.97349 0-2.97349 0.788579-2.66019 1.54497-2.10258 2.10258-1.54497 2.66019-0.788579 2.97349 0 2.97349Z" stroke="#78D695" stroke-width="1.32979" stroke-linejoin="round" fill="#78D695" transform="matrix(1 0 0 1.00202 583.404 492.954)"/><path d="M0 2.97349C0.788579 2.97349 1.54497 2.66019 2.10258 2.10258 2.66019 1.54497 2.97349 0.788579 2.97349 0 2.97349-0.788579 2.66019-1.54497 2.10258-2.10258 1.54497-2.66019 0.788579-2.97349 0-2.97349-0.788579-2.97349-1.54497-2.66019-2.10258-2.10258-2.66019-1.54497-2.97349-0.788579-2.97349 0-2.97349 0.788579-2.66019 1.54497-2.10258 2.10258-1.54497 2.66019-0.788579 2.97349 0 2.97349Z" stroke="#78D695" stroke-width="1.32979" stroke-linejoin="round" fill="#78D695" transform="matrix(1 0 0 1.00202 552.879 472.438)"/><path d="M0 2.97349C0.788579 2.97349 1.54497 2.66019 2.10258 2.10258 2.66019 1.54497 2.97349 0.788579 2.97349 0 2.97349-0.788579 2.66019-1.54497 2.10258-2.10258 1.54497-2.66019 0.788579-2.97349 0-2.97349-0.788579-2.97349-1.54497-2.66019-2.10258-2.10258-2.66019-1.54497-2.97349-0.788579-2.97349 0-2.97349 0.788579-2.66019 1.54497-2.10258 2.10258-1.54497 2.66019-0.788579 2.97349 0 2.97349Z" stroke="#78D695" stroke-width="1.32979" stroke-linejoin="round" fill="#78D695" transform="matrix(1 0 0 1.00202 504.406 428.953)"/><path d="M0 2.97349C0.788579 2.97349 1.54497 2.66019 2.10258 2.10258 2.66019 1.54497 2.97349 0.788579 2.97349 0 2.97349-0.788579 2.66019-1.54497 2.10258-2.10258 1.54497-2.66019 0.788579-2.97349 0-2.97349-0.788579-2.97349-1.54497-2.66019-2.10258-2.10258-2.66019-1.54497-2.97349-0.788579-2.97349 0-2.97349 0.788579-2.66019 1.54497-2.10258 2.10258-1.54497 2.66019-0.788579 2.97349 0 2.97349Z" stroke="#78D695" stroke-width="1.32979" stroke-linejoin="round" fill="#78D695" transform="matrix(1 0 0 1.00202 764.446 293.254)"/><path d="M0 2.97349C0.788579 2.97349 1.54497 2.66019 2.10258 2.10258 2.66019 1.54497 2.97349 0.788579 2.97349 0 2.97349-0.788579 2.66019-1.54497 2.10258-2.10258 1.54497-2.66019 0.788579-2.97349 0-2.97349-0.788579-2.97349-1.54497-2.66019-2.10258-2.10258-2.66019-1.54497-2.97349-0.788579-2.97349 0-2.97349 0.788579-2.66019 1.54497-2.10258 2.10258-1.54497 2.66019-0.788579 2.97349 0 2.97349Z" stroke="#78D695" stroke-width="1.32979" stroke-linejoin="round" fill="#78D695" transform="matrix(1 0 0 1.00202 610.198 459.855)"/><path d="M0 2.97349C0.788579 2.97349 1.54497 2.66019 2.10258 2.10258 2.66019 1.54497 2.97349 0.788579 2.97349 0 2.97349-0.788579 2.66019-1.54497 2.10258-2.10258 1.54497-2.66019 0.788579-2.97349 0-2.97349-0.788579-2.97349-1.54497-2.66019-2.10258-2.10258-2.66019-1.54497-2.97349-0.788579-2.97349 0-2.97349 0.788579-2.66019 1.54497-2.10258 2.10258-1.54497 2.66019-0.788579 2.97349 0 2.97349Z" stroke="#78D695" stroke-width="1.32979" stroke-linejoin="round" fill="#78D695" transform="matrix(1 0 0 1.00202 632.497 515.085)"/><path d="M0 2.97349C0.788579 2.97349 1.54497 2.66019 2.10258 2.10258 2.66019 1.54497 2.97349 0.788579 2.97349 0 2.97349-0.788579 2.66019-1.54497 2.10258-2.10258 1.54497-2.66019 0.788579-2.97349 0-2.97349-0.788579-2.97349-1.54497-2.66019-2.10258-2.10258-2.66019-1.54497-2.97349-0.788579-2.97349 0-2.97349 0.788579-2.66019 1.54497-2.10258 2.10258-1.54497 2.66019-0.788579 2.97349 0 2.97349Z" stroke="#78D695" stroke-width="1.32979" stroke-linejoin="round" fill="#78D695" transform="matrix(1 0 0 1.00202 613.822 503.143)"/><path d="M0 2.97349C0.788579 2.97349 1.54497 2.66019 2.10258 2.10258 2.66019 1.54497 2.97349 0.788579 2.97349 0 2.97349-0.788579 2.66019-1.54497 2.10258-2.10258 1.54497-2.66019 0.788579-2.97349 0-2.97349-0.788579-2.97349-1.54497-2.66019-2.10258-2.10258-2.66019-1.54497-2.97349-0.788579-2.97349 0-2.97349 0.788579-2.66019 1.54497-2.10258 2.10258-1.54497 2.66019-0.788579 2.97349 0 2.97349Z" stroke="#78D695" stroke-width="1.32979" stroke-linejoin="round" fill="#78D695" transform="matrix(1 0 0 1.00202 493.614 352.933)"/><path d="M0 2.97349C0.788579 2.97349 1.54497 2.66019 2.10258 2.10258 2.66019 1.54497 2.97349 0.788579 2.97349 0 2.97349-0.788579 2.66019-1.54497 2.10258-2.10258 1.54497-2.66019 0.788579-2.97349 0-2.97349-0.788579-2.97349-1.54497-2.66019-2.10258-2.10258-2.66019-1.54497-2.97349-0.788579-2.97349 0-2.97349 0.788579-2.66019 1.54497-2.10258 2.10258-1.54497 2.66019-0.788579 2.97349 0 2.97349Z" stroke="#78D695" stroke-width="1.32979" stroke-linejoin="round" fill="#78D695" transform="matrix(1 0 0 1.00202 692.467 483.119)"/><path d="M0 2.97349C0.788579 2.97349 1.54497 2.66019 2.10258 2.10258 2.66019 1.54497 2.97349 0.788579 2.97349 0 2.97349-0.788579 2.66019-1.54497 2.10258-2.10258 1.54497-2.66019 0.788579-2.97349 0-2.97349-0.788579-2.97349-1.54497-2.66019-2.10258-2.10258-2.66019-1.54497-2.97349-0.788579-2.97349 0-2.97349 0.788579-2.66019 1.54497-2.10258 2.10258-1.54497 2.66019-0.788579 2.97349 0 2.97349Z" stroke="#78D695" stroke-width="1.32979" stroke-linejoin="round" fill="#78D695" transform="matrix(1 0 0 1.00202 658.917 502.148)"/><path d="M0 2.97349C0.788579 2.97349 1.54497 2.66019 2.10258 2.10258 2.66019 1.54497 2.97349 0.788579 2.97349 0 2.97349-0.788579 2.66019-1.54497 2.10258-2.10258 1.54497-2.66019 0.788579-2.97349 0-2.97349-0.788579-2.97349-1.54497-2.66019-2.10258-2.10258-2.66019-1.54497-2.97349-0.788579-2.97349 0-2.97349 0.788579-2.66019 1.54497-2.10258 2.10258-1.54497 2.66019-0.788579 2.97349 0 2.97349Z" stroke="#78D695" stroke-width="1.32979" stroke-linejoin="round" fill="#78D695" transform="matrix(1 0 0 1.00202 530.173 466.788)"/><path d="M0 2.97349C0.788579 2.97349 1.54497 2.66019 2.10258 2.10258 2.66019 1.54497 2.97349 0.788579 2.97349 0 2.97349-0.788579 2.66019-1.54497 2.10258-2.10258 1.54497-2.66019 0.788579-2.97349 0-2.97349-0.788579-2.97349-1.54497-2.66019-2.10258-2.10258-2.66019-1.54497-2.97349-0.788579-2.97349 0-2.97349 0.788579-2.66019 1.54497-2.10258 2.10258-1.54497 2.66019-0.788579 2.97349 0 2.97349Z" stroke="#78D695" stroke-width="1.32979" stroke-linejoin="round" fill="#78D695" transform="matrix(1 0 0 1.00202 688.979 424.549)"/><path d="M0 2.97349C0.788579 2.97349 1.54497 2.66019 2.10258 2.10258 2.66019 1.54497 2.97349 0.788579 2.97349 0 2.97349-0.788579 2.66019-1.54497 2.10258-2.10258 1.54497-2.66019 0.788579-2.97349 0-2.97349-0.788579-2.97349-1.54497-2.66019-2.10258-2.10258-2.66019-1.54497-2.97349-0.788579-2.97349 0-2.97349 0.788579-2.66019 1.54497-2.10258 2.10258-1.54497 2.66019-0.788579 2.97349 0 2.97349Z" stroke="#78D695" stroke-width="1.32979" stroke-linejoin="round" fill="#78D695" transform="matrix(1 0 0 1.00202 673.2 412.745)"/><path d="M0 2.97349C0.788579 2.97349 1.54497 2.66019 2.10258 2.10258 2.66019 1.54497 2.97349 0.788579 2.97349 0 2.97349-0.788579 2.66019-1.54497 2.10258-2.10258 1.54497-2.66019 0.788579-2.97349 0-2.97349-0.788579-2.97349-1.54497-2.66019-2.10258-2.10258-2.66019-1.54497-2.97349-0.788579-2.97349 0-2.97349 0.788579-2.66019 1.54497-2.10258 2.10258-1.54497 2.66019-0.788579 2.97349 0 2.97349Z" stroke="#78D695" stroke-width="1.32979" stroke-linejoin="round" fill="#78D695" transform="matrix(1 0 0 1.00202 499.333 315.454)"/><path d="M0 2.97349C0.788579 2.97349 1.54497 2.66019 2.10258 2.10258 2.66019 1.54497 2.97349 0.788579 2.97349 0 2.97349-0.788579 2.66019-1.54497 2.10258-2.10258 1.54497-2.66019 0.788579-2.97349 0-2.97349-0.788579-2.97349-1.54497-2.66019-2.10258-2.10258-2.66019-1.54497-2.97349-0.788579-2.97349 0-2.97349 0.788579-2.66019 1.54497-2.10258 2.10258-1.54497 2.66019-0.788579 2.97349 0 2.97349Z" stroke="#78D695" stroke-width="1.32979" stroke-linejoin="round" fill="#78D695" transform="matrix(1 0 0 1.00202 626.161 368.057)"/><path d="M0 2.97349C0.788579 2.97349 1.54497 2.66019 2.10258 2.10258 2.66019 1.54497 2.97349 0.788579 2.97349 0 2.97349-0.788579 2.66019-1.54497 2.10258-2.10258 1.54497-2.66019 0.788579-2.97349 0-2.97349-0.788579-2.97349-1.54497-2.66019-2.10258-2.10258-2.66019-1.54497-2.97349-0.788579-2.97349 0-2.97349 0.788579-2.66019 1.54497-2.10258 2.10258-1.54497 2.66019-0.788579 2.97349 0 2.97349Z" stroke="#78D695" stroke-width="1.32979" stroke-linejoin="round" fill="#78D695" transform="matrix(1 0 0 1.00202 554.433 454.302)"/><path d="M0 2.97349C0.788579 2.97349 1.54497 2.66019 2.10258 2.10258 2.66019 1.54497 2.97349 0.788579 2.97349 0 2.97349-0.788579 2.66019-1.54497 2.10258-2.10258 1.54497-2.66019 0.788579-2.97349 0-2.97349-0.788579-2.97349-1.54497-2.66019-2.10258-2.10258-2.66019-1.54497-2.97349-0.788579-2.97349 0-2.97349 0.788579-2.66019 1.54497-2.10258 2.10258-1.54497 2.66019-0.788579 2.97349 0 2.97349Z" stroke="#78D695" stroke-width="1.32979" stroke-linejoin="round" fill="#78D695" transform="matrix(1 0 0 1.00202 530.941 412.507)"/><path d="M0 2.97349C0.788579 2.97349 1.54497 2.66019 2.10258 2.10258 2.66019 1.54497 2.97349 0.788579 2.97349 0 2.97349-0.788579 2.66019-1.54497 2.10258-2.10258 1.54497-2.66019 0.788579-2.97349 0-2.97349-0.788579-2.97349-1.54497-2.66019-2.10258-2.10258-2.66019-1.54497-2.97349-0.788579-2.97349 0-2.97349 0.788579-2.66019 1.54497-2.10258 2.10258-1.54497 2.66019-0.788579 2.97349 0 2.97349Z" stroke="#78D695" stroke-width="1.32979" stroke-linejoin="round" fill="#78D695" transform="matrix(1 0 0 1.00202 480.978 306.32)"/><path d="M0 2.97349C0.788579 2.97349 1.54497 2.66019 2.10258 2.10258 2.66019 1.54497 2.97349 0.788579 2.97349 0 2.97349-0.788579 2.66019-1.54497 2.10258-2.10258 1.54497-2.66019 0.788579-2.97349 0-2.97349-0.788579-2.97349-1.54497-2.66019-2.10258-2.10258-2.66019-1.54497-2.97349-0.788579-2.97349 0-2.97349 0.788579-2.66019 1.54497-2.10258 2.10258-1.54497 2.66019-0.788579 2.97349 0 2.97349Z" stroke="#78D695" stroke-width="1.32979" stroke-linejoin="round" fill="#78D695" transform="matrix(1 0 0 1.00202 490.697 385.726)"/><path d="M0 2.97349C0.788579 2.97349 1.54497 2.66019 2.10258 2.10258 2.66019 1.54497 2.97349 0.788579 2.97349 0 2.97349-0.788579 2.66019-1.54497 2.10258-2.10258 1.54497-2.66019 0.788579-2.97349 0-2.97349-0.788579-2.97349-1.54497-2.66019-2.10258-2.10258-2.66019-1.54497-2.97349-0.788579-2.97349 0-2.97349 0.788579-2.66019 1.54497-2.10258 2.10258-1.54497 2.66019-0.788579 2.97349 0 2.97349Z" stroke="#78D695" stroke-width="1.32979" stroke-linejoin="round" fill="#78D695" transform="matrix(1 0 0 1.00202 601.65 480.246)"/><path d="M0 2.97349C0.788579 2.97349 1.54497 2.66019 2.10258 2.10258 2.66019 1.54497 2.97349 0.788579 2.97349 0 2.97349-0.788579 2.66019-1.54497 2.10258-2.10258 1.54497-2.66019 0.788579-2.97349 0-2.97349-0.788579-2.97349-1.54497-2.66019-2.10258-2.10258-2.66019-1.54497-2.97349-0.788579-2.97349 0-2.97349 0.788579-2.66019 1.54497-2.10258 2.10258-1.54497 2.66019-0.788579 2.97349 0 2.97349Z" stroke="#78D695" stroke-width="1.32979" stroke-linejoin="round" fill="#78D695" transform="matrix(1 0 0 1.00202 501.385 455.988)"/><path d="M0 2.97349C0.788579 2.97349 1.54497 2.66019 2.10258 2.10258 2.66019 1.54497 2.97349 0.788579 2.97349 0 2.97349-0.788579 2.66019-1.54497 2.10258-2.10258 1.54497-2.66019 0.788579-2.97349 0-2.97349-0.788579-2.97349-1.54497-2.66019-2.10258-2.10258-2.66019-1.54497-2.97349-0.788579-2.97349 0-2.97349 0.788579-2.66019 1.54497-2.10258 2.10258-1.54497 2.66019-0.788579 2.97349 0 2.97349Z" stroke="#78D695" stroke-width="1.32979" stroke-linejoin="round" fill="#78D695" transform="matrix(1 0 0 1.00202 614.927 449.224)"/><path d="M0 2.97349C0.788579 2.97349 1.54497 2.66019 2.10258 2.10258 2.66019 1.54497 2.97349 0.788579 2.97349 0 2.97349-0.788579 2.66019-1.54497 2.10258-2.10258 1.54497-2.66019 0.788579-2.97349 0-2.97349-0.788579-2.97349-1.54497-2.66019-2.10258-2.10258-2.66019-1.54497-2.97349-0.788579-2.97349 0-2.97349 0.788579-2.66019 1.54497-2.10258 2.10258-1.54497 2.66019-0.788579 2.97349 0 2.97349Z" stroke="#78D695" stroke-width="1.32979" stroke-linejoin="round" fill="#78D695" transform="matrix(1 0 0 1.00202 603.219 491.247)"/><path d="M0 2.97349C0.788579 2.97349 1.54497 2.66019 2.10258 2.10258 2.66019 1.54497 2.97349 0.788579 2.97349 0 2.97349-0.788579 2.66019-1.54497 2.10258-2.10258 1.54497-2.66019 0.788579-2.97349 0-2.97349-0.788579-2.97349-1.54497-2.66019-2.10258-2.10258-2.66019-1.54497-2.97349-0.788579-2.97349 0-2.97349 0.788579-2.66019 1.54497-2.10258 2.10258-1.54497 2.66019-0.788579 2.97349 0 2.97349Z" stroke="#78D695" stroke-width="1.32979" stroke-linejoin="round" fill="#78D695" transform="matrix(1 0 0 1.00202 635.903 367.455)"/><path d="M0 2.97349C0.788579 2.97349 1.54497 2.66019 2.10258 2.10258 2.66019 1.54497 2.97349 0.788579 2.97349 0 2.97349-0.788579 2.66019-1.54497 2.10258-2.10258 1.54497-2.66019 0.788579-2.97349 0-2.97349-0.788579-2.97349-1.54497-2.66019-2.10258-2.10258-2.66019-1.54497-2.97349-0.788579-2.97349 0-2.97349 0.788579-2.66019 1.54497-2.10258 2.10258-1.54497 2.66019-0.788579 2.97349 0 2.97349Z" stroke="#78D695" stroke-width="1.32979" stroke-linejoin="round" fill="#78D695" transform="matrix(1 0 0 1.00202 710.416 493.132)"/><path d="M0 2.97349C0.788579 2.97349 1.54497 2.66019 2.10258 2.10258 2.66019 1.54497 2.97349 0.788579 2.97349 0 2.97349-0.788579 2.66019-1.54497 2.10258-2.10258 1.54497-2.66019 0.788579-2.97349 0-2.97349-0.788579-2.97349-1.54497-2.66019-2.10258-2.10258-2.66019-1.54497-2.97349-0.788579-2.97349 0-2.97349 0.788579-2.66019 1.54497-2.10258 2.10258-1.54497 2.66019-0.788579 2.97349 0 2.97349Z" stroke="#78D695" stroke-width="1.32979" stroke-linejoin="round" fill="#78D695" transform="matrix(1 0 0 1.00202 492.525 318.8)"/><path d="M0 2.97349C0.788579 2.97349 1.54497 2.66019 2.10258 2.10258 2.66019 1.54497 2.97349 0.788579 2.97349 0 2.97349-0.788579 2.66019-1.54497 2.10258-2.10258 1.54497-2.66019 0.788579-2.97349 0-2.97349-0.788579-2.97349-1.54497-2.66019-2.10258-2.10258-2.66019-1.54497-2.97349-0.788579-2.97349 0-2.97349 0.788579-2.66019 1.54497-2.10258 2.10258-1.54497 2.66019-0.788579 2.97349 0 2.97349Z" stroke="#78D695" stroke-width="1.32979" stroke-linejoin="round" fill="#78D695" transform="matrix(1 0 0 1.00202 496.431 401.326)"/><path d="M0 2.97349C0.788579 2.97349 1.54497 2.66019 2.10258 2.10258 2.66019 1.54497 2.97349 0.788579 2.97349 0 2.97349-0.788579 2.66019-1.54497 2.10258-2.10258 1.54497-2.66019 0.788579-2.97349 0-2.97349-0.788579-2.97349-1.54497-2.66019-2.10258-2.10258-2.66019-1.54497-2.97349-0.788579-2.97349 0-2.97349 0.788579-2.66019 1.54497-2.10258 2.10258-1.54497 2.66019-0.788579 2.97349 0 2.97349Z" stroke="#78D695" stroke-width="1.32979" stroke-linejoin="round" fill="#78D695" transform="matrix(1 0 0 1.00202 654.428 493.478)"/><path d="M0 2.97349C0.788579 2.97349 1.54497 2.66019 2.10258 2.10258 2.66019 1.54497 2.97349 0.788579 2.97349 0 2.97349-0.788579 2.66019-1.54497 2.10258-2.10258 1.54497-2.66019 0.788579-2.97349 0-2.97349-0.788579-2.97349-1.54497-2.66019-2.10258-2.10258-2.66019-1.54497-2.97349-0.788579-2.97349 0-2.97349 0.788579-2.66019 1.54497-2.10258 2.10258-1.54497 2.66019-0.788579 2.97349 0 2.97349Z" stroke="#78D695" stroke-width="1.32979" stroke-linejoin="round" fill="#78D695" transform="matrix(1 0 0 1.00202 609.468 356.371)"/><path d="M0 2.97349C0.788579 2.97349 1.54497 2.66019 2.10258 2.10258 2.66019 1.54497 2.97349 0.788579 2.97349 0 2.97349-0.788579 2.66019-1.54497 2.10258-2.10258 1.54497-2.66019 0.788579-2.97349 0-2.97349-0.788579-2.97349-1.54497-2.66019-2.10258-2.10258-2.66019-1.54497-2.97349-0.788579-2.97349 0-2.97349 0.788579-2.66019 1.54497-2.10258 2.10258-1.54497 2.66019-0.788579 2.97349 0 2.97349Z" stroke="#78D695" stroke-width="1.32979" stroke-linejoin="round" fill="#78D695" transform="matrix(1 0 0 1.00202 738.433 467.179)"/><path d="M0 2.97349C0.788579 2.97349 1.54497 2.66019 2.10258 2.10258 2.66019 1.54497 2.97349 0.788579 2.97349 0 2.97349-0.788579 2.66019-1.54497 2.10258-2.10258 1.54497-2.66019 0.788579-2.97349 0-2.97349-0.788579-2.97349-1.54497-2.66019-2.10258-2.10258-2.66019-1.54497-2.97349-0.788579-2.97349 0-2.97349 0.788579-2.66019 1.54497-2.10258 2.10258-1.54497 2.66019-0.788579 2.97349 0 2.97349Z" stroke="#78D695" stroke-width="1.32979" stroke-linejoin="round" fill="#78D695" transform="matrix(1 0 0 1.00202 514.834 436.04)"/><path d="M0 2.97349C0.788579 2.97349 1.54497 2.66019 2.10258 2.10258 2.66019 1.54497 2.97349 0.788579 2.97349 0 2.97349-0.788579 2.66019-1.54497 2.10258-2.10258 1.54497-2.66019 0.788579-2.97349 0-2.97349-0.788579-2.97349-1.54497-2.66019-2.10258-2.10258-2.66019-1.54497-2.97349-0.788579-2.97349 0-2.97349 0.788579-2.66019 1.54497-2.10258 2.10258-1.54497 2.66019-0.788579 2.97349 0 2.97349Z" stroke="#78D695" stroke-width="1.32979" stroke-linejoin="round" fill="#78D695" transform="matrix(1 0 0 1.00202 528.362 488.458)"/><path d="M0 2.97349C0.788579 2.97349 1.54497 2.66019 2.10258 2.10258 2.66019 1.54497 2.97349 0.788579 2.97349 0 2.97349-0.788579 2.66019-1.54497 2.10258-2.10258 1.54497-2.66019 0.788579-2.97349 0-2.97349-0.788579-2.97349-1.54497-2.66019-2.10258-2.10258-2.66019-1.54497-2.97349-0.788579-2.97349 0-2.97349 0.788579-2.66019 1.54497-2.10258 2.10258-1.54497 2.66019-0.788579 2.97349 0 2.97349Z" stroke="#78D695" stroke-width="1.32979" stroke-linejoin="round" fill="#78D695" transform="matrix(1 0 0 1.00202 534.466 433.687)"/><path d="M0 2.97349C0.788579 2.97349 1.54497 2.66019 2.10258 2.10258 2.66019 1.54497 2.97349 0.788579 2.97349 0 2.97349-0.788579 2.66019-1.54497 2.10258-2.10258 1.54497-2.66019 0.788579-2.97349 0-2.97349-0.788579-2.97349-1.54497-2.66019-2.10258-2.10258-2.66019-1.54497-2.97349-0.788579-2.97349 0-2.97349 0.788579-2.66019 1.54497-2.10258 2.10258-1.54497 2.66019-0.788579 2.97349 0 2.97349Z" stroke="#78D695" stroke-width="1.32979" stroke-linejoin="round" fill="#78D695" transform="matrix(1 0 0 1.00202 487.788 355.613)"/><path d="M0 2.97349C0.788579 2.97349 1.54497 2.66019 2.10258 2.10258 2.66019 1.54497 2.97349 0.788579 2.97349 0 2.97349-0.788579 2.66019-1.54497 2.10258-2.10258 1.54497-2.66019 0.788579-2.97349 0-2.97349-0.788579-2.97349-1.54497-2.66019-2.10258-2.10258-2.66019-1.54497-2.97349-0.788579-2.97349 0-2.97349 0.788579-2.66019 1.54497-2.10258 2.10258-1.54497 2.66019-0.788579 2.97349 0 2.97349Z" stroke="#78D695" stroke-width="1.32979" stroke-linejoin="round" fill="#78D695" transform="matrix(1 0 0 1.00202 623.559 228.921)"/><path d="M0 2.97349C0.788579 2.97349 1.54497 2.66019 2.10258 2.10258 2.66019 1.54497 2.97349 0.788579 2.97349 0 2.97349-0.788579 2.66019-1.54497 2.10258-2.10258 1.54497-2.66019 0.788579-2.97349 0-2.97349-0.788579-2.97349-1.54497-2.66019-2.10258-2.10258-2.66019-1.54497-2.97349-0.788579-2.97349 0-2.97349 0.788579-2.66019 1.54497-2.10258 2.10258-1.54497 2.66019-0.788579 2.97349 0 2.97349Z" stroke="#78D695" stroke-width="1.32979" stroke-linejoin="round" fill="#78D695" transform="matrix(1 0 0 1.00202 633.828 477.291)"/><path d="M0 2.97349C0.788579 2.97349 1.54497 2.66019 2.10258 2.10258 2.66019 1.54497 2.97349 0.788579 2.97349 0 2.97349-0.788579 2.66019-1.54497 2.10258-2.10258 1.54497-2.66019 0.788579-2.97349 0-2.97349-0.788579-2.97349-1.54497-2.66019-2.10258-2.10258-2.66019-1.54497-2.97349-0.788579-2.97349 0-2.97349 0.788579-2.66019 1.54497-2.10258 2.10258-1.54497 2.66019-0.788579 2.97349 0 2.97349Z" stroke="#78D695" stroke-width="1.32979" stroke-linejoin="round" fill="#78D695" transform="matrix(1 0 0 1.00202 588.815 488.163)"/><path d="M0 2.97349C0.788579 2.97349 1.54497 2.66019 2.10258 2.10258 2.66019 1.54497 2.97349 0.788579 2.97349 0 2.97349-0.788579 2.66019-1.54497 2.10258-2.10258 1.54497-2.66019 0.788579-2.97349 0-2.97349-0.788579-2.97349-1.54497-2.66019-2.10258-2.10258-2.66019-1.54497-2.97349-0.788579-2.97349 0-2.97349 0.788579-2.66019 1.54497-2.10258 2.10258-1.54497 2.66019-0.788579 2.97349 0 2.97349Z" stroke="#78D695" stroke-width="1.32979" stroke-linejoin="round" fill="#78D695" transform="matrix(1 0 0 1.00202 476.067 366.254)"/><path d="M0 2.97349C0.788579 2.97349 1.54497 2.66019 2.10258 2.10258 2.66019 1.54497 2.97349 0.788579 2.97349 0 2.97349-0.788579 2.66019-1.54497 2.10258-2.10258 1.54497-2.66019 0.788579-2.97349 0-2.97349-0.788579-2.97349-1.54497-2.66019-2.10258-2.10258-2.66019-1.54497-2.97349-0.788579-2.97349 0-2.97349 0.788579-2.66019 1.54497-2.10258 2.10258-1.54497 2.66019-0.788579 2.97349 0 2.97349Z" stroke="#78D695" stroke-width="1.32979" stroke-linejoin="round" fill="#78D695" transform="matrix(1 0 0 1.00202 503.945 401.513)"/><path d="M0 2.97349C0.788579 2.97349 1.54497 2.66019 2.10258 2.10258 2.66019 1.54497 2.97349 0.788579 2.97349 0 2.97349-0.788579 2.66019-1.54497 2.10258-2.10258 1.54497-2.66019 0.788579-2.97349 0-2.97349-0.788579-2.97349-1.54497-2.66019-2.10258-2.10258-2.66019-1.54497-2.97349-0.788579-2.97349 0-2.97349 0.788579-2.66019 1.54497-2.10258 2.10258-1.54497 2.66019-0.788579 2.97349 0 2.97349Z" stroke="#78D695" stroke-width="1.32979" stroke-linejoin="round" fill="#78D695" transform="matrix(1 0 0 1.00202 534.281 446.464)"/><path d="M0 2.97349C0.788579 2.97349 1.54497 2.66019 2.10258 2.10258 2.66019 1.54497 2.97349 0.788579 2.97349 0 2.97349-0.788579 2.66019-1.54497 2.10258-2.10258 1.54497-2.66019 0.788579-2.97349 0-2.97349-0.788579-2.97349-1.54497-2.66019-2.10258-2.10258-2.66019-1.54497-2.97349-0.788579-2.97349 0-2.97349 0.788579-2.66019 1.54497-2.10258 2.10258-1.54497 2.66019-0.788579 2.97349 0 2.97349Z" stroke="#78D695" stroke-width="1.32979" stroke-linejoin="round" fill="#78D695" transform="matrix(1 0 0 1.00202 673.816 495.07)"/><path d="M0 2.97349C0.788579 2.97349 1.54497 2.66019 2.10258 2.10258 2.66019 1.54497 2.97349 0.788579 2.97349 0 2.97349-0.788579 2.66019-1.54497 2.10258-2.10258 1.54497-2.66019 0.788579-2.97349 0-2.97349-0.788579-2.97349-1.54497-2.66019-2.10258-2.10258-2.66019-1.54497-2.97349-0.788579-2.97349 0-2.97349 0.788579-2.66019 1.54497-2.10258 2.10258-1.54497 2.66019-0.788579 2.97349 0 2.97349Z" stroke="#78D695" stroke-width="1.32979" stroke-linejoin="round" fill="#78D695" transform="matrix(1 0 0 1.00202 574.599 468.697)"/><path d="M0 2.97349C0.788579 2.97349 1.54497 2.66019 2.10258 2.10258 2.66019 1.54497 2.97349 0.788579 2.97349 0 2.97349-0.788579 2.66019-1.54497 2.10258-2.10258 1.54497-2.66019 0.788579-2.97349 0-2.97349-0.788579-2.97349-1.54497-2.66019-2.10258-2.10258-2.66019-1.54497-2.97349-0.788579-2.97349 0-2.97349 0.788579-2.66019 1.54497-2.10258 2.10258-1.54497 2.66019-0.788579 2.97349 0 2.97349Z" stroke="#78D695" stroke-width="1.32979" stroke-linejoin="round" fill="#78D695" transform="matrix(1 0 0 1.00202 526.503 455.911)"/><path d="M0 2.97349C0.788579 2.97349 1.54497 2.66019 2.10258 2.10258 2.66019 1.54497 2.97349 0.788579 2.97349 0 2.97349-0.788579 2.66019-1.54497 2.10258-2.10258 1.54497-2.66019 0.788579-2.97349 0-2.97349-0.788579-2.97349-1.54497-2.66019-2.10258-2.10258-2.66019-1.54497-2.97349-0.788579-2.97349 0-2.97349 0.788579-2.66019 1.54497-2.10258 2.10258-1.54497 2.66019-0.788579 2.97349 0 2.97349Z" stroke="#78D695" stroke-width="1.32979" stroke-linejoin="round" fill="#78D695" transform="matrix(1 0 0 1.00202 619.274 493.604)"/><path d="M0 2.97349C0.788579 2.97349 1.54497 2.66019 2.10258 2.10258 2.66019 1.54497 2.97349 0.788579 2.97349 0 2.97349-0.788579 2.66019-1.54497 2.10258-2.10258 1.54497-2.66019 0.788579-2.97349 0-2.97349-0.788579-2.97349-1.54497-2.66019-2.10258-2.10258-2.66019-1.54497-2.97349-0.788579-2.97349 0-2.97349 0.788579-2.66019 1.54497-2.10258 2.10258-1.54497 2.66019-0.788579 2.97349 0 2.97349Z" stroke="#78D695" stroke-width="1.32979" stroke-linejoin="round" fill="#78D695" transform="matrix(1 0 0 1.00202 601.287 487.364)"/></g><path d="M19.0159 437.074 19.0159 19.6276" stroke="#000000" stroke-width="1.06383" stroke-linecap="square" fill="none" transform="matrix(1 0 0 1.00202 389.682 131.835)"/><path d="M482.526 437.074 482.526 19.6276" stroke="#000000" stroke-width="1.06383" stroke-linecap="square" fill="none" transform="matrix(1 0 0 1.00202 389.682 131.835)"/><path d="M19.0159 437.074 482.526 437.074" stroke="#000000" stroke-width="1.06383" stroke-linecap="square" fill="none" transform="matrix(1 0 0 1.00202 389.682 131.835)"/><path d="M19.0159 19.6276 482.526 19.6276" stroke="#000000" stroke-width="1.06383" stroke-linecap="square" fill="none" transform="matrix(1 0 0 1.00202 389.682 131.835)"/><path d="M511.496 437.074 532.368 437.074 532.368 19.6276 511.496 19.6276Z" fill="#FFFFFF" transform="matrix(1 0 0 1.00202 389.682 131.835)"/><path d="M0 0 4.65425 0" stroke="#000000" stroke-width="1.06383" stroke-linejoin="round" fill="none" transform="matrix(1 0 0 1.00202 922.05 569.791)"/><path d="M4.22623 8.83061C3.55164 8.83061 3.04396 8.49817 2.70321 7.83327 2.36383 7.16976 2.19415 6.17104 2.19415 4.8371 2.19415 3.5087 2.36383 2.51205 2.70321 1.84716 3.04396 1.18226 3.55164 0.849817 4.22623 0.849817 4.90636 0.849817 5.41611 1.18226 5.75548 1.84716 6.09624 2.51205 6.26662 3.5087 6.26662 4.8371 6.26662 6.17104 6.09624 7.16976 5.75548 7.83327 5.41611 8.49817 4.90636 8.83061 4.22623 8.83061ZM4.22623 9.86951C5.3136 9.86951 6.14403 9.43941 6.7175 8.5792 7.29097 7.72038 7.5777 6.47301 7.5777 4.8371 7.5777 3.20534 7.29097 1.95936 6.7175 1.09915 6.14403 0.240331 5.3136-0.189079 4.22623-0.189079 3.14024-0.189079 2.3105 0.240331 1.73703 1.09915 1.16356 1.95936 0.876828 3.20534 0.876828 4.8371 0.876828 6.47301 1.16356 7.72038 1.73703 8.5792 2.3105 9.43941 3.14024 9.86951 4.22623 9.86951Z" transform="matrix(1 0 0 -1.00202 931.359 574.854)"/><path d="M1.42121 1.64977 2.79255 1.64977 2.79255 0 1.42121 0 1.42121 1.64977Z" transform="matrix(1 0 0 -1.00202 939.819 574.854)"/><path d="M4.22623 8.83061C3.55164 8.83061 3.04396 8.49817 2.70321 7.83327 2.36383 7.16976 2.19415 6.17104 2.19415 4.8371 2.19415 3.5087 2.36383 2.51205 2.70321 1.84716 3.04396 1.18226 3.55164 0.849817 4.22623 0.849817 4.90636 0.849817 5.41611 1.18226 5.75548 1.84716 6.09624 2.51205 6.26662 3.5087 6.26662 4.8371 6.26662 6.17104 6.09624 7.16976 5.75548 7.83327 5.41611 8.49817 4.90636 8.83061 4.22623 8.83061ZM4.22623 9.86951C5.3136 9.86951 6.14403 9.43941 6.7175 8.5792 7.29097 7.72038 7.5777 6.47301 7.5777 4.8371 7.5777 3.20534 7.29097 1.95936 6.7175 1.09915 6.14403 0.240331 5.3136-0.189079 4.22623-0.189079 3.14024-0.189079 2.3105 0.240331 1.73703 1.09915 1.16356 1.95936 0.876828 3.20534 0.876828 4.8371 0.876828 6.47301 1.16356 7.72038 1.73703 8.5792 2.3105 9.43941 3.14024 9.86951 4.22623 9.86951Z" transform="matrix(1 0 0 -1.00202 944.046 574.854)"/><path d="M0 0 4.65425 0" stroke="#000000" stroke-width="1.06383" stroke-linejoin="round" fill="none" transform="matrix(1 0 0 1.00202 922.05 486.134)"/><path d="M4.22623 8.83061C3.55164 8.83061 3.04396 8.49817 2.70321 7.83327 2.36383 7.16976 2.19415 6.17104 2.19415 4.8371 2.19415 3.5087 2.36383 2.51205 2.70321 1.84716 3.04396 1.18226 3.55164 0.849817 4.22623 0.849817 4.90636 0.849817 5.41611 1.18226 5.75548 1.84716 6.09624 2.51205 6.26662 3.5087 6.26662 4.8371 6.26662 6.17104 6.09624 7.16976 5.75548 7.83327 5.41611 8.49817 4.90636 8.83061 4.22623 8.83061ZM4.22623 9.86951C5.3136 9.86951 6.14403 9.43941 6.7175 8.5792 7.29097 7.72038 7.5777 6.47301 7.5777 4.8371 7.5777 3.20534 7.29097 1.95936 6.7175 1.09915 6.14403 0.240331 5.3136-0.189079 4.22623-0.189079 3.14024-0.189079 2.3105 0.240331 1.73703 1.09915 1.16356 1.95936 0.876828 3.20534 0.876828 4.8371 0.876828 6.47301 1.16356 7.72038 1.73703 8.5792 2.3105 9.43941 3.14024 9.86951 4.22623 9.86951Z" transform="matrix(1 0 0 -1.00202 931.359 491.196)"/><path d="M1.42121 1.64977 2.79255 1.64977 2.79255 0 1.42121 0 1.42121 1.64977Z" transform="matrix(1 0 0 -1.00202 939.819 491.196)"/><path d="M2.55153 1.10331 7.1289 1.10331 7.1289 0 0.974484 0 0.974484 1.10331C1.47177 1.6186 2.14982 2.30981 3.00864 3.17694 3.86885 4.04546 4.40907 4.60577 4.62932 4.85788 5.04903 5.32884 5.342 5.72778 5.50822 6.05468 5.67583 6.38159 5.75964 6.70295 5.75964 7.01878 5.75964 7.53407 5.57887 7.95378 5.21733 8.27792 4.8558 8.60344 4.38483 8.7662 3.80444 8.7662 3.39303 8.7662 2.95877 8.69486 2.50166 8.55219 2.04593 8.40951 1.55834 8.19273 1.0389 7.90184L1.0389 9.22747C1.56665 9.43941 2.05978 9.59939 2.51828 9.70744 2.97817 9.81549 3.39857 9.86951 3.7795 9.86951 4.78377 9.86951 5.58441 9.6181 6.18143 9.11527 6.77845 8.61383 7.07696 7.9434 7.07696 7.10397 7.07696 6.70503 7.00216 6.32687 6.85256 5.96949 6.70434 5.6135 6.43284 5.19309 6.03806 4.70827 5.93002 4.58222 5.58579 4.2193 5.0054 3.61951 4.42639 3.01972 3.60843 2.18099 2.55153 1.10331Z" transform="matrix(1 0 0 -1.00202 944.046 491.196)"/><path d="M0 0 4.65425 0" stroke="#000000" stroke-width="1.06383" stroke-linejoin="round" fill="none" transform="matrix(1 0 0 1.00202 922.05 402.476)"/><path d="M4.22623 8.83061C3.55164 8.83061 3.04396 8.49817 2.70321 7.83327 2.36383 7.16976 2.19415 6.17104 2.19415 4.8371 2.19415 3.5087 2.36383 2.51205 2.70321 1.84716 3.04396 1.18226 3.55164 0.849817 4.22623 0.849817 4.90636 0.849817 5.41611 1.18226 5.75548 1.84716 6.09624 2.51205 6.26662 3.5087 6.26662 4.8371 6.26662 6.17104 6.09624 7.16976 5.75548 7.83327 5.41611 8.49817 4.90636 8.83061 4.22623 8.83061ZM4.22623 9.86951C5.3136 9.86951 6.14403 9.43941 6.7175 8.5792 7.29097 7.72038 7.5777 6.47301 7.5777 4.8371 7.5777 3.20534 7.29097 1.95936 6.7175 1.09915 6.14403 0.240331 5.3136-0.189079 4.22623-0.189079 3.14024-0.189079 2.3105 0.240331 1.73703 1.09915 1.16356 1.95936 0.876828 3.20534 0.876828 4.8371 0.876828 6.47301 1.16356 7.72038 1.73703 8.5792 2.3105 9.43941 3.14024 9.86951 4.22623 9.86951Z" transform="matrix(1 0 0 -1.00202 931.359 407.538)"/><path d="M1.42121 1.64977 2.79255 1.64977 2.79255 0 1.42121 0 1.42121 1.64977Z" transform="matrix(1 0 0 -1.00202 939.819 407.538)"/><path d="M5.02618 8.55219 1.71418 3.37641 5.02618 3.37641 5.02618 8.55219ZM4.68126 9.69497 6.33103 9.69497 6.33103 3.37641 7.71484 3.37641 7.71484 2.28557 6.33103 2.28557 6.33103 0 5.02618 0 5.02618 2.28557 0.650349 2.28557 0.650349 3.55095 4.68126 9.69497Z" transform="matrix(1 0 0 -1.00202 944.046 407.538)"/><path d="M0 0 4.65425 0" stroke="#000000" stroke-width="1.06383" stroke-linejoin="round" fill="none" transform="matrix(1 0 0 1.00202 922.05 318.818)"/><path d="M4.22623 8.83061C3.55164 8.83061 3.04396 8.49817 2.70321 7.83327 2.36383 7.16976 2.19415 6.17104 2.19415 4.8371 2.19415 3.5087 2.36383 2.51205 2.70321 1.84716 3.04396 1.18226 3.55164 0.849817 4.22623 0.849817 4.90636 0.849817 5.41611 1.18226 5.75548 1.84716 6.09624 2.51205 6.26662 3.5087 6.26662 4.8371 6.26662 6.17104 6.09624 7.16976 5.75548 7.83327 5.41611 8.49817 4.90636 8.83061 4.22623 8.83061ZM4.22623 9.86951C5.3136 9.86951 6.14403 9.43941 6.7175 8.5792 7.29097 7.72038 7.5777 6.47301 7.5777 4.8371 7.5777 3.20534 7.29097 1.95936 6.7175 1.09915 6.14403 0.240331 5.3136-0.189079 4.22623-0.189079 3.14024-0.189079 2.3105 0.240331 1.73703 1.09915 1.16356 1.95936 0.876828 3.20534 0.876828 4.8371 0.876828 6.47301 1.16356 7.72038 1.73703 8.5792 2.3105 9.43941 3.14024 9.86951 4.22623 9.86951Z" transform="matrix(1 0 0 -1.00202 931.359 323.88)"/><path d="M1.42121 1.64977 2.79255 1.64977 2.79255 0 1.42121 0 1.42121 1.64977Z" transform="matrix(1 0 0 -1.00202 939.819 323.88)"/><path d="M4.39037 5.36901C3.80167 5.36901 3.33485 5.16747 2.98994 4.76438 2.64641 4.36267 2.47465 3.81136 2.47465 3.11045 2.47465 2.4137 2.64641 1.86239 2.98994 1.45653 3.33485 1.05205 3.80167 0.849817 4.39037 0.849817 4.97908 0.849817 5.4452 1.05205 5.78873 1.45653 6.13225 1.86239 6.30402 2.4137 6.30402 3.11045 6.30402 3.81136 6.13225 4.36267 5.78873 4.76438 5.4452 5.16747 4.97908 5.36901 4.39037 5.36901ZM6.99384 9.48096 6.99384 8.28623C6.66417 8.44137 6.33172 8.55981 5.99651 8.64153 5.66129 8.72464 5.32884 8.7662 4.99917 8.7662 4.13342 8.7662 3.47199 8.47392 3.01487 7.88937 2.55915 7.30482 2.29873 6.42176 2.23363 5.24019 2.4885 5.61696 2.80848 5.90578 3.19356 6.10663 3.58003 6.30748 4.0046 6.40791 4.46725 6.40791 5.44104 6.40791 6.21052 6.11217 6.77568 5.52069 7.34084 4.9306 7.62342 4.12719 7.62342 3.11045 7.62342 2.1145 7.32906 1.31524 6.74035 0.712682 6.15165 0.111508 5.36832-0.189079 4.39037-0.189079 3.26837-0.189079 2.41093 0.240331 1.81807 1.09915 1.2252 1.95936 0.928773 3.20534 0.928773 4.8371 0.928773 6.36912 1.29239 7.59086 2.01961 8.50232 2.74684 9.41378 3.72271 9.86951 4.94722 9.86951 5.2769 9.86951 5.60934 9.83696 5.94456 9.77185 6.27978 9.70675 6.62954 9.60978 6.99384 9.48096Z" transform="matrix(1 0 0 -1.00202 944.046 323.88)"/><path d="M0 0 4.65425 0" stroke="#000000" stroke-width="1.06383" stroke-linejoin="round" fill="none" transform="matrix(1 0 0 1.00202 922.05 235.16)"/><path d="M4.22623 8.83061C3.55164 8.83061 3.04396 8.49817 2.70321 7.83327 2.36383 7.16976 2.19415 6.17104 2.19415 4.8371 2.19415 3.5087 2.36383 2.51205 2.70321 1.84716 3.04396 1.18226 3.55164 0.849817 4.22623 0.849817 4.90636 0.849817 5.41611 1.18226 5.75548 1.84716 6.09624 2.51205 6.26662 3.5087 6.26662 4.8371 6.26662 6.17104 6.09624 7.16976 5.75548 7.83327 5.41611 8.49817 4.90636 8.83061 4.22623 8.83061ZM4.22623 9.86951C5.3136 9.86951 6.14403 9.43941 6.7175 8.5792 7.29097 7.72038 7.5777 6.47301 7.5777 4.8371 7.5777 3.20534 7.29097 1.95936 6.7175 1.09915 6.14403 0.240331 5.3136-0.189079 4.22623-0.189079 3.14024-0.189079 2.3105 0.240331 1.73703 1.09915 1.16356 1.95936 0.876828 3.20534 0.876828 4.8371 0.876828 6.47301 1.16356 7.72038 1.73703 8.5792 2.3105 9.43941 3.14024 9.86951 4.22623 9.86951Z" transform="matrix(1 0 0 -1.00202 931.359 240.223)"/><path d="M1.42121 1.64977 2.79255 1.64977 2.79255 0 1.42121 0 1.42121 1.64977Z" transform="matrix(1 0 0 -1.00202 939.819 240.223)"/><path d="M4.22623 4.60439C3.60289 4.60439 3.11253 4.43747 2.75515 4.10364 2.39916 3.76981 2.22116 3.31131 2.22116 2.72814 2.22116 2.14359 2.39916 1.6844 2.75515 1.35056 3.11253 1.01673 3.60289 0.849817 4.22623 0.849817 4.84956 0.849817 5.34062 1.01743 5.69938 1.35264 6.05953 1.68924 6.23961 2.14774 6.23961 2.72814 6.23961 3.31131 6.06092 3.76981 5.70354 4.10364 5.34754 4.43747 4.85511 4.60439 4.22623 4.60439ZM2.91514 5.16123C2.35275 5.29975 1.91434 5.56155 1.5999 5.94664 1.28685 6.33311 1.13032 6.80338 1.13032 7.35746 1.13032 8.13178 1.40597 8.74404 1.95728 9.19423 2.50997 9.64441 3.26629 9.86951 4.22623 9.86951 5.19171 9.86951 5.94941 9.64441 6.49933 9.19423 7.04925 8.74404 7.32421 8.13178 7.32421 7.35746 7.32421 6.80338 7.16699 6.33311 6.85256 5.94664 6.5395 5.56155 6.10386 5.29975 5.54562 5.16123 6.17727 5.0144 6.66902 4.72628 7.02086 4.29687 7.37408 3.86885 7.55069 3.34594 7.55069 2.72814 7.55069 1.78759 7.26396 1.06591 6.69049 0.563081 6.11702 0.0616411 5.2956-0.189079 4.22623-0.189079 3.15824-0.189079 2.33682 0.0616411 1.76197 0.563081 1.1885 1.06591 0.901761 1.78759 0.901761 2.72814 0.901761 3.34594 1.07907 3.86885 1.43368 4.29687 1.78967 4.72628 2.28349 5.0144 2.91514 5.16123ZM2.43517 7.23279C2.43517 6.73135 2.5917 6.34003 2.90475 6.05884 3.21919 5.77764 3.65968 5.63705 4.22623 5.63705 4.79 5.63705 5.23049 5.77764 5.5477 6.05884 5.8663 6.34003 6.02559 6.73135 6.02559 7.23279 6.02559 7.73562 5.8663 8.12763 5.5477 8.40882 5.23049 8.69002 4.79 8.83061 4.22623 8.83061 3.65968 8.83061 3.21919 8.69002 2.90475 8.40882 2.5917 8.12763 2.43517 7.73562 2.43517 7.23279Z" transform="matrix(1 0 0 -1.00202 944.046 240.223)"/><path d="M0 0 4.65425 0" stroke="#000000" stroke-width="1.06383" stroke-linejoin="round" fill="none" transform="matrix(1 0 0 1.00202 922.05 151.502)"/><path d="M1.64977 1.10331 3.79197 1.10331 3.79197 8.50024 1.46069 8.03274 1.46069 9.22747 3.7795 9.69497 5.09059 9.69497 5.09059 1.10331 7.23279 1.10331 7.23279 0 1.64977 0 1.64977 1.10331Z" transform="matrix(1 0 0 -1.00202 931.359 156.565)"/><path d="M1.42121 1.64977 2.79255 1.64977 2.79255 0 1.42121 0 1.42121 1.64977Z" transform="matrix(1 0 0 -1.00202 939.819 156.565)"/><path d="M4.22623 8.83061C3.55164 8.83061 3.04396 8.49817 2.70321 7.83327 2.36383 7.16976 2.19415 6.17104 2.19415 4.8371 2.19415 3.5087 2.36383 2.51205 2.70321 1.84716 3.04396 1.18226 3.55164 0.849817 4.22623 0.849817 4.90636 0.849817 5.41611 1.18226 5.75548 1.84716 6.09624 2.51205 6.26662 3.5087 6.26662 4.8371 6.26662 6.17104 6.09624 7.16976 5.75548 7.83327 5.41611 8.49817 4.90636 8.83061 4.22623 8.83061ZM4.22623 9.86951C5.3136 9.86951 6.14403 9.43941 6.7175 8.5792 7.29097 7.72038 7.5777 6.47301 7.5777 4.8371 7.5777 3.20534 7.29097 1.95936 6.7175 1.09915 6.14403 0.240331 5.3136-0.189079 4.22623-0.189079 3.14024-0.189079 2.3105 0.240331 1.73703 1.09915 1.16356 1.95936 0.876828 3.20534 0.876828 4.8371 0.876828 6.47301 1.16356 7.72038 1.73703 8.5792 2.3105 9.43941 3.14024 9.86951 4.22623 9.86951Z" transform="matrix(1 0 0 -1.00202 944.046 156.565)"/><path d="M511.496 437.074 521.932 437.074 532.368 437.074 532.368 19.6276 521.932 19.6276 511.496 19.6276 511.496 437.074Z" stroke="#000000" stroke-width="1.06383" stroke-linecap="square" fill="none" transform="matrix(1 0 0 1.00202 389.682 131.835)"/></g></svg>